%TF.GenerationSoftware,KiCad,Pcbnew,8.0.3-alt0.p10*%
%TF.CreationDate,2024-12-28T11:41:12+07:00*%
%TF.ProjectId,esp32-ddc-frontend,65737033-322d-4646-9463-2d66726f6e74,rev?*%
%TF.SameCoordinates,Original*%
%TF.FileFunction,Drillmap*%
%TF.FilePolarity,Positive*%
%FSLAX45Y45*%
G04 Gerber Fmt 4.5, Leading zero omitted, Abs format (unit mm)*
G04 Created by KiCad (PCBNEW 8.0.3-alt0.p10) date 2024-12-28 11:41:12*
%MOMM*%
%LPD*%
G01*
G04 APERTURE LIST*
%ADD10C,0.050000*%
%ADD11C,0.200000*%
%ADD12C,0.100000*%
%ADD13C,0.110000*%
G04 APERTURE END LIST*
D10*
X15240000Y-15875000D02*
X5461000Y-15875000D01*
X15240182Y-7976303D02*
X15240000Y-15875000D01*
X5461182Y-7976303D02*
X15240182Y-7976303D01*
X5461000Y-15875000D02*
X5461182Y-7976303D01*
D11*
D12*
X5596398Y-12980975D02*
X5636398Y-13020975D01*
X5636398Y-12980975D02*
X5596398Y-13020975D01*
X5620644Y-10439689D02*
X5660644Y-10479689D01*
X5660644Y-10439689D02*
X5620644Y-10479689D01*
X6075920Y-12985074D02*
X6115920Y-13025074D01*
X6115920Y-12985074D02*
X6075920Y-13025074D01*
X6186234Y-10431492D02*
X6226234Y-10471492D01*
X6226234Y-10431492D02*
X6186234Y-10471492D01*
X6479241Y-15390005D02*
X6519241Y-15430005D01*
X6519241Y-15390005D02*
X6479241Y-15430005D01*
X6757758Y-8078049D02*
X6797758Y-8118049D01*
X6797758Y-8078049D02*
X6757758Y-8118049D01*
X7040977Y-12821272D02*
X7080977Y-12861272D01*
X7080977Y-12821272D02*
X7040977Y-12861272D01*
X7043867Y-12300561D02*
X7083867Y-12340561D01*
X7083867Y-12300561D02*
X7043867Y-12340561D01*
X7045312Y-14591452D02*
X7085312Y-14631452D01*
X7085312Y-14591452D02*
X7045312Y-14631452D01*
X7046007Y-10889974D02*
X7086007Y-10929974D01*
X7086007Y-10889974D02*
X7046007Y-10929974D01*
X7105178Y-9258606D02*
X7145178Y-9298606D01*
X7145178Y-9258606D02*
X7105178Y-9298606D01*
X7388397Y-13009415D02*
X7428397Y-13049415D01*
X7428397Y-13009415D02*
X7388397Y-13049415D01*
X7484693Y-12694564D02*
X7524693Y-12734564D01*
X7524693Y-12694564D02*
X7484693Y-12734564D01*
X7529668Y-15359410D02*
X7569668Y-15399410D01*
X7569668Y-15359410D02*
X7529668Y-15399410D01*
X7579804Y-12419998D02*
X7619804Y-12459998D01*
X7619804Y-12419998D02*
X7579804Y-12459998D01*
X7624133Y-12628095D02*
X7664133Y-12668095D01*
X7664133Y-12628095D02*
X7624133Y-12668095D01*
X7636340Y-9230278D02*
X7676340Y-9270278D01*
X7676340Y-9230278D02*
X7636340Y-9270278D01*
X7725369Y-10122768D02*
X7765369Y-10162768D01*
X7765369Y-10122768D02*
X7725369Y-10162768D01*
X7750817Y-11787651D02*
X7790817Y-11827651D01*
X7790817Y-11787651D02*
X7750817Y-11827651D01*
X7933791Y-9704783D02*
X7973791Y-9744783D01*
X7973791Y-9704783D02*
X7933791Y-9744783D01*
X8071331Y-15420233D02*
X8111331Y-15460233D01*
X8111331Y-15420233D02*
X8071331Y-15460233D01*
X8085064Y-15190517D02*
X8125064Y-15230517D01*
X8125064Y-15190517D02*
X8085064Y-15230517D01*
X8464935Y-10636799D02*
X8504935Y-10676799D01*
X8504935Y-10636799D02*
X8464935Y-10676799D01*
X8521611Y-9662290D02*
X8561611Y-9702290D01*
X8561611Y-9662290D02*
X8521611Y-9702290D01*
X8616827Y-8073130D02*
X8656827Y-8113130D01*
X8656827Y-8073130D02*
X8616827Y-8113130D01*
X9255449Y-10078661D02*
X9295449Y-10118661D01*
X9295449Y-10078661D02*
X9255449Y-10118661D01*
X9541443Y-9726029D02*
X9581443Y-9766029D01*
X9581443Y-9726029D02*
X9541443Y-9766029D01*
X9865083Y-14135612D02*
X9905083Y-14175612D01*
X9905083Y-14135612D02*
X9865083Y-14175612D01*
X10140000Y-12553000D02*
X10180000Y-12593000D01*
X10180000Y-12553000D02*
X10140000Y-12593000D01*
X10191429Y-15400204D02*
X10231429Y-15440204D01*
X10231429Y-15400204D02*
X10191429Y-15440204D01*
X10267000Y-12299000D02*
X10307000Y-12339000D01*
X10307000Y-12299000D02*
X10267000Y-12339000D01*
X10364941Y-8063294D02*
X10404941Y-8103294D01*
X10404941Y-8063294D02*
X10364941Y-8103294D01*
X10394000Y-12172000D02*
X10434000Y-12212000D01*
X10434000Y-12172000D02*
X10394000Y-12212000D01*
X10394000Y-13061000D02*
X10434000Y-13101000D01*
X10434000Y-13061000D02*
X10394000Y-13101000D01*
X10521000Y-12172000D02*
X10561000Y-12212000D01*
X10561000Y-12172000D02*
X10521000Y-12212000D01*
X10521000Y-12680000D02*
X10561000Y-12720000D01*
X10561000Y-12680000D02*
X10521000Y-12720000D01*
X10648000Y-12172000D02*
X10688000Y-12212000D01*
X10688000Y-12172000D02*
X10648000Y-12212000D01*
X11040395Y-12695116D02*
X11080395Y-12735116D01*
X11080395Y-12695116D02*
X11040395Y-12735116D01*
X11071049Y-9731026D02*
X11111049Y-9771026D01*
X11111049Y-9731026D02*
X11071049Y-9771026D01*
X11150116Y-11964248D02*
X11190116Y-12004248D01*
X11190116Y-11964248D02*
X11150116Y-12004248D01*
X11241856Y-14115216D02*
X11281856Y-14155216D01*
X11281856Y-14115216D02*
X11241856Y-14155216D01*
X11252054Y-15420600D02*
X11292054Y-15460600D01*
X11292054Y-15420600D02*
X11252054Y-15460600D01*
X11582433Y-11977881D02*
X11622433Y-12017881D01*
X11622433Y-11977881D02*
X11582433Y-12017881D01*
X11587234Y-13611734D02*
X11627234Y-13651734D01*
X11627234Y-13611734D02*
X11587234Y-13651734D01*
X11596210Y-14461039D02*
X11636210Y-14501039D01*
X11636210Y-14461039D02*
X11596210Y-14501039D01*
X11596210Y-14997853D02*
X11636210Y-15037853D01*
X11636210Y-14997853D02*
X11596210Y-15037853D01*
X11604800Y-12739709D02*
X11644800Y-12779709D01*
X11644800Y-12739709D02*
X11604800Y-12779709D01*
X11660627Y-15701079D02*
X11700627Y-15741079D01*
X11700627Y-15701079D02*
X11660627Y-15741079D01*
X11730843Y-10850427D02*
X11770843Y-10890427D01*
X11770843Y-10850427D02*
X11730843Y-10890427D01*
X11844878Y-14318096D02*
X11884878Y-14358096D01*
X11884878Y-14318096D02*
X11844878Y-14358096D01*
X11853170Y-11570025D02*
X11893170Y-11610025D01*
X11893170Y-11570025D02*
X11853170Y-11610025D01*
X11919083Y-8058376D02*
X11959083Y-8098376D01*
X11959083Y-8058376D02*
X11919083Y-8098376D01*
X12057813Y-12967444D02*
X12097813Y-13007444D01*
X12097813Y-12967444D02*
X12057813Y-13007444D01*
X12137506Y-15253260D02*
X12177506Y-15293260D01*
X12177506Y-15253260D02*
X12137506Y-15293260D01*
X12359912Y-13777180D02*
X12399912Y-13817180D01*
X12399912Y-13777180D02*
X12359912Y-13817180D01*
X12391124Y-10818218D02*
X12431124Y-10858218D01*
X12431124Y-10818218D02*
X12391124Y-10858218D01*
X12439170Y-14133527D02*
X12479170Y-14173527D01*
X12479170Y-14133527D02*
X12439170Y-14173527D01*
X12482333Y-12997646D02*
X12522333Y-13037646D01*
X12522333Y-12997646D02*
X12482333Y-13037646D01*
X12487321Y-15808442D02*
X12527321Y-15848442D01*
X12527321Y-15808442D02*
X12487321Y-15848442D01*
X12526597Y-11812367D02*
X12566597Y-11852367D01*
X12566597Y-11812367D02*
X12526597Y-11852367D01*
X12591941Y-14314416D02*
X12631941Y-14354416D01*
X12631941Y-14314416D02*
X12591941Y-14354416D01*
X12635778Y-11502682D02*
X12675778Y-11542682D01*
X12675778Y-11502682D02*
X12635778Y-11542682D01*
X12823431Y-15096721D02*
X12863431Y-15136721D01*
X12863431Y-15096721D02*
X12823431Y-15136721D01*
X12929730Y-12541380D02*
X12969730Y-12581380D01*
X12969730Y-12541380D02*
X12929730Y-12581380D01*
X12948942Y-12854327D02*
X12988942Y-12894327D01*
X12988942Y-12854327D02*
X12948942Y-12894327D01*
X13110712Y-9751423D02*
X13150712Y-9791423D01*
X13150712Y-9751423D02*
X13110712Y-9791423D01*
X13126559Y-10828955D02*
X13166559Y-10868955D01*
X13166559Y-10828955D02*
X13126559Y-10868955D01*
X13232240Y-13142567D02*
X13272240Y-13182567D01*
X13272240Y-13142567D02*
X13232240Y-13182567D01*
X13240694Y-8058376D02*
X13280694Y-8098376D01*
X13280694Y-8058376D02*
X13240694Y-8098376D01*
X13318422Y-12392711D02*
X13358422Y-12432711D01*
X13358422Y-12392711D02*
X13318422Y-12432711D01*
X13487539Y-12854327D02*
X13527539Y-12894327D01*
X13527539Y-12854327D02*
X13487539Y-12894327D01*
X13488641Y-15657553D02*
X13528641Y-15697553D01*
X13528641Y-15657553D02*
X13488641Y-15697553D01*
X13491164Y-15797706D02*
X13531164Y-15837706D01*
X13531164Y-15797706D02*
X13491164Y-15837706D01*
X13500723Y-15269331D02*
X13540723Y-15309331D01*
X13540723Y-15269331D02*
X13500723Y-15309331D01*
X13503161Y-14439332D02*
X13543161Y-14479332D01*
X13543161Y-14439332D02*
X13503161Y-14479332D01*
X13532416Y-14149333D02*
X13572416Y-14189333D01*
X13572416Y-14149333D02*
X13532416Y-14189333D01*
X13627040Y-13266230D02*
X13667040Y-13306230D01*
X13667040Y-13266230D02*
X13627040Y-13306230D01*
X13638103Y-11895975D02*
X13678103Y-11935975D01*
X13678103Y-11895975D02*
X13638103Y-11935975D01*
X13851258Y-10818218D02*
X13891258Y-10858218D01*
X13891258Y-10818218D02*
X13851258Y-10858218D01*
X14011884Y-13877998D02*
X14051884Y-13917998D01*
X14051884Y-13877998D02*
X14011884Y-13917998D01*
X14111652Y-13076182D02*
X14151652Y-13116182D01*
X14151652Y-13076182D02*
X14111652Y-13116182D01*
X14327592Y-15797167D02*
X14367592Y-15837167D01*
X14367592Y-15797167D02*
X14327592Y-15837167D01*
X14507882Y-9792216D02*
X14547882Y-9832216D01*
X14547882Y-9792216D02*
X14507882Y-9832216D01*
X14508619Y-13863244D02*
X14548619Y-13903244D01*
X14548619Y-13863244D02*
X14508619Y-13903244D01*
X14603427Y-11818514D02*
X14643427Y-11858514D01*
X14643427Y-11818514D02*
X14603427Y-11858514D01*
X14629639Y-10823587D02*
X14669639Y-10863587D01*
X14669639Y-10823587D02*
X14629639Y-10863587D01*
X14646328Y-12323856D02*
X14686328Y-12363856D01*
X14686328Y-12323856D02*
X14646328Y-12363856D01*
X14886904Y-8082967D02*
X14926904Y-8122967D01*
X14926904Y-8082967D02*
X14886904Y-8122967D01*
X15064458Y-15792338D02*
X15104458Y-15832338D01*
X15104458Y-15792338D02*
X15064458Y-15832338D01*
X15080563Y-10834323D02*
X15120563Y-10874323D01*
X15120563Y-10834323D02*
X15080563Y-10874323D01*
X15091299Y-11499972D02*
X15131299Y-11539972D01*
X15131299Y-11499972D02*
X15091299Y-11539972D01*
X15091299Y-13886648D02*
X15131299Y-13926648D01*
X15131299Y-13886648D02*
X15091299Y-13926648D01*
X15096667Y-12974064D02*
X15136667Y-13014064D01*
X15136667Y-12974064D02*
X15096667Y-13014064D01*
X15102035Y-12291021D02*
X15142035Y-12331021D01*
X15142035Y-12291021D02*
X15102035Y-12331021D01*
X15119781Y-9792216D02*
X15159781Y-9832216D01*
X15159781Y-9792216D02*
X15119781Y-9832216D01*
X12140526Y-11511964D02*
G75*
G02*
X12065526Y-11511964I-37500J0D01*
G01*
X12065526Y-11511964D02*
G75*
G02*
X12140526Y-11511964I37500J0D01*
G01*
X12267526Y-11511964D02*
G75*
G02*
X12192526Y-11511964I-37500J0D01*
G01*
X12192526Y-11511964D02*
G75*
G02*
X12267526Y-11511964I37500J0D01*
G01*
X12394526Y-11511964D02*
G75*
G02*
X12319526Y-11511964I-37500J0D01*
G01*
X12319526Y-11511964D02*
G75*
G02*
X12394526Y-11511964I37500J0D01*
G01*
X13409731Y-11544174D02*
G75*
G02*
X13334731Y-11544174I-37500J0D01*
G01*
X13334731Y-11544174D02*
G75*
G02*
X13409731Y-11544174I37500J0D01*
G01*
X13536731Y-11544174D02*
G75*
G02*
X13461731Y-11544174I-37500J0D01*
G01*
X13461731Y-11544174D02*
G75*
G02*
X13536731Y-11544174I37500J0D01*
G01*
X13663731Y-11544174D02*
G75*
G02*
X13588731Y-11544174I-37500J0D01*
G01*
X13588731Y-11544174D02*
G75*
G02*
X13663731Y-11544174I37500J0D01*
G01*
X10033000Y-9231000D02*
X10033000Y-9311000D01*
X9993000Y-9271000D02*
X10073000Y-9271000D01*
X10033000Y-10247000D02*
X10033000Y-10327000D01*
X9993000Y-10287000D02*
X10073000Y-10287000D01*
X12846095Y-14778516D02*
X12846095Y-14858516D01*
X12806095Y-14818516D02*
X12886095Y-14818516D01*
X12846095Y-15540516D02*
X12846095Y-15620516D01*
X12806095Y-15580516D02*
X12886095Y-15580516D01*
X6889820Y-9810820D02*
X6889820Y-9747180D01*
X6826180Y-9747180D01*
X6826180Y-9810820D01*
X6889820Y-9810820D01*
X6889820Y-10064820D02*
X6889820Y-10001180D01*
X6826180Y-10001180D01*
X6826180Y-10064820D01*
X6889820Y-10064820D01*
X6889820Y-10318820D02*
X6889820Y-10255180D01*
X6826180Y-10255180D01*
X6826180Y-10318820D01*
X6889820Y-10318820D01*
X6889820Y-10572820D02*
X6889820Y-10509180D01*
X6826180Y-10509180D01*
X6826180Y-10572820D01*
X6889820Y-10572820D01*
X6889820Y-10826820D02*
X6889820Y-10763180D01*
X6826180Y-10763180D01*
X6826180Y-10826820D01*
X6889820Y-10826820D01*
X6889820Y-11080820D02*
X6889820Y-11017180D01*
X6826180Y-11017180D01*
X6826180Y-11080820D01*
X6889820Y-11080820D01*
X6889820Y-11334820D02*
X6889820Y-11271180D01*
X6826180Y-11271180D01*
X6826180Y-11334820D01*
X6889820Y-11334820D01*
X6889820Y-11588820D02*
X6889820Y-11525180D01*
X6826180Y-11525180D01*
X6826180Y-11588820D01*
X6889820Y-11588820D01*
X6889820Y-11842820D02*
X6889820Y-11779180D01*
X6826180Y-11779180D01*
X6826180Y-11842820D01*
X6889820Y-11842820D01*
X6889820Y-12096820D02*
X6889820Y-12033180D01*
X6826180Y-12033180D01*
X6826180Y-12096820D01*
X6889820Y-12096820D01*
X6889820Y-12350820D02*
X6889820Y-12287180D01*
X6826180Y-12287180D01*
X6826180Y-12350820D01*
X6889820Y-12350820D01*
X6889820Y-12604820D02*
X6889820Y-12541180D01*
X6826180Y-12541180D01*
X6826180Y-12604820D01*
X6889820Y-12604820D01*
X6889820Y-12858820D02*
X6889820Y-12795180D01*
X6826180Y-12795180D01*
X6826180Y-12858820D01*
X6889820Y-12858820D01*
X6889820Y-13112820D02*
X6889820Y-13049180D01*
X6826180Y-13049180D01*
X6826180Y-13112820D01*
X6889820Y-13112820D01*
X6889820Y-13366820D02*
X6889820Y-13303180D01*
X6826180Y-13303180D01*
X6826180Y-13366820D01*
X6889820Y-13366820D01*
X6889820Y-13620820D02*
X6889820Y-13557180D01*
X6826180Y-13557180D01*
X6826180Y-13620820D01*
X6889820Y-13620820D01*
X6889820Y-13874820D02*
X6889820Y-13811180D01*
X6826180Y-13811180D01*
X6826180Y-13874820D01*
X6889820Y-13874820D01*
X6889820Y-14128820D02*
X6889820Y-14065180D01*
X6826180Y-14065180D01*
X6826180Y-14128820D01*
X6889820Y-14128820D01*
X6889820Y-14382820D02*
X6889820Y-14319180D01*
X6826180Y-14319180D01*
X6826180Y-14382820D01*
X6889820Y-14382820D01*
X6889820Y-14636820D02*
X6889820Y-14573180D01*
X6826180Y-14573180D01*
X6826180Y-14636820D01*
X6889820Y-14636820D01*
X8921820Y-9810820D02*
X8921820Y-9747180D01*
X8858180Y-9747180D01*
X8858180Y-9810820D01*
X8921820Y-9810820D01*
X8921820Y-10064820D02*
X8921820Y-10001180D01*
X8858180Y-10001180D01*
X8858180Y-10064820D01*
X8921820Y-10064820D01*
X8921820Y-10318820D02*
X8921820Y-10255180D01*
X8858180Y-10255180D01*
X8858180Y-10318820D01*
X8921820Y-10318820D01*
X8921820Y-10572820D02*
X8921820Y-10509180D01*
X8858180Y-10509180D01*
X8858180Y-10572820D01*
X8921820Y-10572820D01*
X8921820Y-10826820D02*
X8921820Y-10763180D01*
X8858180Y-10763180D01*
X8858180Y-10826820D01*
X8921820Y-10826820D01*
X8921820Y-11080820D02*
X8921820Y-11017180D01*
X8858180Y-11017180D01*
X8858180Y-11080820D01*
X8921820Y-11080820D01*
X8921820Y-11334820D02*
X8921820Y-11271180D01*
X8858180Y-11271180D01*
X8858180Y-11334820D01*
X8921820Y-11334820D01*
X8921820Y-11588820D02*
X8921820Y-11525180D01*
X8858180Y-11525180D01*
X8858180Y-11588820D01*
X8921820Y-11588820D01*
X8921820Y-11842820D02*
X8921820Y-11779180D01*
X8858180Y-11779180D01*
X8858180Y-11842820D01*
X8921820Y-11842820D01*
X8921820Y-12096820D02*
X8921820Y-12033180D01*
X8858180Y-12033180D01*
X8858180Y-12096820D01*
X8921820Y-12096820D01*
X8921820Y-12350820D02*
X8921820Y-12287180D01*
X8858180Y-12287180D01*
X8858180Y-12350820D01*
X8921820Y-12350820D01*
X8921820Y-12604820D02*
X8921820Y-12541180D01*
X8858180Y-12541180D01*
X8858180Y-12604820D01*
X8921820Y-12604820D01*
X8921820Y-12858820D02*
X8921820Y-12795180D01*
X8858180Y-12795180D01*
X8858180Y-12858820D01*
X8921820Y-12858820D01*
X8921820Y-13112820D02*
X8921820Y-13049180D01*
X8858180Y-13049180D01*
X8858180Y-13112820D01*
X8921820Y-13112820D01*
X8921820Y-13366820D02*
X8921820Y-13303180D01*
X8858180Y-13303180D01*
X8858180Y-13366820D01*
X8921820Y-13366820D01*
X8921820Y-13620820D02*
X8921820Y-13557180D01*
X8858180Y-13557180D01*
X8858180Y-13620820D01*
X8921820Y-13620820D01*
X8921820Y-13874820D02*
X8921820Y-13811180D01*
X8858180Y-13811180D01*
X8858180Y-13874820D01*
X8921820Y-13874820D01*
X8921820Y-14128820D02*
X8921820Y-14065180D01*
X8858180Y-14065180D01*
X8858180Y-14128820D01*
X8921820Y-14128820D01*
X8921820Y-14382820D02*
X8921820Y-14319180D01*
X8858180Y-14319180D01*
X8858180Y-14382820D01*
X8921820Y-14382820D01*
X8921820Y-14636820D02*
X8921820Y-14573180D01*
X8858180Y-14573180D01*
X8858180Y-14636820D01*
X8921820Y-14636820D01*
X5822750Y-11099000D02*
X5872750Y-11049000D01*
X5822750Y-10999000D01*
X5772750Y-11049000D01*
X5822750Y-11099000D01*
X5822750Y-11353000D02*
X5872750Y-11303000D01*
X5822750Y-11253000D01*
X5772750Y-11303000D01*
X5822750Y-11353000D01*
X5822750Y-11607000D02*
X5872750Y-11557000D01*
X5822750Y-11507000D01*
X5772750Y-11557000D01*
X5822750Y-11607000D01*
X5822750Y-11861000D02*
X5872750Y-11811000D01*
X5822750Y-11761000D01*
X5772750Y-11811000D01*
X5822750Y-11861000D01*
X5822750Y-12115000D02*
X5872750Y-12065000D01*
X5822750Y-12015000D01*
X5772750Y-12065000D01*
X5822750Y-12115000D01*
X5822750Y-12369000D02*
X5872750Y-12319000D01*
X5822750Y-12269000D01*
X5772750Y-12319000D01*
X5822750Y-12369000D01*
X5822750Y-12623000D02*
X5872750Y-12573000D01*
X5822750Y-12523000D01*
X5772750Y-12573000D01*
X5822750Y-12623000D01*
X5823250Y-8559000D02*
X5873250Y-8509000D01*
X5823250Y-8459000D01*
X5773250Y-8509000D01*
X5823250Y-8559000D01*
X5823250Y-8813000D02*
X5873250Y-8763000D01*
X5823250Y-8713000D01*
X5773250Y-8763000D01*
X5823250Y-8813000D01*
X5823250Y-9067000D02*
X5873250Y-9017000D01*
X5823250Y-8967000D01*
X5773250Y-9017000D01*
X5823250Y-9067000D01*
X5823250Y-9321000D02*
X5873250Y-9271000D01*
X5823250Y-9221000D01*
X5773250Y-9271000D01*
X5823250Y-9321000D01*
X5823250Y-9575000D02*
X5873250Y-9525000D01*
X5823250Y-9475000D01*
X5773250Y-9525000D01*
X5823250Y-9575000D01*
X5823250Y-9829000D02*
X5873250Y-9779000D01*
X5823250Y-9729000D01*
X5773250Y-9779000D01*
X5823250Y-9829000D01*
X5823250Y-10083000D02*
X5873250Y-10033000D01*
X5823250Y-9983000D01*
X5773250Y-10033000D01*
X5823250Y-10083000D01*
X5823250Y-13511500D02*
X5873250Y-13461500D01*
X5823250Y-13411500D01*
X5773250Y-13461500D01*
X5823250Y-13511500D01*
X5823250Y-13765500D02*
X5873250Y-13715500D01*
X5823250Y-13665500D01*
X5773250Y-13715500D01*
X5823250Y-13765500D01*
X5823250Y-14019500D02*
X5873250Y-13969500D01*
X5823250Y-13919500D01*
X5773250Y-13969500D01*
X5823250Y-14019500D01*
X5823250Y-14273500D02*
X5873250Y-14223500D01*
X5823250Y-14173500D01*
X5773250Y-14223500D01*
X5823250Y-14273500D01*
X5823250Y-14527500D02*
X5873250Y-14477500D01*
X5823250Y-14427500D01*
X5773250Y-14477500D01*
X5823250Y-14527500D01*
X5823250Y-14781500D02*
X5873250Y-14731500D01*
X5823250Y-14681500D01*
X5773250Y-14731500D01*
X5823250Y-14781500D01*
X5823250Y-15035500D02*
X5873250Y-14985500D01*
X5823250Y-14935500D01*
X5773250Y-14985500D01*
X5823250Y-15035500D01*
X6076750Y-11099000D02*
X6126750Y-11049000D01*
X6076750Y-10999000D01*
X6026750Y-11049000D01*
X6076750Y-11099000D01*
X6076750Y-11353000D02*
X6126750Y-11303000D01*
X6076750Y-11253000D01*
X6026750Y-11303000D01*
X6076750Y-11353000D01*
X6076750Y-11607000D02*
X6126750Y-11557000D01*
X6076750Y-11507000D01*
X6026750Y-11557000D01*
X6076750Y-11607000D01*
X6076750Y-11861000D02*
X6126750Y-11811000D01*
X6076750Y-11761000D01*
X6026750Y-11811000D01*
X6076750Y-11861000D01*
X6076750Y-12115000D02*
X6126750Y-12065000D01*
X6076750Y-12015000D01*
X6026750Y-12065000D01*
X6076750Y-12115000D01*
X6076750Y-12369000D02*
X6126750Y-12319000D01*
X6076750Y-12269000D01*
X6026750Y-12319000D01*
X6076750Y-12369000D01*
X6076750Y-12623000D02*
X6126750Y-12573000D01*
X6076750Y-12523000D01*
X6026750Y-12573000D01*
X6076750Y-12623000D01*
X6077250Y-8559000D02*
X6127250Y-8509000D01*
X6077250Y-8459000D01*
X6027250Y-8509000D01*
X6077250Y-8559000D01*
X6077250Y-8813000D02*
X6127250Y-8763000D01*
X6077250Y-8713000D01*
X6027250Y-8763000D01*
X6077250Y-8813000D01*
X6077250Y-9067000D02*
X6127250Y-9017000D01*
X6077250Y-8967000D01*
X6027250Y-9017000D01*
X6077250Y-9067000D01*
X6077250Y-9321000D02*
X6127250Y-9271000D01*
X6077250Y-9221000D01*
X6027250Y-9271000D01*
X6077250Y-9321000D01*
X6077250Y-9575000D02*
X6127250Y-9525000D01*
X6077250Y-9475000D01*
X6027250Y-9525000D01*
X6077250Y-9575000D01*
X6077250Y-9829000D02*
X6127250Y-9779000D01*
X6077250Y-9729000D01*
X6027250Y-9779000D01*
X6077250Y-9829000D01*
X6077250Y-10083000D02*
X6127250Y-10033000D01*
X6077250Y-9983000D01*
X6027250Y-10033000D01*
X6077250Y-10083000D01*
X6077250Y-13511500D02*
X6127250Y-13461500D01*
X6077250Y-13411500D01*
X6027250Y-13461500D01*
X6077250Y-13511500D01*
X6077250Y-13765500D02*
X6127250Y-13715500D01*
X6077250Y-13665500D01*
X6027250Y-13715500D01*
X6077250Y-13765500D01*
X6077250Y-14019500D02*
X6127250Y-13969500D01*
X6077250Y-13919500D01*
X6027250Y-13969500D01*
X6077250Y-14019500D01*
X6077250Y-14273500D02*
X6127250Y-14223500D01*
X6077250Y-14173500D01*
X6027250Y-14223500D01*
X6077250Y-14273500D01*
X6077250Y-14527500D02*
X6127250Y-14477500D01*
X6077250Y-14427500D01*
X6027250Y-14477500D01*
X6077250Y-14527500D01*
X6077250Y-14781500D02*
X6127250Y-14731500D01*
X6077250Y-14681500D01*
X6027250Y-14731500D01*
X6077250Y-14781500D01*
X6077250Y-15035500D02*
X6127250Y-14985500D01*
X6077250Y-14935500D01*
X6027250Y-14985500D01*
X6077250Y-15035500D01*
X6741098Y-8531724D02*
X6791098Y-8481724D01*
X6741098Y-8431724D01*
X6691098Y-8481724D01*
X6741098Y-8531724D01*
X6995098Y-8531724D02*
X7045098Y-8481724D01*
X6995098Y-8431724D01*
X6945098Y-8481724D01*
X6995098Y-8531724D01*
X9584611Y-15616256D02*
X9634611Y-15566256D01*
X9584611Y-15516256D01*
X9534611Y-15566256D01*
X9584611Y-15616256D01*
X9838611Y-15616256D02*
X9888611Y-15566256D01*
X9838611Y-15516256D01*
X9788611Y-15566256D01*
X9838611Y-15616256D01*
X12123605Y-15560136D02*
X12173605Y-15510136D01*
X12123605Y-15460136D01*
X12073605Y-15510136D01*
X12123605Y-15560136D01*
X12377605Y-15560136D02*
X12427605Y-15510136D01*
X12377605Y-15460136D01*
X12327605Y-15510136D01*
X12377605Y-15560136D01*
D13*
X7819000Y-8581000D02*
X7929000Y-8691000D01*
X7929000Y-8581000D02*
X7819000Y-8691000D01*
X7929000Y-8636000D02*
G75*
G02*
X7819000Y-8636000I-55000J0D01*
G01*
X7819000Y-8636000D02*
G75*
G02*
X7929000Y-8636000I55000J0D01*
G01*
X8073000Y-8581000D02*
X8183000Y-8691000D01*
X8183000Y-8581000D02*
X8073000Y-8691000D01*
X8183000Y-8636000D02*
G75*
G02*
X8073000Y-8636000I-55000J0D01*
G01*
X8073000Y-8636000D02*
G75*
G02*
X8183000Y-8636000I55000J0D01*
G01*
X8327000Y-8581000D02*
X8437000Y-8691000D01*
X8437000Y-8581000D02*
X8327000Y-8691000D01*
X8437000Y-8636000D02*
G75*
G02*
X8327000Y-8636000I-55000J0D01*
G01*
X8327000Y-8636000D02*
G75*
G02*
X8437000Y-8636000I55000J0D01*
G01*
X10329469Y-8556918D02*
X10439469Y-8666918D01*
X10439469Y-8556918D02*
X10329469Y-8666918D01*
X10439469Y-8611918D02*
G75*
G02*
X10329469Y-8611918I-55000J0D01*
G01*
X10329469Y-8611918D02*
G75*
G02*
X10439469Y-8611918I55000J0D01*
G01*
X10583469Y-8556918D02*
X10693469Y-8666918D01*
X10693469Y-8556918D02*
X10583469Y-8666918D01*
X10693469Y-8611918D02*
G75*
G02*
X10583469Y-8611918I-55000J0D01*
G01*
X10583469Y-8611918D02*
G75*
G02*
X10693469Y-8611918I55000J0D01*
G01*
X10837469Y-8556918D02*
X10947469Y-8666918D01*
X10947469Y-8556918D02*
X10837469Y-8666918D01*
X10947469Y-8611918D02*
G75*
G02*
X10837469Y-8611918I-55000J0D01*
G01*
X10837469Y-8611918D02*
G75*
G02*
X10947469Y-8611918I55000J0D01*
G01*
D11*
X5719277Y-16188984D02*
X5719277Y-15988984D01*
X5719277Y-15988984D02*
X5766896Y-15988984D01*
X5766896Y-15988984D02*
X5795467Y-15998508D01*
X5795467Y-15998508D02*
X5814515Y-16017555D01*
X5814515Y-16017555D02*
X5824039Y-16036603D01*
X5824039Y-16036603D02*
X5833562Y-16074698D01*
X5833562Y-16074698D02*
X5833562Y-16103269D01*
X5833562Y-16103269D02*
X5824039Y-16141365D01*
X5824039Y-16141365D02*
X5814515Y-16160412D01*
X5814515Y-16160412D02*
X5795467Y-16179460D01*
X5795467Y-16179460D02*
X5766896Y-16188984D01*
X5766896Y-16188984D02*
X5719277Y-16188984D01*
X5919277Y-16188984D02*
X5919277Y-16055650D01*
X5919277Y-16093746D02*
X5928801Y-16074698D01*
X5928801Y-16074698D02*
X5938324Y-16065174D01*
X5938324Y-16065174D02*
X5957372Y-16055650D01*
X5957372Y-16055650D02*
X5976420Y-16055650D01*
X6043086Y-16188984D02*
X6043086Y-16055650D01*
X6043086Y-15988984D02*
X6033562Y-15998508D01*
X6033562Y-15998508D02*
X6043086Y-16008031D01*
X6043086Y-16008031D02*
X6052610Y-15998508D01*
X6052610Y-15998508D02*
X6043086Y-15988984D01*
X6043086Y-15988984D02*
X6043086Y-16008031D01*
X6166896Y-16188984D02*
X6147848Y-16179460D01*
X6147848Y-16179460D02*
X6138324Y-16160412D01*
X6138324Y-16160412D02*
X6138324Y-15988984D01*
X6271658Y-16188984D02*
X6252610Y-16179460D01*
X6252610Y-16179460D02*
X6243086Y-16160412D01*
X6243086Y-16160412D02*
X6243086Y-15988984D01*
X6500229Y-16188984D02*
X6500229Y-15988984D01*
X6500229Y-15988984D02*
X6566896Y-16131841D01*
X6566896Y-16131841D02*
X6633562Y-15988984D01*
X6633562Y-15988984D02*
X6633562Y-16188984D01*
X6814515Y-16188984D02*
X6814515Y-16084222D01*
X6814515Y-16084222D02*
X6804991Y-16065174D01*
X6804991Y-16065174D02*
X6785943Y-16055650D01*
X6785943Y-16055650D02*
X6747848Y-16055650D01*
X6747848Y-16055650D02*
X6728801Y-16065174D01*
X6814515Y-16179460D02*
X6795467Y-16188984D01*
X6795467Y-16188984D02*
X6747848Y-16188984D01*
X6747848Y-16188984D02*
X6728801Y-16179460D01*
X6728801Y-16179460D02*
X6719277Y-16160412D01*
X6719277Y-16160412D02*
X6719277Y-16141365D01*
X6719277Y-16141365D02*
X6728801Y-16122317D01*
X6728801Y-16122317D02*
X6747848Y-16112793D01*
X6747848Y-16112793D02*
X6795467Y-16112793D01*
X6795467Y-16112793D02*
X6814515Y-16103269D01*
X6909753Y-16055650D02*
X6909753Y-16255650D01*
X6909753Y-16065174D02*
X6928801Y-16055650D01*
X6928801Y-16055650D02*
X6966896Y-16055650D01*
X6966896Y-16055650D02*
X6985943Y-16065174D01*
X6985943Y-16065174D02*
X6995467Y-16074698D01*
X6995467Y-16074698D02*
X7004991Y-16093746D01*
X7004991Y-16093746D02*
X7004991Y-16150888D01*
X7004991Y-16150888D02*
X6995467Y-16169936D01*
X6995467Y-16169936D02*
X6985943Y-16179460D01*
X6985943Y-16179460D02*
X6966896Y-16188984D01*
X6966896Y-16188984D02*
X6928801Y-16188984D01*
X6928801Y-16188984D02*
X6909753Y-16179460D01*
X7090705Y-16169936D02*
X7100229Y-16179460D01*
X7100229Y-16179460D02*
X7090705Y-16188984D01*
X7090705Y-16188984D02*
X7081182Y-16179460D01*
X7081182Y-16179460D02*
X7090705Y-16169936D01*
X7090705Y-16169936D02*
X7090705Y-16188984D01*
X7090705Y-16065174D02*
X7100229Y-16074698D01*
X7100229Y-16074698D02*
X7090705Y-16084222D01*
X7090705Y-16084222D02*
X7081182Y-16074698D01*
X7081182Y-16074698D02*
X7090705Y-16065174D01*
X7090705Y-16065174D02*
X7090705Y-16084222D01*
D12*
X5418500Y-16497500D02*
X5458500Y-16537500D01*
X5458500Y-16497500D02*
X5418500Y-16537500D01*
D11*
X5757372Y-16408984D02*
X5776420Y-16408984D01*
X5776420Y-16408984D02*
X5795467Y-16418508D01*
X5795467Y-16418508D02*
X5804991Y-16428031D01*
X5804991Y-16428031D02*
X5814515Y-16447079D01*
X5814515Y-16447079D02*
X5824039Y-16485174D01*
X5824039Y-16485174D02*
X5824039Y-16532793D01*
X5824039Y-16532793D02*
X5814515Y-16570888D01*
X5814515Y-16570888D02*
X5804991Y-16589936D01*
X5804991Y-16589936D02*
X5795467Y-16599460D01*
X5795467Y-16599460D02*
X5776420Y-16608984D01*
X5776420Y-16608984D02*
X5757372Y-16608984D01*
X5757372Y-16608984D02*
X5738324Y-16599460D01*
X5738324Y-16599460D02*
X5728801Y-16589936D01*
X5728801Y-16589936D02*
X5719277Y-16570888D01*
X5719277Y-16570888D02*
X5709753Y-16532793D01*
X5709753Y-16532793D02*
X5709753Y-16485174D01*
X5709753Y-16485174D02*
X5719277Y-16447079D01*
X5719277Y-16447079D02*
X5728801Y-16428031D01*
X5728801Y-16428031D02*
X5738324Y-16418508D01*
X5738324Y-16418508D02*
X5757372Y-16408984D01*
X5909753Y-16589936D02*
X5919277Y-16599460D01*
X5919277Y-16599460D02*
X5909753Y-16608984D01*
X5909753Y-16608984D02*
X5900229Y-16599460D01*
X5900229Y-16599460D02*
X5909753Y-16589936D01*
X5909753Y-16589936D02*
X5909753Y-16608984D01*
X6090705Y-16475650D02*
X6090705Y-16608984D01*
X6043086Y-16399460D02*
X5995467Y-16542317D01*
X5995467Y-16542317D02*
X6119277Y-16542317D01*
X6233562Y-16408984D02*
X6252610Y-16408984D01*
X6252610Y-16408984D02*
X6271658Y-16418508D01*
X6271658Y-16418508D02*
X6281182Y-16428031D01*
X6281182Y-16428031D02*
X6290705Y-16447079D01*
X6290705Y-16447079D02*
X6300229Y-16485174D01*
X6300229Y-16485174D02*
X6300229Y-16532793D01*
X6300229Y-16532793D02*
X6290705Y-16570888D01*
X6290705Y-16570888D02*
X6281182Y-16589936D01*
X6281182Y-16589936D02*
X6271658Y-16599460D01*
X6271658Y-16599460D02*
X6252610Y-16608984D01*
X6252610Y-16608984D02*
X6233562Y-16608984D01*
X6233562Y-16608984D02*
X6214515Y-16599460D01*
X6214515Y-16599460D02*
X6204991Y-16589936D01*
X6204991Y-16589936D02*
X6195467Y-16570888D01*
X6195467Y-16570888D02*
X6185943Y-16532793D01*
X6185943Y-16532793D02*
X6185943Y-16485174D01*
X6185943Y-16485174D02*
X6195467Y-16447079D01*
X6195467Y-16447079D02*
X6204991Y-16428031D01*
X6204991Y-16428031D02*
X6214515Y-16418508D01*
X6214515Y-16418508D02*
X6233562Y-16408984D01*
X6424039Y-16408984D02*
X6443086Y-16408984D01*
X6443086Y-16408984D02*
X6462134Y-16418508D01*
X6462134Y-16418508D02*
X6471658Y-16428031D01*
X6471658Y-16428031D02*
X6481182Y-16447079D01*
X6481182Y-16447079D02*
X6490705Y-16485174D01*
X6490705Y-16485174D02*
X6490705Y-16532793D01*
X6490705Y-16532793D02*
X6481182Y-16570888D01*
X6481182Y-16570888D02*
X6471658Y-16589936D01*
X6471658Y-16589936D02*
X6462134Y-16599460D01*
X6462134Y-16599460D02*
X6443086Y-16608984D01*
X6443086Y-16608984D02*
X6424039Y-16608984D01*
X6424039Y-16608984D02*
X6404991Y-16599460D01*
X6404991Y-16599460D02*
X6395467Y-16589936D01*
X6395467Y-16589936D02*
X6385943Y-16570888D01*
X6385943Y-16570888D02*
X6376420Y-16532793D01*
X6376420Y-16532793D02*
X6376420Y-16485174D01*
X6376420Y-16485174D02*
X6385943Y-16447079D01*
X6385943Y-16447079D02*
X6395467Y-16428031D01*
X6395467Y-16428031D02*
X6404991Y-16418508D01*
X6404991Y-16418508D02*
X6424039Y-16408984D01*
X6576420Y-16608984D02*
X6576420Y-16475650D01*
X6576420Y-16494698D02*
X6585943Y-16485174D01*
X6585943Y-16485174D02*
X6604991Y-16475650D01*
X6604991Y-16475650D02*
X6633563Y-16475650D01*
X6633563Y-16475650D02*
X6652610Y-16485174D01*
X6652610Y-16485174D02*
X6662134Y-16504222D01*
X6662134Y-16504222D02*
X6662134Y-16608984D01*
X6662134Y-16504222D02*
X6671658Y-16485174D01*
X6671658Y-16485174D02*
X6690705Y-16475650D01*
X6690705Y-16475650D02*
X6719277Y-16475650D01*
X6719277Y-16475650D02*
X6738324Y-16485174D01*
X6738324Y-16485174D02*
X6747848Y-16504222D01*
X6747848Y-16504222D02*
X6747848Y-16608984D01*
X6843086Y-16608984D02*
X6843086Y-16475650D01*
X6843086Y-16494698D02*
X6852610Y-16485174D01*
X6852610Y-16485174D02*
X6871658Y-16475650D01*
X6871658Y-16475650D02*
X6900229Y-16475650D01*
X6900229Y-16475650D02*
X6919277Y-16485174D01*
X6919277Y-16485174D02*
X6928801Y-16504222D01*
X6928801Y-16504222D02*
X6928801Y-16608984D01*
X6928801Y-16504222D02*
X6938324Y-16485174D01*
X6938324Y-16485174D02*
X6957372Y-16475650D01*
X6957372Y-16475650D02*
X6985943Y-16475650D01*
X6985943Y-16475650D02*
X7004991Y-16485174D01*
X7004991Y-16485174D02*
X7014515Y-16504222D01*
X7014515Y-16504222D02*
X7014515Y-16608984D01*
X7404991Y-16399460D02*
X7233563Y-16656603D01*
X7662134Y-16408984D02*
X7681182Y-16408984D01*
X7681182Y-16408984D02*
X7700229Y-16418508D01*
X7700229Y-16418508D02*
X7709753Y-16428031D01*
X7709753Y-16428031D02*
X7719277Y-16447079D01*
X7719277Y-16447079D02*
X7728801Y-16485174D01*
X7728801Y-16485174D02*
X7728801Y-16532793D01*
X7728801Y-16532793D02*
X7719277Y-16570888D01*
X7719277Y-16570888D02*
X7709753Y-16589936D01*
X7709753Y-16589936D02*
X7700229Y-16599460D01*
X7700229Y-16599460D02*
X7681182Y-16608984D01*
X7681182Y-16608984D02*
X7662134Y-16608984D01*
X7662134Y-16608984D02*
X7643086Y-16599460D01*
X7643086Y-16599460D02*
X7633563Y-16589936D01*
X7633563Y-16589936D02*
X7624039Y-16570888D01*
X7624039Y-16570888D02*
X7614515Y-16532793D01*
X7614515Y-16532793D02*
X7614515Y-16485174D01*
X7614515Y-16485174D02*
X7624039Y-16447079D01*
X7624039Y-16447079D02*
X7633563Y-16428031D01*
X7633563Y-16428031D02*
X7643086Y-16418508D01*
X7643086Y-16418508D02*
X7662134Y-16408984D01*
X7814515Y-16589936D02*
X7824039Y-16599460D01*
X7824039Y-16599460D02*
X7814515Y-16608984D01*
X7814515Y-16608984D02*
X7804991Y-16599460D01*
X7804991Y-16599460D02*
X7814515Y-16589936D01*
X7814515Y-16589936D02*
X7814515Y-16608984D01*
X7947848Y-16408984D02*
X7966896Y-16408984D01*
X7966896Y-16408984D02*
X7985944Y-16418508D01*
X7985944Y-16418508D02*
X7995467Y-16428031D01*
X7995467Y-16428031D02*
X8004991Y-16447079D01*
X8004991Y-16447079D02*
X8014515Y-16485174D01*
X8014515Y-16485174D02*
X8014515Y-16532793D01*
X8014515Y-16532793D02*
X8004991Y-16570888D01*
X8004991Y-16570888D02*
X7995467Y-16589936D01*
X7995467Y-16589936D02*
X7985944Y-16599460D01*
X7985944Y-16599460D02*
X7966896Y-16608984D01*
X7966896Y-16608984D02*
X7947848Y-16608984D01*
X7947848Y-16608984D02*
X7928801Y-16599460D01*
X7928801Y-16599460D02*
X7919277Y-16589936D01*
X7919277Y-16589936D02*
X7909753Y-16570888D01*
X7909753Y-16570888D02*
X7900229Y-16532793D01*
X7900229Y-16532793D02*
X7900229Y-16485174D01*
X7900229Y-16485174D02*
X7909753Y-16447079D01*
X7909753Y-16447079D02*
X7919277Y-16428031D01*
X7919277Y-16428031D02*
X7928801Y-16418508D01*
X7928801Y-16418508D02*
X7947848Y-16408984D01*
X8204991Y-16608984D02*
X8090706Y-16608984D01*
X8147848Y-16608984D02*
X8147848Y-16408984D01*
X8147848Y-16408984D02*
X8128801Y-16437555D01*
X8128801Y-16437555D02*
X8109753Y-16456603D01*
X8109753Y-16456603D02*
X8090706Y-16466127D01*
X8385944Y-16408984D02*
X8290706Y-16408984D01*
X8290706Y-16408984D02*
X8281182Y-16504222D01*
X8281182Y-16504222D02*
X8290706Y-16494698D01*
X8290706Y-16494698D02*
X8309753Y-16485174D01*
X8309753Y-16485174D02*
X8357372Y-16485174D01*
X8357372Y-16485174D02*
X8376420Y-16494698D01*
X8376420Y-16494698D02*
X8385944Y-16504222D01*
X8385944Y-16504222D02*
X8395468Y-16523269D01*
X8395468Y-16523269D02*
X8395468Y-16570888D01*
X8395468Y-16570888D02*
X8385944Y-16589936D01*
X8385944Y-16589936D02*
X8376420Y-16599460D01*
X8376420Y-16599460D02*
X8357372Y-16608984D01*
X8357372Y-16608984D02*
X8309753Y-16608984D01*
X8309753Y-16608984D02*
X8290706Y-16599460D01*
X8290706Y-16599460D02*
X8281182Y-16589936D01*
X8462134Y-16408984D02*
X8595468Y-16408984D01*
X8595468Y-16408984D02*
X8509753Y-16608984D01*
X8662134Y-16408984D02*
X8662134Y-16447079D01*
X8738325Y-16408984D02*
X8738325Y-16447079D01*
X9033563Y-16685174D02*
X9024039Y-16675650D01*
X9024039Y-16675650D02*
X9004991Y-16647079D01*
X9004991Y-16647079D02*
X8995468Y-16628031D01*
X8995468Y-16628031D02*
X8985944Y-16599460D01*
X8985944Y-16599460D02*
X8976420Y-16551841D01*
X8976420Y-16551841D02*
X8976420Y-16513746D01*
X8976420Y-16513746D02*
X8985944Y-16466127D01*
X8985944Y-16466127D02*
X8995468Y-16437555D01*
X8995468Y-16437555D02*
X9004991Y-16418508D01*
X9004991Y-16418508D02*
X9024039Y-16389936D01*
X9024039Y-16389936D02*
X9033563Y-16380412D01*
X9119277Y-16608984D02*
X9157372Y-16608984D01*
X9157372Y-16608984D02*
X9176420Y-16599460D01*
X9176420Y-16599460D02*
X9185944Y-16589936D01*
X9185944Y-16589936D02*
X9204991Y-16561365D01*
X9204991Y-16561365D02*
X9214515Y-16523269D01*
X9214515Y-16523269D02*
X9214515Y-16447079D01*
X9214515Y-16447079D02*
X9204991Y-16428031D01*
X9204991Y-16428031D02*
X9195468Y-16418508D01*
X9195468Y-16418508D02*
X9176420Y-16408984D01*
X9176420Y-16408984D02*
X9138325Y-16408984D01*
X9138325Y-16408984D02*
X9119277Y-16418508D01*
X9119277Y-16418508D02*
X9109753Y-16428031D01*
X9109753Y-16428031D02*
X9100230Y-16447079D01*
X9100230Y-16447079D02*
X9100230Y-16494698D01*
X9100230Y-16494698D02*
X9109753Y-16513746D01*
X9109753Y-16513746D02*
X9119277Y-16523269D01*
X9119277Y-16523269D02*
X9138325Y-16532793D01*
X9138325Y-16532793D02*
X9176420Y-16532793D01*
X9176420Y-16532793D02*
X9195468Y-16523269D01*
X9195468Y-16523269D02*
X9204991Y-16513746D01*
X9204991Y-16513746D02*
X9214515Y-16494698D01*
X9395468Y-16408984D02*
X9300230Y-16408984D01*
X9300230Y-16408984D02*
X9290706Y-16504222D01*
X9290706Y-16504222D02*
X9300230Y-16494698D01*
X9300230Y-16494698D02*
X9319277Y-16485174D01*
X9319277Y-16485174D02*
X9366896Y-16485174D01*
X9366896Y-16485174D02*
X9385944Y-16494698D01*
X9385944Y-16494698D02*
X9395468Y-16504222D01*
X9395468Y-16504222D02*
X9404991Y-16523269D01*
X9404991Y-16523269D02*
X9404991Y-16570888D01*
X9404991Y-16570888D02*
X9395468Y-16589936D01*
X9395468Y-16589936D02*
X9385944Y-16599460D01*
X9385944Y-16599460D02*
X9366896Y-16608984D01*
X9366896Y-16608984D02*
X9319277Y-16608984D01*
X9319277Y-16608984D02*
X9300230Y-16599460D01*
X9300230Y-16599460D02*
X9290706Y-16589936D01*
X9643087Y-16608984D02*
X9643087Y-16408984D01*
X9728801Y-16608984D02*
X9728801Y-16504222D01*
X9728801Y-16504222D02*
X9719277Y-16485174D01*
X9719277Y-16485174D02*
X9700230Y-16475650D01*
X9700230Y-16475650D02*
X9671658Y-16475650D01*
X9671658Y-16475650D02*
X9652611Y-16485174D01*
X9652611Y-16485174D02*
X9643087Y-16494698D01*
X9852611Y-16608984D02*
X9833563Y-16599460D01*
X9833563Y-16599460D02*
X9824039Y-16589936D01*
X9824039Y-16589936D02*
X9814515Y-16570888D01*
X9814515Y-16570888D02*
X9814515Y-16513746D01*
X9814515Y-16513746D02*
X9824039Y-16494698D01*
X9824039Y-16494698D02*
X9833563Y-16485174D01*
X9833563Y-16485174D02*
X9852611Y-16475650D01*
X9852611Y-16475650D02*
X9881182Y-16475650D01*
X9881182Y-16475650D02*
X9900230Y-16485174D01*
X9900230Y-16485174D02*
X9909753Y-16494698D01*
X9909753Y-16494698D02*
X9919277Y-16513746D01*
X9919277Y-16513746D02*
X9919277Y-16570888D01*
X9919277Y-16570888D02*
X9909753Y-16589936D01*
X9909753Y-16589936D02*
X9900230Y-16599460D01*
X9900230Y-16599460D02*
X9881182Y-16608984D01*
X9881182Y-16608984D02*
X9852611Y-16608984D01*
X10033563Y-16608984D02*
X10014515Y-16599460D01*
X10014515Y-16599460D02*
X10004992Y-16580412D01*
X10004992Y-16580412D02*
X10004992Y-16408984D01*
X10185944Y-16599460D02*
X10166896Y-16608984D01*
X10166896Y-16608984D02*
X10128801Y-16608984D01*
X10128801Y-16608984D02*
X10109753Y-16599460D01*
X10109753Y-16599460D02*
X10100230Y-16580412D01*
X10100230Y-16580412D02*
X10100230Y-16504222D01*
X10100230Y-16504222D02*
X10109753Y-16485174D01*
X10109753Y-16485174D02*
X10128801Y-16475650D01*
X10128801Y-16475650D02*
X10166896Y-16475650D01*
X10166896Y-16475650D02*
X10185944Y-16485174D01*
X10185944Y-16485174D02*
X10195468Y-16504222D01*
X10195468Y-16504222D02*
X10195468Y-16523269D01*
X10195468Y-16523269D02*
X10100230Y-16542317D01*
X10271658Y-16599460D02*
X10290706Y-16608984D01*
X10290706Y-16608984D02*
X10328801Y-16608984D01*
X10328801Y-16608984D02*
X10347849Y-16599460D01*
X10347849Y-16599460D02*
X10357373Y-16580412D01*
X10357373Y-16580412D02*
X10357373Y-16570888D01*
X10357373Y-16570888D02*
X10347849Y-16551841D01*
X10347849Y-16551841D02*
X10328801Y-16542317D01*
X10328801Y-16542317D02*
X10300230Y-16542317D01*
X10300230Y-16542317D02*
X10281182Y-16532793D01*
X10281182Y-16532793D02*
X10271658Y-16513746D01*
X10271658Y-16513746D02*
X10271658Y-16504222D01*
X10271658Y-16504222D02*
X10281182Y-16485174D01*
X10281182Y-16485174D02*
X10300230Y-16475650D01*
X10300230Y-16475650D02*
X10328801Y-16475650D01*
X10328801Y-16475650D02*
X10347849Y-16485174D01*
X10424039Y-16685174D02*
X10433563Y-16675650D01*
X10433563Y-16675650D02*
X10452611Y-16647079D01*
X10452611Y-16647079D02*
X10462134Y-16628031D01*
X10462134Y-16628031D02*
X10471658Y-16599460D01*
X10471658Y-16599460D02*
X10481182Y-16551841D01*
X10481182Y-16551841D02*
X10481182Y-16513746D01*
X10481182Y-16513746D02*
X10471658Y-16466127D01*
X10471658Y-16466127D02*
X10462134Y-16437555D01*
X10462134Y-16437555D02*
X10452611Y-16418508D01*
X10452611Y-16418508D02*
X10433563Y-16389936D01*
X10433563Y-16389936D02*
X10424039Y-16380412D01*
D12*
X5458500Y-16781500D02*
G75*
G02*
X5383500Y-16781500I-37500J0D01*
G01*
X5383500Y-16781500D02*
G75*
G02*
X5458500Y-16781500I37500J0D01*
G01*
D11*
X5757372Y-16672984D02*
X5776420Y-16672984D01*
X5776420Y-16672984D02*
X5795467Y-16682508D01*
X5795467Y-16682508D02*
X5804991Y-16692031D01*
X5804991Y-16692031D02*
X5814515Y-16711079D01*
X5814515Y-16711079D02*
X5824039Y-16749174D01*
X5824039Y-16749174D02*
X5824039Y-16796793D01*
X5824039Y-16796793D02*
X5814515Y-16834889D01*
X5814515Y-16834889D02*
X5804991Y-16853936D01*
X5804991Y-16853936D02*
X5795467Y-16863460D01*
X5795467Y-16863460D02*
X5776420Y-16872984D01*
X5776420Y-16872984D02*
X5757372Y-16872984D01*
X5757372Y-16872984D02*
X5738324Y-16863460D01*
X5738324Y-16863460D02*
X5728801Y-16853936D01*
X5728801Y-16853936D02*
X5719277Y-16834889D01*
X5719277Y-16834889D02*
X5709753Y-16796793D01*
X5709753Y-16796793D02*
X5709753Y-16749174D01*
X5709753Y-16749174D02*
X5719277Y-16711079D01*
X5719277Y-16711079D02*
X5728801Y-16692031D01*
X5728801Y-16692031D02*
X5738324Y-16682508D01*
X5738324Y-16682508D02*
X5757372Y-16672984D01*
X5909753Y-16853936D02*
X5919277Y-16863460D01*
X5919277Y-16863460D02*
X5909753Y-16872984D01*
X5909753Y-16872984D02*
X5900229Y-16863460D01*
X5900229Y-16863460D02*
X5909753Y-16853936D01*
X5909753Y-16853936D02*
X5909753Y-16872984D01*
X5985943Y-16672984D02*
X6119277Y-16672984D01*
X6119277Y-16672984D02*
X6033562Y-16872984D01*
X6290705Y-16672984D02*
X6195467Y-16672984D01*
X6195467Y-16672984D02*
X6185943Y-16768222D01*
X6185943Y-16768222D02*
X6195467Y-16758698D01*
X6195467Y-16758698D02*
X6214515Y-16749174D01*
X6214515Y-16749174D02*
X6262134Y-16749174D01*
X6262134Y-16749174D02*
X6281182Y-16758698D01*
X6281182Y-16758698D02*
X6290705Y-16768222D01*
X6290705Y-16768222D02*
X6300229Y-16787270D01*
X6300229Y-16787270D02*
X6300229Y-16834889D01*
X6300229Y-16834889D02*
X6290705Y-16853936D01*
X6290705Y-16853936D02*
X6281182Y-16863460D01*
X6281182Y-16863460D02*
X6262134Y-16872984D01*
X6262134Y-16872984D02*
X6214515Y-16872984D01*
X6214515Y-16872984D02*
X6195467Y-16863460D01*
X6195467Y-16863460D02*
X6185943Y-16853936D01*
X6424039Y-16672984D02*
X6443086Y-16672984D01*
X6443086Y-16672984D02*
X6462134Y-16682508D01*
X6462134Y-16682508D02*
X6471658Y-16692031D01*
X6471658Y-16692031D02*
X6481182Y-16711079D01*
X6481182Y-16711079D02*
X6490705Y-16749174D01*
X6490705Y-16749174D02*
X6490705Y-16796793D01*
X6490705Y-16796793D02*
X6481182Y-16834889D01*
X6481182Y-16834889D02*
X6471658Y-16853936D01*
X6471658Y-16853936D02*
X6462134Y-16863460D01*
X6462134Y-16863460D02*
X6443086Y-16872984D01*
X6443086Y-16872984D02*
X6424039Y-16872984D01*
X6424039Y-16872984D02*
X6404991Y-16863460D01*
X6404991Y-16863460D02*
X6395467Y-16853936D01*
X6395467Y-16853936D02*
X6385943Y-16834889D01*
X6385943Y-16834889D02*
X6376420Y-16796793D01*
X6376420Y-16796793D02*
X6376420Y-16749174D01*
X6376420Y-16749174D02*
X6385943Y-16711079D01*
X6385943Y-16711079D02*
X6395467Y-16692031D01*
X6395467Y-16692031D02*
X6404991Y-16682508D01*
X6404991Y-16682508D02*
X6424039Y-16672984D01*
X6576420Y-16872984D02*
X6576420Y-16739650D01*
X6576420Y-16758698D02*
X6585943Y-16749174D01*
X6585943Y-16749174D02*
X6604991Y-16739650D01*
X6604991Y-16739650D02*
X6633563Y-16739650D01*
X6633563Y-16739650D02*
X6652610Y-16749174D01*
X6652610Y-16749174D02*
X6662134Y-16768222D01*
X6662134Y-16768222D02*
X6662134Y-16872984D01*
X6662134Y-16768222D02*
X6671658Y-16749174D01*
X6671658Y-16749174D02*
X6690705Y-16739650D01*
X6690705Y-16739650D02*
X6719277Y-16739650D01*
X6719277Y-16739650D02*
X6738324Y-16749174D01*
X6738324Y-16749174D02*
X6747848Y-16768222D01*
X6747848Y-16768222D02*
X6747848Y-16872984D01*
X6843086Y-16872984D02*
X6843086Y-16739650D01*
X6843086Y-16758698D02*
X6852610Y-16749174D01*
X6852610Y-16749174D02*
X6871658Y-16739650D01*
X6871658Y-16739650D02*
X6900229Y-16739650D01*
X6900229Y-16739650D02*
X6919277Y-16749174D01*
X6919277Y-16749174D02*
X6928801Y-16768222D01*
X6928801Y-16768222D02*
X6928801Y-16872984D01*
X6928801Y-16768222D02*
X6938324Y-16749174D01*
X6938324Y-16749174D02*
X6957372Y-16739650D01*
X6957372Y-16739650D02*
X6985943Y-16739650D01*
X6985943Y-16739650D02*
X7004991Y-16749174D01*
X7004991Y-16749174D02*
X7014515Y-16768222D01*
X7014515Y-16768222D02*
X7014515Y-16872984D01*
X7404991Y-16663460D02*
X7233563Y-16920603D01*
X7662134Y-16672984D02*
X7681182Y-16672984D01*
X7681182Y-16672984D02*
X7700229Y-16682508D01*
X7700229Y-16682508D02*
X7709753Y-16692031D01*
X7709753Y-16692031D02*
X7719277Y-16711079D01*
X7719277Y-16711079D02*
X7728801Y-16749174D01*
X7728801Y-16749174D02*
X7728801Y-16796793D01*
X7728801Y-16796793D02*
X7719277Y-16834889D01*
X7719277Y-16834889D02*
X7709753Y-16853936D01*
X7709753Y-16853936D02*
X7700229Y-16863460D01*
X7700229Y-16863460D02*
X7681182Y-16872984D01*
X7681182Y-16872984D02*
X7662134Y-16872984D01*
X7662134Y-16872984D02*
X7643086Y-16863460D01*
X7643086Y-16863460D02*
X7633563Y-16853936D01*
X7633563Y-16853936D02*
X7624039Y-16834889D01*
X7624039Y-16834889D02*
X7614515Y-16796793D01*
X7614515Y-16796793D02*
X7614515Y-16749174D01*
X7614515Y-16749174D02*
X7624039Y-16711079D01*
X7624039Y-16711079D02*
X7633563Y-16692031D01*
X7633563Y-16692031D02*
X7643086Y-16682508D01*
X7643086Y-16682508D02*
X7662134Y-16672984D01*
X7814515Y-16853936D02*
X7824039Y-16863460D01*
X7824039Y-16863460D02*
X7814515Y-16872984D01*
X7814515Y-16872984D02*
X7804991Y-16863460D01*
X7804991Y-16863460D02*
X7814515Y-16853936D01*
X7814515Y-16853936D02*
X7814515Y-16872984D01*
X7947848Y-16672984D02*
X7966896Y-16672984D01*
X7966896Y-16672984D02*
X7985944Y-16682508D01*
X7985944Y-16682508D02*
X7995467Y-16692031D01*
X7995467Y-16692031D02*
X8004991Y-16711079D01*
X8004991Y-16711079D02*
X8014515Y-16749174D01*
X8014515Y-16749174D02*
X8014515Y-16796793D01*
X8014515Y-16796793D02*
X8004991Y-16834889D01*
X8004991Y-16834889D02*
X7995467Y-16853936D01*
X7995467Y-16853936D02*
X7985944Y-16863460D01*
X7985944Y-16863460D02*
X7966896Y-16872984D01*
X7966896Y-16872984D02*
X7947848Y-16872984D01*
X7947848Y-16872984D02*
X7928801Y-16863460D01*
X7928801Y-16863460D02*
X7919277Y-16853936D01*
X7919277Y-16853936D02*
X7909753Y-16834889D01*
X7909753Y-16834889D02*
X7900229Y-16796793D01*
X7900229Y-16796793D02*
X7900229Y-16749174D01*
X7900229Y-16749174D02*
X7909753Y-16711079D01*
X7909753Y-16711079D02*
X7919277Y-16692031D01*
X7919277Y-16692031D02*
X7928801Y-16682508D01*
X7928801Y-16682508D02*
X7947848Y-16672984D01*
X8090706Y-16692031D02*
X8100229Y-16682508D01*
X8100229Y-16682508D02*
X8119277Y-16672984D01*
X8119277Y-16672984D02*
X8166896Y-16672984D01*
X8166896Y-16672984D02*
X8185944Y-16682508D01*
X8185944Y-16682508D02*
X8195467Y-16692031D01*
X8195467Y-16692031D02*
X8204991Y-16711079D01*
X8204991Y-16711079D02*
X8204991Y-16730127D01*
X8204991Y-16730127D02*
X8195467Y-16758698D01*
X8195467Y-16758698D02*
X8081182Y-16872984D01*
X8081182Y-16872984D02*
X8204991Y-16872984D01*
X8300229Y-16872984D02*
X8338325Y-16872984D01*
X8338325Y-16872984D02*
X8357372Y-16863460D01*
X8357372Y-16863460D02*
X8366896Y-16853936D01*
X8366896Y-16853936D02*
X8385944Y-16825365D01*
X8385944Y-16825365D02*
X8395468Y-16787270D01*
X8395468Y-16787270D02*
X8395468Y-16711079D01*
X8395468Y-16711079D02*
X8385944Y-16692031D01*
X8385944Y-16692031D02*
X8376420Y-16682508D01*
X8376420Y-16682508D02*
X8357372Y-16672984D01*
X8357372Y-16672984D02*
X8319277Y-16672984D01*
X8319277Y-16672984D02*
X8300229Y-16682508D01*
X8300229Y-16682508D02*
X8290706Y-16692031D01*
X8290706Y-16692031D02*
X8281182Y-16711079D01*
X8281182Y-16711079D02*
X8281182Y-16758698D01*
X8281182Y-16758698D02*
X8290706Y-16777746D01*
X8290706Y-16777746D02*
X8300229Y-16787270D01*
X8300229Y-16787270D02*
X8319277Y-16796793D01*
X8319277Y-16796793D02*
X8357372Y-16796793D01*
X8357372Y-16796793D02*
X8376420Y-16787270D01*
X8376420Y-16787270D02*
X8385944Y-16777746D01*
X8385944Y-16777746D02*
X8395468Y-16758698D01*
X8576420Y-16672984D02*
X8481182Y-16672984D01*
X8481182Y-16672984D02*
X8471658Y-16768222D01*
X8471658Y-16768222D02*
X8481182Y-16758698D01*
X8481182Y-16758698D02*
X8500229Y-16749174D01*
X8500229Y-16749174D02*
X8547849Y-16749174D01*
X8547849Y-16749174D02*
X8566896Y-16758698D01*
X8566896Y-16758698D02*
X8576420Y-16768222D01*
X8576420Y-16768222D02*
X8585944Y-16787270D01*
X8585944Y-16787270D02*
X8585944Y-16834889D01*
X8585944Y-16834889D02*
X8576420Y-16853936D01*
X8576420Y-16853936D02*
X8566896Y-16863460D01*
X8566896Y-16863460D02*
X8547849Y-16872984D01*
X8547849Y-16872984D02*
X8500229Y-16872984D01*
X8500229Y-16872984D02*
X8481182Y-16863460D01*
X8481182Y-16863460D02*
X8471658Y-16853936D01*
X8662134Y-16672984D02*
X8662134Y-16711079D01*
X8738325Y-16672984D02*
X8738325Y-16711079D01*
X9033563Y-16949174D02*
X9024039Y-16939650D01*
X9024039Y-16939650D02*
X9004991Y-16911079D01*
X9004991Y-16911079D02*
X8995468Y-16892031D01*
X8995468Y-16892031D02*
X8985944Y-16863460D01*
X8985944Y-16863460D02*
X8976420Y-16815841D01*
X8976420Y-16815841D02*
X8976420Y-16777746D01*
X8976420Y-16777746D02*
X8985944Y-16730127D01*
X8985944Y-16730127D02*
X8995468Y-16701555D01*
X8995468Y-16701555D02*
X9004991Y-16682508D01*
X9004991Y-16682508D02*
X9024039Y-16653936D01*
X9024039Y-16653936D02*
X9033563Y-16644412D01*
X9195468Y-16672984D02*
X9157372Y-16672984D01*
X9157372Y-16672984D02*
X9138325Y-16682508D01*
X9138325Y-16682508D02*
X9128801Y-16692031D01*
X9128801Y-16692031D02*
X9109753Y-16720603D01*
X9109753Y-16720603D02*
X9100230Y-16758698D01*
X9100230Y-16758698D02*
X9100230Y-16834889D01*
X9100230Y-16834889D02*
X9109753Y-16853936D01*
X9109753Y-16853936D02*
X9119277Y-16863460D01*
X9119277Y-16863460D02*
X9138325Y-16872984D01*
X9138325Y-16872984D02*
X9176420Y-16872984D01*
X9176420Y-16872984D02*
X9195468Y-16863460D01*
X9195468Y-16863460D02*
X9204991Y-16853936D01*
X9204991Y-16853936D02*
X9214515Y-16834889D01*
X9214515Y-16834889D02*
X9214515Y-16787270D01*
X9214515Y-16787270D02*
X9204991Y-16768222D01*
X9204991Y-16768222D02*
X9195468Y-16758698D01*
X9195468Y-16758698D02*
X9176420Y-16749174D01*
X9176420Y-16749174D02*
X9138325Y-16749174D01*
X9138325Y-16749174D02*
X9119277Y-16758698D01*
X9119277Y-16758698D02*
X9109753Y-16768222D01*
X9109753Y-16768222D02*
X9100230Y-16787270D01*
X9452611Y-16872984D02*
X9452611Y-16672984D01*
X9538325Y-16872984D02*
X9538325Y-16768222D01*
X9538325Y-16768222D02*
X9528801Y-16749174D01*
X9528801Y-16749174D02*
X9509753Y-16739650D01*
X9509753Y-16739650D02*
X9481182Y-16739650D01*
X9481182Y-16739650D02*
X9462134Y-16749174D01*
X9462134Y-16749174D02*
X9452611Y-16758698D01*
X9662134Y-16872984D02*
X9643087Y-16863460D01*
X9643087Y-16863460D02*
X9633563Y-16853936D01*
X9633563Y-16853936D02*
X9624039Y-16834889D01*
X9624039Y-16834889D02*
X9624039Y-16777746D01*
X9624039Y-16777746D02*
X9633563Y-16758698D01*
X9633563Y-16758698D02*
X9643087Y-16749174D01*
X9643087Y-16749174D02*
X9662134Y-16739650D01*
X9662134Y-16739650D02*
X9690706Y-16739650D01*
X9690706Y-16739650D02*
X9709753Y-16749174D01*
X9709753Y-16749174D02*
X9719277Y-16758698D01*
X9719277Y-16758698D02*
X9728801Y-16777746D01*
X9728801Y-16777746D02*
X9728801Y-16834889D01*
X9728801Y-16834889D02*
X9719277Y-16853936D01*
X9719277Y-16853936D02*
X9709753Y-16863460D01*
X9709753Y-16863460D02*
X9690706Y-16872984D01*
X9690706Y-16872984D02*
X9662134Y-16872984D01*
X9843087Y-16872984D02*
X9824039Y-16863460D01*
X9824039Y-16863460D02*
X9814515Y-16844412D01*
X9814515Y-16844412D02*
X9814515Y-16672984D01*
X9995468Y-16863460D02*
X9976420Y-16872984D01*
X9976420Y-16872984D02*
X9938325Y-16872984D01*
X9938325Y-16872984D02*
X9919277Y-16863460D01*
X9919277Y-16863460D02*
X9909753Y-16844412D01*
X9909753Y-16844412D02*
X9909753Y-16768222D01*
X9909753Y-16768222D02*
X9919277Y-16749174D01*
X9919277Y-16749174D02*
X9938325Y-16739650D01*
X9938325Y-16739650D02*
X9976420Y-16739650D01*
X9976420Y-16739650D02*
X9995468Y-16749174D01*
X9995468Y-16749174D02*
X10004992Y-16768222D01*
X10004992Y-16768222D02*
X10004992Y-16787270D01*
X10004992Y-16787270D02*
X9909753Y-16806317D01*
X10081182Y-16863460D02*
X10100230Y-16872984D01*
X10100230Y-16872984D02*
X10138325Y-16872984D01*
X10138325Y-16872984D02*
X10157373Y-16863460D01*
X10157373Y-16863460D02*
X10166896Y-16844412D01*
X10166896Y-16844412D02*
X10166896Y-16834889D01*
X10166896Y-16834889D02*
X10157373Y-16815841D01*
X10157373Y-16815841D02*
X10138325Y-16806317D01*
X10138325Y-16806317D02*
X10109753Y-16806317D01*
X10109753Y-16806317D02*
X10090706Y-16796793D01*
X10090706Y-16796793D02*
X10081182Y-16777746D01*
X10081182Y-16777746D02*
X10081182Y-16768222D01*
X10081182Y-16768222D02*
X10090706Y-16749174D01*
X10090706Y-16749174D02*
X10109753Y-16739650D01*
X10109753Y-16739650D02*
X10138325Y-16739650D01*
X10138325Y-16739650D02*
X10157373Y-16749174D01*
X10233563Y-16949174D02*
X10243087Y-16939650D01*
X10243087Y-16939650D02*
X10262134Y-16911079D01*
X10262134Y-16911079D02*
X10271658Y-16892031D01*
X10271658Y-16892031D02*
X10281182Y-16863460D01*
X10281182Y-16863460D02*
X10290706Y-16815841D01*
X10290706Y-16815841D02*
X10290706Y-16777746D01*
X10290706Y-16777746D02*
X10281182Y-16730127D01*
X10281182Y-16730127D02*
X10271658Y-16701555D01*
X10271658Y-16701555D02*
X10262134Y-16682508D01*
X10262134Y-16682508D02*
X10243087Y-16653936D01*
X10243087Y-16653936D02*
X10233563Y-16644412D01*
D12*
X5418500Y-17005500D02*
X5418500Y-17085500D01*
X5378500Y-17045500D02*
X5458500Y-17045500D01*
D11*
X5757372Y-16936984D02*
X5776420Y-16936984D01*
X5776420Y-16936984D02*
X5795467Y-16946508D01*
X5795467Y-16946508D02*
X5804991Y-16956031D01*
X5804991Y-16956031D02*
X5814515Y-16975079D01*
X5814515Y-16975079D02*
X5824039Y-17013174D01*
X5824039Y-17013174D02*
X5824039Y-17060793D01*
X5824039Y-17060793D02*
X5814515Y-17098889D01*
X5814515Y-17098889D02*
X5804991Y-17117936D01*
X5804991Y-17117936D02*
X5795467Y-17127460D01*
X5795467Y-17127460D02*
X5776420Y-17136984D01*
X5776420Y-17136984D02*
X5757372Y-17136984D01*
X5757372Y-17136984D02*
X5738324Y-17127460D01*
X5738324Y-17127460D02*
X5728801Y-17117936D01*
X5728801Y-17117936D02*
X5719277Y-17098889D01*
X5719277Y-17098889D02*
X5709753Y-17060793D01*
X5709753Y-17060793D02*
X5709753Y-17013174D01*
X5709753Y-17013174D02*
X5719277Y-16975079D01*
X5719277Y-16975079D02*
X5728801Y-16956031D01*
X5728801Y-16956031D02*
X5738324Y-16946508D01*
X5738324Y-16946508D02*
X5757372Y-16936984D01*
X5909753Y-17117936D02*
X5919277Y-17127460D01*
X5919277Y-17127460D02*
X5909753Y-17136984D01*
X5909753Y-17136984D02*
X5900229Y-17127460D01*
X5900229Y-17127460D02*
X5909753Y-17117936D01*
X5909753Y-17117936D02*
X5909753Y-17136984D01*
X6033562Y-17022698D02*
X6014515Y-17013174D01*
X6014515Y-17013174D02*
X6004991Y-17003650D01*
X6004991Y-17003650D02*
X5995467Y-16984603D01*
X5995467Y-16984603D02*
X5995467Y-16975079D01*
X5995467Y-16975079D02*
X6004991Y-16956031D01*
X6004991Y-16956031D02*
X6014515Y-16946508D01*
X6014515Y-16946508D02*
X6033562Y-16936984D01*
X6033562Y-16936984D02*
X6071658Y-16936984D01*
X6071658Y-16936984D02*
X6090705Y-16946508D01*
X6090705Y-16946508D02*
X6100229Y-16956031D01*
X6100229Y-16956031D02*
X6109753Y-16975079D01*
X6109753Y-16975079D02*
X6109753Y-16984603D01*
X6109753Y-16984603D02*
X6100229Y-17003650D01*
X6100229Y-17003650D02*
X6090705Y-17013174D01*
X6090705Y-17013174D02*
X6071658Y-17022698D01*
X6071658Y-17022698D02*
X6033562Y-17022698D01*
X6033562Y-17022698D02*
X6014515Y-17032222D01*
X6014515Y-17032222D02*
X6004991Y-17041746D01*
X6004991Y-17041746D02*
X5995467Y-17060793D01*
X5995467Y-17060793D02*
X5995467Y-17098889D01*
X5995467Y-17098889D02*
X6004991Y-17117936D01*
X6004991Y-17117936D02*
X6014515Y-17127460D01*
X6014515Y-17127460D02*
X6033562Y-17136984D01*
X6033562Y-17136984D02*
X6071658Y-17136984D01*
X6071658Y-17136984D02*
X6090705Y-17127460D01*
X6090705Y-17127460D02*
X6100229Y-17117936D01*
X6100229Y-17117936D02*
X6109753Y-17098889D01*
X6109753Y-17098889D02*
X6109753Y-17060793D01*
X6109753Y-17060793D02*
X6100229Y-17041746D01*
X6100229Y-17041746D02*
X6090705Y-17032222D01*
X6090705Y-17032222D02*
X6071658Y-17022698D01*
X6233562Y-16936984D02*
X6252610Y-16936984D01*
X6252610Y-16936984D02*
X6271658Y-16946508D01*
X6271658Y-16946508D02*
X6281182Y-16956031D01*
X6281182Y-16956031D02*
X6290705Y-16975079D01*
X6290705Y-16975079D02*
X6300229Y-17013174D01*
X6300229Y-17013174D02*
X6300229Y-17060793D01*
X6300229Y-17060793D02*
X6290705Y-17098889D01*
X6290705Y-17098889D02*
X6281182Y-17117936D01*
X6281182Y-17117936D02*
X6271658Y-17127460D01*
X6271658Y-17127460D02*
X6252610Y-17136984D01*
X6252610Y-17136984D02*
X6233562Y-17136984D01*
X6233562Y-17136984D02*
X6214515Y-17127460D01*
X6214515Y-17127460D02*
X6204991Y-17117936D01*
X6204991Y-17117936D02*
X6195467Y-17098889D01*
X6195467Y-17098889D02*
X6185943Y-17060793D01*
X6185943Y-17060793D02*
X6185943Y-17013174D01*
X6185943Y-17013174D02*
X6195467Y-16975079D01*
X6195467Y-16975079D02*
X6204991Y-16956031D01*
X6204991Y-16956031D02*
X6214515Y-16946508D01*
X6214515Y-16946508D02*
X6233562Y-16936984D01*
X6424039Y-16936984D02*
X6443086Y-16936984D01*
X6443086Y-16936984D02*
X6462134Y-16946508D01*
X6462134Y-16946508D02*
X6471658Y-16956031D01*
X6471658Y-16956031D02*
X6481182Y-16975079D01*
X6481182Y-16975079D02*
X6490705Y-17013174D01*
X6490705Y-17013174D02*
X6490705Y-17060793D01*
X6490705Y-17060793D02*
X6481182Y-17098889D01*
X6481182Y-17098889D02*
X6471658Y-17117936D01*
X6471658Y-17117936D02*
X6462134Y-17127460D01*
X6462134Y-17127460D02*
X6443086Y-17136984D01*
X6443086Y-17136984D02*
X6424039Y-17136984D01*
X6424039Y-17136984D02*
X6404991Y-17127460D01*
X6404991Y-17127460D02*
X6395467Y-17117936D01*
X6395467Y-17117936D02*
X6385943Y-17098889D01*
X6385943Y-17098889D02*
X6376420Y-17060793D01*
X6376420Y-17060793D02*
X6376420Y-17013174D01*
X6376420Y-17013174D02*
X6385943Y-16975079D01*
X6385943Y-16975079D02*
X6395467Y-16956031D01*
X6395467Y-16956031D02*
X6404991Y-16946508D01*
X6404991Y-16946508D02*
X6424039Y-16936984D01*
X6576420Y-17136984D02*
X6576420Y-17003650D01*
X6576420Y-17022698D02*
X6585943Y-17013174D01*
X6585943Y-17013174D02*
X6604991Y-17003650D01*
X6604991Y-17003650D02*
X6633563Y-17003650D01*
X6633563Y-17003650D02*
X6652610Y-17013174D01*
X6652610Y-17013174D02*
X6662134Y-17032222D01*
X6662134Y-17032222D02*
X6662134Y-17136984D01*
X6662134Y-17032222D02*
X6671658Y-17013174D01*
X6671658Y-17013174D02*
X6690705Y-17003650D01*
X6690705Y-17003650D02*
X6719277Y-17003650D01*
X6719277Y-17003650D02*
X6738324Y-17013174D01*
X6738324Y-17013174D02*
X6747848Y-17032222D01*
X6747848Y-17032222D02*
X6747848Y-17136984D01*
X6843086Y-17136984D02*
X6843086Y-17003650D01*
X6843086Y-17022698D02*
X6852610Y-17013174D01*
X6852610Y-17013174D02*
X6871658Y-17003650D01*
X6871658Y-17003650D02*
X6900229Y-17003650D01*
X6900229Y-17003650D02*
X6919277Y-17013174D01*
X6919277Y-17013174D02*
X6928801Y-17032222D01*
X6928801Y-17032222D02*
X6928801Y-17136984D01*
X6928801Y-17032222D02*
X6938324Y-17013174D01*
X6938324Y-17013174D02*
X6957372Y-17003650D01*
X6957372Y-17003650D02*
X6985943Y-17003650D01*
X6985943Y-17003650D02*
X7004991Y-17013174D01*
X7004991Y-17013174D02*
X7014515Y-17032222D01*
X7014515Y-17032222D02*
X7014515Y-17136984D01*
X7404991Y-16927460D02*
X7233563Y-17184603D01*
X7662134Y-16936984D02*
X7681182Y-16936984D01*
X7681182Y-16936984D02*
X7700229Y-16946508D01*
X7700229Y-16946508D02*
X7709753Y-16956031D01*
X7709753Y-16956031D02*
X7719277Y-16975079D01*
X7719277Y-16975079D02*
X7728801Y-17013174D01*
X7728801Y-17013174D02*
X7728801Y-17060793D01*
X7728801Y-17060793D02*
X7719277Y-17098889D01*
X7719277Y-17098889D02*
X7709753Y-17117936D01*
X7709753Y-17117936D02*
X7700229Y-17127460D01*
X7700229Y-17127460D02*
X7681182Y-17136984D01*
X7681182Y-17136984D02*
X7662134Y-17136984D01*
X7662134Y-17136984D02*
X7643086Y-17127460D01*
X7643086Y-17127460D02*
X7633563Y-17117936D01*
X7633563Y-17117936D02*
X7624039Y-17098889D01*
X7624039Y-17098889D02*
X7614515Y-17060793D01*
X7614515Y-17060793D02*
X7614515Y-17013174D01*
X7614515Y-17013174D02*
X7624039Y-16975079D01*
X7624039Y-16975079D02*
X7633563Y-16956031D01*
X7633563Y-16956031D02*
X7643086Y-16946508D01*
X7643086Y-16946508D02*
X7662134Y-16936984D01*
X7814515Y-17117936D02*
X7824039Y-17127460D01*
X7824039Y-17127460D02*
X7814515Y-17136984D01*
X7814515Y-17136984D02*
X7804991Y-17127460D01*
X7804991Y-17127460D02*
X7814515Y-17117936D01*
X7814515Y-17117936D02*
X7814515Y-17136984D01*
X7947848Y-16936984D02*
X7966896Y-16936984D01*
X7966896Y-16936984D02*
X7985944Y-16946508D01*
X7985944Y-16946508D02*
X7995467Y-16956031D01*
X7995467Y-16956031D02*
X8004991Y-16975079D01*
X8004991Y-16975079D02*
X8014515Y-17013174D01*
X8014515Y-17013174D02*
X8014515Y-17060793D01*
X8014515Y-17060793D02*
X8004991Y-17098889D01*
X8004991Y-17098889D02*
X7995467Y-17117936D01*
X7995467Y-17117936D02*
X7985944Y-17127460D01*
X7985944Y-17127460D02*
X7966896Y-17136984D01*
X7966896Y-17136984D02*
X7947848Y-17136984D01*
X7947848Y-17136984D02*
X7928801Y-17127460D01*
X7928801Y-17127460D02*
X7919277Y-17117936D01*
X7919277Y-17117936D02*
X7909753Y-17098889D01*
X7909753Y-17098889D02*
X7900229Y-17060793D01*
X7900229Y-17060793D02*
X7900229Y-17013174D01*
X7900229Y-17013174D02*
X7909753Y-16975079D01*
X7909753Y-16975079D02*
X7919277Y-16956031D01*
X7919277Y-16956031D02*
X7928801Y-16946508D01*
X7928801Y-16946508D02*
X7947848Y-16936984D01*
X8081182Y-16936984D02*
X8204991Y-16936984D01*
X8204991Y-16936984D02*
X8138325Y-17013174D01*
X8138325Y-17013174D02*
X8166896Y-17013174D01*
X8166896Y-17013174D02*
X8185944Y-17022698D01*
X8185944Y-17022698D02*
X8195467Y-17032222D01*
X8195467Y-17032222D02*
X8204991Y-17051270D01*
X8204991Y-17051270D02*
X8204991Y-17098889D01*
X8204991Y-17098889D02*
X8195467Y-17117936D01*
X8195467Y-17117936D02*
X8185944Y-17127460D01*
X8185944Y-17127460D02*
X8166896Y-17136984D01*
X8166896Y-17136984D02*
X8109753Y-17136984D01*
X8109753Y-17136984D02*
X8090706Y-17127460D01*
X8090706Y-17127460D02*
X8081182Y-17117936D01*
X8395468Y-17136984D02*
X8281182Y-17136984D01*
X8338325Y-17136984D02*
X8338325Y-16936984D01*
X8338325Y-16936984D02*
X8319277Y-16965555D01*
X8319277Y-16965555D02*
X8300229Y-16984603D01*
X8300229Y-16984603D02*
X8281182Y-16994127D01*
X8576420Y-16936984D02*
X8481182Y-16936984D01*
X8481182Y-16936984D02*
X8471658Y-17032222D01*
X8471658Y-17032222D02*
X8481182Y-17022698D01*
X8481182Y-17022698D02*
X8500229Y-17013174D01*
X8500229Y-17013174D02*
X8547849Y-17013174D01*
X8547849Y-17013174D02*
X8566896Y-17022698D01*
X8566896Y-17022698D02*
X8576420Y-17032222D01*
X8576420Y-17032222D02*
X8585944Y-17051270D01*
X8585944Y-17051270D02*
X8585944Y-17098889D01*
X8585944Y-17098889D02*
X8576420Y-17117936D01*
X8576420Y-17117936D02*
X8566896Y-17127460D01*
X8566896Y-17127460D02*
X8547849Y-17136984D01*
X8547849Y-17136984D02*
X8500229Y-17136984D01*
X8500229Y-17136984D02*
X8481182Y-17127460D01*
X8481182Y-17127460D02*
X8471658Y-17117936D01*
X8662134Y-16936984D02*
X8662134Y-16975079D01*
X8738325Y-16936984D02*
X8738325Y-16975079D01*
X9033563Y-17213174D02*
X9024039Y-17203650D01*
X9024039Y-17203650D02*
X9004991Y-17175079D01*
X9004991Y-17175079D02*
X8995468Y-17156031D01*
X8995468Y-17156031D02*
X8985944Y-17127460D01*
X8985944Y-17127460D02*
X8976420Y-17079841D01*
X8976420Y-17079841D02*
X8976420Y-17041746D01*
X8976420Y-17041746D02*
X8985944Y-16994127D01*
X8985944Y-16994127D02*
X8995468Y-16965555D01*
X8995468Y-16965555D02*
X9004991Y-16946508D01*
X9004991Y-16946508D02*
X9024039Y-16917936D01*
X9024039Y-16917936D02*
X9033563Y-16908412D01*
X9195468Y-17003650D02*
X9195468Y-17136984D01*
X9147849Y-16927460D02*
X9100230Y-17070317D01*
X9100230Y-17070317D02*
X9224039Y-17070317D01*
X9452611Y-17136984D02*
X9452611Y-16936984D01*
X9538325Y-17136984D02*
X9538325Y-17032222D01*
X9538325Y-17032222D02*
X9528801Y-17013174D01*
X9528801Y-17013174D02*
X9509753Y-17003650D01*
X9509753Y-17003650D02*
X9481182Y-17003650D01*
X9481182Y-17003650D02*
X9462134Y-17013174D01*
X9462134Y-17013174D02*
X9452611Y-17022698D01*
X9662134Y-17136984D02*
X9643087Y-17127460D01*
X9643087Y-17127460D02*
X9633563Y-17117936D01*
X9633563Y-17117936D02*
X9624039Y-17098889D01*
X9624039Y-17098889D02*
X9624039Y-17041746D01*
X9624039Y-17041746D02*
X9633563Y-17022698D01*
X9633563Y-17022698D02*
X9643087Y-17013174D01*
X9643087Y-17013174D02*
X9662134Y-17003650D01*
X9662134Y-17003650D02*
X9690706Y-17003650D01*
X9690706Y-17003650D02*
X9709753Y-17013174D01*
X9709753Y-17013174D02*
X9719277Y-17022698D01*
X9719277Y-17022698D02*
X9728801Y-17041746D01*
X9728801Y-17041746D02*
X9728801Y-17098889D01*
X9728801Y-17098889D02*
X9719277Y-17117936D01*
X9719277Y-17117936D02*
X9709753Y-17127460D01*
X9709753Y-17127460D02*
X9690706Y-17136984D01*
X9690706Y-17136984D02*
X9662134Y-17136984D01*
X9843087Y-17136984D02*
X9824039Y-17127460D01*
X9824039Y-17127460D02*
X9814515Y-17108412D01*
X9814515Y-17108412D02*
X9814515Y-16936984D01*
X9995468Y-17127460D02*
X9976420Y-17136984D01*
X9976420Y-17136984D02*
X9938325Y-17136984D01*
X9938325Y-17136984D02*
X9919277Y-17127460D01*
X9919277Y-17127460D02*
X9909753Y-17108412D01*
X9909753Y-17108412D02*
X9909753Y-17032222D01*
X9909753Y-17032222D02*
X9919277Y-17013174D01*
X9919277Y-17013174D02*
X9938325Y-17003650D01*
X9938325Y-17003650D02*
X9976420Y-17003650D01*
X9976420Y-17003650D02*
X9995468Y-17013174D01*
X9995468Y-17013174D02*
X10004992Y-17032222D01*
X10004992Y-17032222D02*
X10004992Y-17051270D01*
X10004992Y-17051270D02*
X9909753Y-17070317D01*
X10081182Y-17127460D02*
X10100230Y-17136984D01*
X10100230Y-17136984D02*
X10138325Y-17136984D01*
X10138325Y-17136984D02*
X10157373Y-17127460D01*
X10157373Y-17127460D02*
X10166896Y-17108412D01*
X10166896Y-17108412D02*
X10166896Y-17098889D01*
X10166896Y-17098889D02*
X10157373Y-17079841D01*
X10157373Y-17079841D02*
X10138325Y-17070317D01*
X10138325Y-17070317D02*
X10109753Y-17070317D01*
X10109753Y-17070317D02*
X10090706Y-17060793D01*
X10090706Y-17060793D02*
X10081182Y-17041746D01*
X10081182Y-17041746D02*
X10081182Y-17032222D01*
X10081182Y-17032222D02*
X10090706Y-17013174D01*
X10090706Y-17013174D02*
X10109753Y-17003650D01*
X10109753Y-17003650D02*
X10138325Y-17003650D01*
X10138325Y-17003650D02*
X10157373Y-17013174D01*
X10233563Y-17213174D02*
X10243087Y-17203650D01*
X10243087Y-17203650D02*
X10262134Y-17175079D01*
X10262134Y-17175079D02*
X10271658Y-17156031D01*
X10271658Y-17156031D02*
X10281182Y-17127460D01*
X10281182Y-17127460D02*
X10290706Y-17079841D01*
X10290706Y-17079841D02*
X10290706Y-17041746D01*
X10290706Y-17041746D02*
X10281182Y-16994127D01*
X10281182Y-16994127D02*
X10271658Y-16965555D01*
X10271658Y-16965555D02*
X10262134Y-16946508D01*
X10262134Y-16946508D02*
X10243087Y-16917936D01*
X10243087Y-16917936D02*
X10233563Y-16908412D01*
D12*
X5445320Y-17341320D02*
X5445320Y-17277680D01*
X5381680Y-17277680D01*
X5381680Y-17341320D01*
X5445320Y-17341320D01*
D11*
X5757372Y-17200984D02*
X5776420Y-17200984D01*
X5776420Y-17200984D02*
X5795467Y-17210508D01*
X5795467Y-17210508D02*
X5804991Y-17220031D01*
X5804991Y-17220031D02*
X5814515Y-17239079D01*
X5814515Y-17239079D02*
X5824039Y-17277174D01*
X5824039Y-17277174D02*
X5824039Y-17324793D01*
X5824039Y-17324793D02*
X5814515Y-17362889D01*
X5814515Y-17362889D02*
X5804991Y-17381936D01*
X5804991Y-17381936D02*
X5795467Y-17391460D01*
X5795467Y-17391460D02*
X5776420Y-17400984D01*
X5776420Y-17400984D02*
X5757372Y-17400984D01*
X5757372Y-17400984D02*
X5738324Y-17391460D01*
X5738324Y-17391460D02*
X5728801Y-17381936D01*
X5728801Y-17381936D02*
X5719277Y-17362889D01*
X5719277Y-17362889D02*
X5709753Y-17324793D01*
X5709753Y-17324793D02*
X5709753Y-17277174D01*
X5709753Y-17277174D02*
X5719277Y-17239079D01*
X5719277Y-17239079D02*
X5728801Y-17220031D01*
X5728801Y-17220031D02*
X5738324Y-17210508D01*
X5738324Y-17210508D02*
X5757372Y-17200984D01*
X5909753Y-17381936D02*
X5919277Y-17391460D01*
X5919277Y-17391460D02*
X5909753Y-17400984D01*
X5909753Y-17400984D02*
X5900229Y-17391460D01*
X5900229Y-17391460D02*
X5909753Y-17381936D01*
X5909753Y-17381936D02*
X5909753Y-17400984D01*
X6014515Y-17400984D02*
X6052610Y-17400984D01*
X6052610Y-17400984D02*
X6071658Y-17391460D01*
X6071658Y-17391460D02*
X6081182Y-17381936D01*
X6081182Y-17381936D02*
X6100229Y-17353365D01*
X6100229Y-17353365D02*
X6109753Y-17315270D01*
X6109753Y-17315270D02*
X6109753Y-17239079D01*
X6109753Y-17239079D02*
X6100229Y-17220031D01*
X6100229Y-17220031D02*
X6090705Y-17210508D01*
X6090705Y-17210508D02*
X6071658Y-17200984D01*
X6071658Y-17200984D02*
X6033562Y-17200984D01*
X6033562Y-17200984D02*
X6014515Y-17210508D01*
X6014515Y-17210508D02*
X6004991Y-17220031D01*
X6004991Y-17220031D02*
X5995467Y-17239079D01*
X5995467Y-17239079D02*
X5995467Y-17286698D01*
X5995467Y-17286698D02*
X6004991Y-17305746D01*
X6004991Y-17305746D02*
X6014515Y-17315270D01*
X6014515Y-17315270D02*
X6033562Y-17324793D01*
X6033562Y-17324793D02*
X6071658Y-17324793D01*
X6071658Y-17324793D02*
X6090705Y-17315270D01*
X6090705Y-17315270D02*
X6100229Y-17305746D01*
X6100229Y-17305746D02*
X6109753Y-17286698D01*
X6233562Y-17200984D02*
X6252610Y-17200984D01*
X6252610Y-17200984D02*
X6271658Y-17210508D01*
X6271658Y-17210508D02*
X6281182Y-17220031D01*
X6281182Y-17220031D02*
X6290705Y-17239079D01*
X6290705Y-17239079D02*
X6300229Y-17277174D01*
X6300229Y-17277174D02*
X6300229Y-17324793D01*
X6300229Y-17324793D02*
X6290705Y-17362889D01*
X6290705Y-17362889D02*
X6281182Y-17381936D01*
X6281182Y-17381936D02*
X6271658Y-17391460D01*
X6271658Y-17391460D02*
X6252610Y-17400984D01*
X6252610Y-17400984D02*
X6233562Y-17400984D01*
X6233562Y-17400984D02*
X6214515Y-17391460D01*
X6214515Y-17391460D02*
X6204991Y-17381936D01*
X6204991Y-17381936D02*
X6195467Y-17362889D01*
X6195467Y-17362889D02*
X6185943Y-17324793D01*
X6185943Y-17324793D02*
X6185943Y-17277174D01*
X6185943Y-17277174D02*
X6195467Y-17239079D01*
X6195467Y-17239079D02*
X6204991Y-17220031D01*
X6204991Y-17220031D02*
X6214515Y-17210508D01*
X6214515Y-17210508D02*
X6233562Y-17200984D01*
X6424039Y-17200984D02*
X6443086Y-17200984D01*
X6443086Y-17200984D02*
X6462134Y-17210508D01*
X6462134Y-17210508D02*
X6471658Y-17220031D01*
X6471658Y-17220031D02*
X6481182Y-17239079D01*
X6481182Y-17239079D02*
X6490705Y-17277174D01*
X6490705Y-17277174D02*
X6490705Y-17324793D01*
X6490705Y-17324793D02*
X6481182Y-17362889D01*
X6481182Y-17362889D02*
X6471658Y-17381936D01*
X6471658Y-17381936D02*
X6462134Y-17391460D01*
X6462134Y-17391460D02*
X6443086Y-17400984D01*
X6443086Y-17400984D02*
X6424039Y-17400984D01*
X6424039Y-17400984D02*
X6404991Y-17391460D01*
X6404991Y-17391460D02*
X6395467Y-17381936D01*
X6395467Y-17381936D02*
X6385943Y-17362889D01*
X6385943Y-17362889D02*
X6376420Y-17324793D01*
X6376420Y-17324793D02*
X6376420Y-17277174D01*
X6376420Y-17277174D02*
X6385943Y-17239079D01*
X6385943Y-17239079D02*
X6395467Y-17220031D01*
X6395467Y-17220031D02*
X6404991Y-17210508D01*
X6404991Y-17210508D02*
X6424039Y-17200984D01*
X6576420Y-17400984D02*
X6576420Y-17267650D01*
X6576420Y-17286698D02*
X6585943Y-17277174D01*
X6585943Y-17277174D02*
X6604991Y-17267650D01*
X6604991Y-17267650D02*
X6633563Y-17267650D01*
X6633563Y-17267650D02*
X6652610Y-17277174D01*
X6652610Y-17277174D02*
X6662134Y-17296222D01*
X6662134Y-17296222D02*
X6662134Y-17400984D01*
X6662134Y-17296222D02*
X6671658Y-17277174D01*
X6671658Y-17277174D02*
X6690705Y-17267650D01*
X6690705Y-17267650D02*
X6719277Y-17267650D01*
X6719277Y-17267650D02*
X6738324Y-17277174D01*
X6738324Y-17277174D02*
X6747848Y-17296222D01*
X6747848Y-17296222D02*
X6747848Y-17400984D01*
X6843086Y-17400984D02*
X6843086Y-17267650D01*
X6843086Y-17286698D02*
X6852610Y-17277174D01*
X6852610Y-17277174D02*
X6871658Y-17267650D01*
X6871658Y-17267650D02*
X6900229Y-17267650D01*
X6900229Y-17267650D02*
X6919277Y-17277174D01*
X6919277Y-17277174D02*
X6928801Y-17296222D01*
X6928801Y-17296222D02*
X6928801Y-17400984D01*
X6928801Y-17296222D02*
X6938324Y-17277174D01*
X6938324Y-17277174D02*
X6957372Y-17267650D01*
X6957372Y-17267650D02*
X6985943Y-17267650D01*
X6985943Y-17267650D02*
X7004991Y-17277174D01*
X7004991Y-17277174D02*
X7014515Y-17296222D01*
X7014515Y-17296222D02*
X7014515Y-17400984D01*
X7404991Y-17191460D02*
X7233563Y-17448603D01*
X7662134Y-17200984D02*
X7681182Y-17200984D01*
X7681182Y-17200984D02*
X7700229Y-17210508D01*
X7700229Y-17210508D02*
X7709753Y-17220031D01*
X7709753Y-17220031D02*
X7719277Y-17239079D01*
X7719277Y-17239079D02*
X7728801Y-17277174D01*
X7728801Y-17277174D02*
X7728801Y-17324793D01*
X7728801Y-17324793D02*
X7719277Y-17362889D01*
X7719277Y-17362889D02*
X7709753Y-17381936D01*
X7709753Y-17381936D02*
X7700229Y-17391460D01*
X7700229Y-17391460D02*
X7681182Y-17400984D01*
X7681182Y-17400984D02*
X7662134Y-17400984D01*
X7662134Y-17400984D02*
X7643086Y-17391460D01*
X7643086Y-17391460D02*
X7633563Y-17381936D01*
X7633563Y-17381936D02*
X7624039Y-17362889D01*
X7624039Y-17362889D02*
X7614515Y-17324793D01*
X7614515Y-17324793D02*
X7614515Y-17277174D01*
X7614515Y-17277174D02*
X7624039Y-17239079D01*
X7624039Y-17239079D02*
X7633563Y-17220031D01*
X7633563Y-17220031D02*
X7643086Y-17210508D01*
X7643086Y-17210508D02*
X7662134Y-17200984D01*
X7814515Y-17381936D02*
X7824039Y-17391460D01*
X7824039Y-17391460D02*
X7814515Y-17400984D01*
X7814515Y-17400984D02*
X7804991Y-17391460D01*
X7804991Y-17391460D02*
X7814515Y-17381936D01*
X7814515Y-17381936D02*
X7814515Y-17400984D01*
X7947848Y-17200984D02*
X7966896Y-17200984D01*
X7966896Y-17200984D02*
X7985944Y-17210508D01*
X7985944Y-17210508D02*
X7995467Y-17220031D01*
X7995467Y-17220031D02*
X8004991Y-17239079D01*
X8004991Y-17239079D02*
X8014515Y-17277174D01*
X8014515Y-17277174D02*
X8014515Y-17324793D01*
X8014515Y-17324793D02*
X8004991Y-17362889D01*
X8004991Y-17362889D02*
X7995467Y-17381936D01*
X7995467Y-17381936D02*
X7985944Y-17391460D01*
X7985944Y-17391460D02*
X7966896Y-17400984D01*
X7966896Y-17400984D02*
X7947848Y-17400984D01*
X7947848Y-17400984D02*
X7928801Y-17391460D01*
X7928801Y-17391460D02*
X7919277Y-17381936D01*
X7919277Y-17381936D02*
X7909753Y-17362889D01*
X7909753Y-17362889D02*
X7900229Y-17324793D01*
X7900229Y-17324793D02*
X7900229Y-17277174D01*
X7900229Y-17277174D02*
X7909753Y-17239079D01*
X7909753Y-17239079D02*
X7919277Y-17220031D01*
X7919277Y-17220031D02*
X7928801Y-17210508D01*
X7928801Y-17210508D02*
X7947848Y-17200984D01*
X8081182Y-17200984D02*
X8204991Y-17200984D01*
X8204991Y-17200984D02*
X8138325Y-17277174D01*
X8138325Y-17277174D02*
X8166896Y-17277174D01*
X8166896Y-17277174D02*
X8185944Y-17286698D01*
X8185944Y-17286698D02*
X8195467Y-17296222D01*
X8195467Y-17296222D02*
X8204991Y-17315270D01*
X8204991Y-17315270D02*
X8204991Y-17362889D01*
X8204991Y-17362889D02*
X8195467Y-17381936D01*
X8195467Y-17381936D02*
X8185944Y-17391460D01*
X8185944Y-17391460D02*
X8166896Y-17400984D01*
X8166896Y-17400984D02*
X8109753Y-17400984D01*
X8109753Y-17400984D02*
X8090706Y-17391460D01*
X8090706Y-17391460D02*
X8081182Y-17381936D01*
X8385944Y-17200984D02*
X8290706Y-17200984D01*
X8290706Y-17200984D02*
X8281182Y-17296222D01*
X8281182Y-17296222D02*
X8290706Y-17286698D01*
X8290706Y-17286698D02*
X8309753Y-17277174D01*
X8309753Y-17277174D02*
X8357372Y-17277174D01*
X8357372Y-17277174D02*
X8376420Y-17286698D01*
X8376420Y-17286698D02*
X8385944Y-17296222D01*
X8385944Y-17296222D02*
X8395468Y-17315270D01*
X8395468Y-17315270D02*
X8395468Y-17362889D01*
X8395468Y-17362889D02*
X8385944Y-17381936D01*
X8385944Y-17381936D02*
X8376420Y-17391460D01*
X8376420Y-17391460D02*
X8357372Y-17400984D01*
X8357372Y-17400984D02*
X8309753Y-17400984D01*
X8309753Y-17400984D02*
X8290706Y-17391460D01*
X8290706Y-17391460D02*
X8281182Y-17381936D01*
X8566896Y-17267650D02*
X8566896Y-17400984D01*
X8519277Y-17191460D02*
X8471658Y-17334317D01*
X8471658Y-17334317D02*
X8595468Y-17334317D01*
X8662134Y-17200984D02*
X8662134Y-17239079D01*
X8738325Y-17200984D02*
X8738325Y-17239079D01*
X9033563Y-17477174D02*
X9024039Y-17467650D01*
X9024039Y-17467650D02*
X9004991Y-17439079D01*
X9004991Y-17439079D02*
X8995468Y-17420031D01*
X8995468Y-17420031D02*
X8985944Y-17391460D01*
X8985944Y-17391460D02*
X8976420Y-17343841D01*
X8976420Y-17343841D02*
X8976420Y-17305746D01*
X8976420Y-17305746D02*
X8985944Y-17258127D01*
X8985944Y-17258127D02*
X8995468Y-17229555D01*
X8995468Y-17229555D02*
X9004991Y-17210508D01*
X9004991Y-17210508D02*
X9024039Y-17181936D01*
X9024039Y-17181936D02*
X9033563Y-17172412D01*
X9195468Y-17267650D02*
X9195468Y-17400984D01*
X9147849Y-17191460D02*
X9100230Y-17334317D01*
X9100230Y-17334317D02*
X9224039Y-17334317D01*
X9338325Y-17200984D02*
X9357372Y-17200984D01*
X9357372Y-17200984D02*
X9376420Y-17210508D01*
X9376420Y-17210508D02*
X9385944Y-17220031D01*
X9385944Y-17220031D02*
X9395468Y-17239079D01*
X9395468Y-17239079D02*
X9404991Y-17277174D01*
X9404991Y-17277174D02*
X9404991Y-17324793D01*
X9404991Y-17324793D02*
X9395468Y-17362889D01*
X9395468Y-17362889D02*
X9385944Y-17381936D01*
X9385944Y-17381936D02*
X9376420Y-17391460D01*
X9376420Y-17391460D02*
X9357372Y-17400984D01*
X9357372Y-17400984D02*
X9338325Y-17400984D01*
X9338325Y-17400984D02*
X9319277Y-17391460D01*
X9319277Y-17391460D02*
X9309753Y-17381936D01*
X9309753Y-17381936D02*
X9300230Y-17362889D01*
X9300230Y-17362889D02*
X9290706Y-17324793D01*
X9290706Y-17324793D02*
X9290706Y-17277174D01*
X9290706Y-17277174D02*
X9300230Y-17239079D01*
X9300230Y-17239079D02*
X9309753Y-17220031D01*
X9309753Y-17220031D02*
X9319277Y-17210508D01*
X9319277Y-17210508D02*
X9338325Y-17200984D01*
X9643087Y-17400984D02*
X9643087Y-17200984D01*
X9728801Y-17400984D02*
X9728801Y-17296222D01*
X9728801Y-17296222D02*
X9719277Y-17277174D01*
X9719277Y-17277174D02*
X9700230Y-17267650D01*
X9700230Y-17267650D02*
X9671658Y-17267650D01*
X9671658Y-17267650D02*
X9652611Y-17277174D01*
X9652611Y-17277174D02*
X9643087Y-17286698D01*
X9852611Y-17400984D02*
X9833563Y-17391460D01*
X9833563Y-17391460D02*
X9824039Y-17381936D01*
X9824039Y-17381936D02*
X9814515Y-17362889D01*
X9814515Y-17362889D02*
X9814515Y-17305746D01*
X9814515Y-17305746D02*
X9824039Y-17286698D01*
X9824039Y-17286698D02*
X9833563Y-17277174D01*
X9833563Y-17277174D02*
X9852611Y-17267650D01*
X9852611Y-17267650D02*
X9881182Y-17267650D01*
X9881182Y-17267650D02*
X9900230Y-17277174D01*
X9900230Y-17277174D02*
X9909753Y-17286698D01*
X9909753Y-17286698D02*
X9919277Y-17305746D01*
X9919277Y-17305746D02*
X9919277Y-17362889D01*
X9919277Y-17362889D02*
X9909753Y-17381936D01*
X9909753Y-17381936D02*
X9900230Y-17391460D01*
X9900230Y-17391460D02*
X9881182Y-17400984D01*
X9881182Y-17400984D02*
X9852611Y-17400984D01*
X10033563Y-17400984D02*
X10014515Y-17391460D01*
X10014515Y-17391460D02*
X10004992Y-17372412D01*
X10004992Y-17372412D02*
X10004992Y-17200984D01*
X10185944Y-17391460D02*
X10166896Y-17400984D01*
X10166896Y-17400984D02*
X10128801Y-17400984D01*
X10128801Y-17400984D02*
X10109753Y-17391460D01*
X10109753Y-17391460D02*
X10100230Y-17372412D01*
X10100230Y-17372412D02*
X10100230Y-17296222D01*
X10100230Y-17296222D02*
X10109753Y-17277174D01*
X10109753Y-17277174D02*
X10128801Y-17267650D01*
X10128801Y-17267650D02*
X10166896Y-17267650D01*
X10166896Y-17267650D02*
X10185944Y-17277174D01*
X10185944Y-17277174D02*
X10195468Y-17296222D01*
X10195468Y-17296222D02*
X10195468Y-17315270D01*
X10195468Y-17315270D02*
X10100230Y-17334317D01*
X10271658Y-17391460D02*
X10290706Y-17400984D01*
X10290706Y-17400984D02*
X10328801Y-17400984D01*
X10328801Y-17400984D02*
X10347849Y-17391460D01*
X10347849Y-17391460D02*
X10357373Y-17372412D01*
X10357373Y-17372412D02*
X10357373Y-17362889D01*
X10357373Y-17362889D02*
X10347849Y-17343841D01*
X10347849Y-17343841D02*
X10328801Y-17334317D01*
X10328801Y-17334317D02*
X10300230Y-17334317D01*
X10300230Y-17334317D02*
X10281182Y-17324793D01*
X10281182Y-17324793D02*
X10271658Y-17305746D01*
X10271658Y-17305746D02*
X10271658Y-17296222D01*
X10271658Y-17296222D02*
X10281182Y-17277174D01*
X10281182Y-17277174D02*
X10300230Y-17267650D01*
X10300230Y-17267650D02*
X10328801Y-17267650D01*
X10328801Y-17267650D02*
X10347849Y-17277174D01*
X10424039Y-17477174D02*
X10433563Y-17467650D01*
X10433563Y-17467650D02*
X10452611Y-17439079D01*
X10452611Y-17439079D02*
X10462134Y-17420031D01*
X10462134Y-17420031D02*
X10471658Y-17391460D01*
X10471658Y-17391460D02*
X10481182Y-17343841D01*
X10481182Y-17343841D02*
X10481182Y-17305746D01*
X10481182Y-17305746D02*
X10471658Y-17258127D01*
X10471658Y-17258127D02*
X10462134Y-17229555D01*
X10462134Y-17229555D02*
X10452611Y-17210508D01*
X10452611Y-17210508D02*
X10433563Y-17181936D01*
X10433563Y-17181936D02*
X10424039Y-17172412D01*
D12*
X5408500Y-17623500D02*
X5458500Y-17573500D01*
X5408500Y-17523500D01*
X5358500Y-17573500D01*
X5408500Y-17623500D01*
D11*
X5824039Y-17664984D02*
X5709753Y-17664984D01*
X5766896Y-17664984D02*
X5766896Y-17464984D01*
X5766896Y-17464984D02*
X5747848Y-17493555D01*
X5747848Y-17493555D02*
X5728801Y-17512603D01*
X5728801Y-17512603D02*
X5709753Y-17522127D01*
X5909753Y-17645936D02*
X5919277Y-17655460D01*
X5919277Y-17655460D02*
X5909753Y-17664984D01*
X5909753Y-17664984D02*
X5900229Y-17655460D01*
X5900229Y-17655460D02*
X5909753Y-17645936D01*
X5909753Y-17645936D02*
X5909753Y-17664984D01*
X6043086Y-17464984D02*
X6062134Y-17464984D01*
X6062134Y-17464984D02*
X6081182Y-17474508D01*
X6081182Y-17474508D02*
X6090705Y-17484031D01*
X6090705Y-17484031D02*
X6100229Y-17503079D01*
X6100229Y-17503079D02*
X6109753Y-17541174D01*
X6109753Y-17541174D02*
X6109753Y-17588793D01*
X6109753Y-17588793D02*
X6100229Y-17626889D01*
X6100229Y-17626889D02*
X6090705Y-17645936D01*
X6090705Y-17645936D02*
X6081182Y-17655460D01*
X6081182Y-17655460D02*
X6062134Y-17664984D01*
X6062134Y-17664984D02*
X6043086Y-17664984D01*
X6043086Y-17664984D02*
X6024039Y-17655460D01*
X6024039Y-17655460D02*
X6014515Y-17645936D01*
X6014515Y-17645936D02*
X6004991Y-17626889D01*
X6004991Y-17626889D02*
X5995467Y-17588793D01*
X5995467Y-17588793D02*
X5995467Y-17541174D01*
X5995467Y-17541174D02*
X6004991Y-17503079D01*
X6004991Y-17503079D02*
X6014515Y-17484031D01*
X6014515Y-17484031D02*
X6024039Y-17474508D01*
X6024039Y-17474508D02*
X6043086Y-17464984D01*
X6233562Y-17464984D02*
X6252610Y-17464984D01*
X6252610Y-17464984D02*
X6271658Y-17474508D01*
X6271658Y-17474508D02*
X6281182Y-17484031D01*
X6281182Y-17484031D02*
X6290705Y-17503079D01*
X6290705Y-17503079D02*
X6300229Y-17541174D01*
X6300229Y-17541174D02*
X6300229Y-17588793D01*
X6300229Y-17588793D02*
X6290705Y-17626889D01*
X6290705Y-17626889D02*
X6281182Y-17645936D01*
X6281182Y-17645936D02*
X6271658Y-17655460D01*
X6271658Y-17655460D02*
X6252610Y-17664984D01*
X6252610Y-17664984D02*
X6233562Y-17664984D01*
X6233562Y-17664984D02*
X6214515Y-17655460D01*
X6214515Y-17655460D02*
X6204991Y-17645936D01*
X6204991Y-17645936D02*
X6195467Y-17626889D01*
X6195467Y-17626889D02*
X6185943Y-17588793D01*
X6185943Y-17588793D02*
X6185943Y-17541174D01*
X6185943Y-17541174D02*
X6195467Y-17503079D01*
X6195467Y-17503079D02*
X6204991Y-17484031D01*
X6204991Y-17484031D02*
X6214515Y-17474508D01*
X6214515Y-17474508D02*
X6233562Y-17464984D01*
X6424039Y-17464984D02*
X6443086Y-17464984D01*
X6443086Y-17464984D02*
X6462134Y-17474508D01*
X6462134Y-17474508D02*
X6471658Y-17484031D01*
X6471658Y-17484031D02*
X6481182Y-17503079D01*
X6481182Y-17503079D02*
X6490705Y-17541174D01*
X6490705Y-17541174D02*
X6490705Y-17588793D01*
X6490705Y-17588793D02*
X6481182Y-17626889D01*
X6481182Y-17626889D02*
X6471658Y-17645936D01*
X6471658Y-17645936D02*
X6462134Y-17655460D01*
X6462134Y-17655460D02*
X6443086Y-17664984D01*
X6443086Y-17664984D02*
X6424039Y-17664984D01*
X6424039Y-17664984D02*
X6404991Y-17655460D01*
X6404991Y-17655460D02*
X6395467Y-17645936D01*
X6395467Y-17645936D02*
X6385943Y-17626889D01*
X6385943Y-17626889D02*
X6376420Y-17588793D01*
X6376420Y-17588793D02*
X6376420Y-17541174D01*
X6376420Y-17541174D02*
X6385943Y-17503079D01*
X6385943Y-17503079D02*
X6395467Y-17484031D01*
X6395467Y-17484031D02*
X6404991Y-17474508D01*
X6404991Y-17474508D02*
X6424039Y-17464984D01*
X6576420Y-17664984D02*
X6576420Y-17531650D01*
X6576420Y-17550698D02*
X6585943Y-17541174D01*
X6585943Y-17541174D02*
X6604991Y-17531650D01*
X6604991Y-17531650D02*
X6633563Y-17531650D01*
X6633563Y-17531650D02*
X6652610Y-17541174D01*
X6652610Y-17541174D02*
X6662134Y-17560222D01*
X6662134Y-17560222D02*
X6662134Y-17664984D01*
X6662134Y-17560222D02*
X6671658Y-17541174D01*
X6671658Y-17541174D02*
X6690705Y-17531650D01*
X6690705Y-17531650D02*
X6719277Y-17531650D01*
X6719277Y-17531650D02*
X6738324Y-17541174D01*
X6738324Y-17541174D02*
X6747848Y-17560222D01*
X6747848Y-17560222D02*
X6747848Y-17664984D01*
X6843086Y-17664984D02*
X6843086Y-17531650D01*
X6843086Y-17550698D02*
X6852610Y-17541174D01*
X6852610Y-17541174D02*
X6871658Y-17531650D01*
X6871658Y-17531650D02*
X6900229Y-17531650D01*
X6900229Y-17531650D02*
X6919277Y-17541174D01*
X6919277Y-17541174D02*
X6928801Y-17560222D01*
X6928801Y-17560222D02*
X6928801Y-17664984D01*
X6928801Y-17560222D02*
X6938324Y-17541174D01*
X6938324Y-17541174D02*
X6957372Y-17531650D01*
X6957372Y-17531650D02*
X6985943Y-17531650D01*
X6985943Y-17531650D02*
X7004991Y-17541174D01*
X7004991Y-17541174D02*
X7014515Y-17560222D01*
X7014515Y-17560222D02*
X7014515Y-17664984D01*
X7404991Y-17455460D02*
X7233563Y-17712603D01*
X7662134Y-17464984D02*
X7681182Y-17464984D01*
X7681182Y-17464984D02*
X7700229Y-17474508D01*
X7700229Y-17474508D02*
X7709753Y-17484031D01*
X7709753Y-17484031D02*
X7719277Y-17503079D01*
X7719277Y-17503079D02*
X7728801Y-17541174D01*
X7728801Y-17541174D02*
X7728801Y-17588793D01*
X7728801Y-17588793D02*
X7719277Y-17626889D01*
X7719277Y-17626889D02*
X7709753Y-17645936D01*
X7709753Y-17645936D02*
X7700229Y-17655460D01*
X7700229Y-17655460D02*
X7681182Y-17664984D01*
X7681182Y-17664984D02*
X7662134Y-17664984D01*
X7662134Y-17664984D02*
X7643086Y-17655460D01*
X7643086Y-17655460D02*
X7633563Y-17645936D01*
X7633563Y-17645936D02*
X7624039Y-17626889D01*
X7624039Y-17626889D02*
X7614515Y-17588793D01*
X7614515Y-17588793D02*
X7614515Y-17541174D01*
X7614515Y-17541174D02*
X7624039Y-17503079D01*
X7624039Y-17503079D02*
X7633563Y-17484031D01*
X7633563Y-17484031D02*
X7643086Y-17474508D01*
X7643086Y-17474508D02*
X7662134Y-17464984D01*
X7814515Y-17645936D02*
X7824039Y-17655460D01*
X7824039Y-17655460D02*
X7814515Y-17664984D01*
X7814515Y-17664984D02*
X7804991Y-17655460D01*
X7804991Y-17655460D02*
X7814515Y-17645936D01*
X7814515Y-17645936D02*
X7814515Y-17664984D01*
X7947848Y-17464984D02*
X7966896Y-17464984D01*
X7966896Y-17464984D02*
X7985944Y-17474508D01*
X7985944Y-17474508D02*
X7995467Y-17484031D01*
X7995467Y-17484031D02*
X8004991Y-17503079D01*
X8004991Y-17503079D02*
X8014515Y-17541174D01*
X8014515Y-17541174D02*
X8014515Y-17588793D01*
X8014515Y-17588793D02*
X8004991Y-17626889D01*
X8004991Y-17626889D02*
X7995467Y-17645936D01*
X7995467Y-17645936D02*
X7985944Y-17655460D01*
X7985944Y-17655460D02*
X7966896Y-17664984D01*
X7966896Y-17664984D02*
X7947848Y-17664984D01*
X7947848Y-17664984D02*
X7928801Y-17655460D01*
X7928801Y-17655460D02*
X7919277Y-17645936D01*
X7919277Y-17645936D02*
X7909753Y-17626889D01*
X7909753Y-17626889D02*
X7900229Y-17588793D01*
X7900229Y-17588793D02*
X7900229Y-17541174D01*
X7900229Y-17541174D02*
X7909753Y-17503079D01*
X7909753Y-17503079D02*
X7919277Y-17484031D01*
X7919277Y-17484031D02*
X7928801Y-17474508D01*
X7928801Y-17474508D02*
X7947848Y-17464984D01*
X8081182Y-17464984D02*
X8204991Y-17464984D01*
X8204991Y-17464984D02*
X8138325Y-17541174D01*
X8138325Y-17541174D02*
X8166896Y-17541174D01*
X8166896Y-17541174D02*
X8185944Y-17550698D01*
X8185944Y-17550698D02*
X8195467Y-17560222D01*
X8195467Y-17560222D02*
X8204991Y-17579270D01*
X8204991Y-17579270D02*
X8204991Y-17626889D01*
X8204991Y-17626889D02*
X8195467Y-17645936D01*
X8195467Y-17645936D02*
X8185944Y-17655460D01*
X8185944Y-17655460D02*
X8166896Y-17664984D01*
X8166896Y-17664984D02*
X8109753Y-17664984D01*
X8109753Y-17664984D02*
X8090706Y-17655460D01*
X8090706Y-17655460D02*
X8081182Y-17645936D01*
X8300229Y-17664984D02*
X8338325Y-17664984D01*
X8338325Y-17664984D02*
X8357372Y-17655460D01*
X8357372Y-17655460D02*
X8366896Y-17645936D01*
X8366896Y-17645936D02*
X8385944Y-17617365D01*
X8385944Y-17617365D02*
X8395468Y-17579270D01*
X8395468Y-17579270D02*
X8395468Y-17503079D01*
X8395468Y-17503079D02*
X8385944Y-17484031D01*
X8385944Y-17484031D02*
X8376420Y-17474508D01*
X8376420Y-17474508D02*
X8357372Y-17464984D01*
X8357372Y-17464984D02*
X8319277Y-17464984D01*
X8319277Y-17464984D02*
X8300229Y-17474508D01*
X8300229Y-17474508D02*
X8290706Y-17484031D01*
X8290706Y-17484031D02*
X8281182Y-17503079D01*
X8281182Y-17503079D02*
X8281182Y-17550698D01*
X8281182Y-17550698D02*
X8290706Y-17569746D01*
X8290706Y-17569746D02*
X8300229Y-17579270D01*
X8300229Y-17579270D02*
X8319277Y-17588793D01*
X8319277Y-17588793D02*
X8357372Y-17588793D01*
X8357372Y-17588793D02*
X8376420Y-17579270D01*
X8376420Y-17579270D02*
X8385944Y-17569746D01*
X8385944Y-17569746D02*
X8395468Y-17550698D01*
X8566896Y-17531650D02*
X8566896Y-17664984D01*
X8519277Y-17455460D02*
X8471658Y-17598317D01*
X8471658Y-17598317D02*
X8595468Y-17598317D01*
X8662134Y-17464984D02*
X8662134Y-17503079D01*
X8738325Y-17464984D02*
X8738325Y-17503079D01*
X9033563Y-17741174D02*
X9024039Y-17731650D01*
X9024039Y-17731650D02*
X9004991Y-17703079D01*
X9004991Y-17703079D02*
X8995468Y-17684031D01*
X8995468Y-17684031D02*
X8985944Y-17655460D01*
X8985944Y-17655460D02*
X8976420Y-17607841D01*
X8976420Y-17607841D02*
X8976420Y-17569746D01*
X8976420Y-17569746D02*
X8985944Y-17522127D01*
X8985944Y-17522127D02*
X8995468Y-17493555D01*
X8995468Y-17493555D02*
X9004991Y-17474508D01*
X9004991Y-17474508D02*
X9024039Y-17445936D01*
X9024039Y-17445936D02*
X9033563Y-17436412D01*
X9195468Y-17531650D02*
X9195468Y-17664984D01*
X9147849Y-17455460D02*
X9100230Y-17598317D01*
X9100230Y-17598317D02*
X9224039Y-17598317D01*
X9328801Y-17550698D02*
X9309753Y-17541174D01*
X9309753Y-17541174D02*
X9300230Y-17531650D01*
X9300230Y-17531650D02*
X9290706Y-17512603D01*
X9290706Y-17512603D02*
X9290706Y-17503079D01*
X9290706Y-17503079D02*
X9300230Y-17484031D01*
X9300230Y-17484031D02*
X9309753Y-17474508D01*
X9309753Y-17474508D02*
X9328801Y-17464984D01*
X9328801Y-17464984D02*
X9366896Y-17464984D01*
X9366896Y-17464984D02*
X9385944Y-17474508D01*
X9385944Y-17474508D02*
X9395468Y-17484031D01*
X9395468Y-17484031D02*
X9404991Y-17503079D01*
X9404991Y-17503079D02*
X9404991Y-17512603D01*
X9404991Y-17512603D02*
X9395468Y-17531650D01*
X9395468Y-17531650D02*
X9385944Y-17541174D01*
X9385944Y-17541174D02*
X9366896Y-17550698D01*
X9366896Y-17550698D02*
X9328801Y-17550698D01*
X9328801Y-17550698D02*
X9309753Y-17560222D01*
X9309753Y-17560222D02*
X9300230Y-17569746D01*
X9300230Y-17569746D02*
X9290706Y-17588793D01*
X9290706Y-17588793D02*
X9290706Y-17626889D01*
X9290706Y-17626889D02*
X9300230Y-17645936D01*
X9300230Y-17645936D02*
X9309753Y-17655460D01*
X9309753Y-17655460D02*
X9328801Y-17664984D01*
X9328801Y-17664984D02*
X9366896Y-17664984D01*
X9366896Y-17664984D02*
X9385944Y-17655460D01*
X9385944Y-17655460D02*
X9395468Y-17645936D01*
X9395468Y-17645936D02*
X9404991Y-17626889D01*
X9404991Y-17626889D02*
X9404991Y-17588793D01*
X9404991Y-17588793D02*
X9395468Y-17569746D01*
X9395468Y-17569746D02*
X9385944Y-17560222D01*
X9385944Y-17560222D02*
X9366896Y-17550698D01*
X9643087Y-17664984D02*
X9643087Y-17464984D01*
X9728801Y-17664984D02*
X9728801Y-17560222D01*
X9728801Y-17560222D02*
X9719277Y-17541174D01*
X9719277Y-17541174D02*
X9700230Y-17531650D01*
X9700230Y-17531650D02*
X9671658Y-17531650D01*
X9671658Y-17531650D02*
X9652611Y-17541174D01*
X9652611Y-17541174D02*
X9643087Y-17550698D01*
X9852611Y-17664984D02*
X9833563Y-17655460D01*
X9833563Y-17655460D02*
X9824039Y-17645936D01*
X9824039Y-17645936D02*
X9814515Y-17626889D01*
X9814515Y-17626889D02*
X9814515Y-17569746D01*
X9814515Y-17569746D02*
X9824039Y-17550698D01*
X9824039Y-17550698D02*
X9833563Y-17541174D01*
X9833563Y-17541174D02*
X9852611Y-17531650D01*
X9852611Y-17531650D02*
X9881182Y-17531650D01*
X9881182Y-17531650D02*
X9900230Y-17541174D01*
X9900230Y-17541174D02*
X9909753Y-17550698D01*
X9909753Y-17550698D02*
X9919277Y-17569746D01*
X9919277Y-17569746D02*
X9919277Y-17626889D01*
X9919277Y-17626889D02*
X9909753Y-17645936D01*
X9909753Y-17645936D02*
X9900230Y-17655460D01*
X9900230Y-17655460D02*
X9881182Y-17664984D01*
X9881182Y-17664984D02*
X9852611Y-17664984D01*
X10033563Y-17664984D02*
X10014515Y-17655460D01*
X10014515Y-17655460D02*
X10004992Y-17636412D01*
X10004992Y-17636412D02*
X10004992Y-17464984D01*
X10185944Y-17655460D02*
X10166896Y-17664984D01*
X10166896Y-17664984D02*
X10128801Y-17664984D01*
X10128801Y-17664984D02*
X10109753Y-17655460D01*
X10109753Y-17655460D02*
X10100230Y-17636412D01*
X10100230Y-17636412D02*
X10100230Y-17560222D01*
X10100230Y-17560222D02*
X10109753Y-17541174D01*
X10109753Y-17541174D02*
X10128801Y-17531650D01*
X10128801Y-17531650D02*
X10166896Y-17531650D01*
X10166896Y-17531650D02*
X10185944Y-17541174D01*
X10185944Y-17541174D02*
X10195468Y-17560222D01*
X10195468Y-17560222D02*
X10195468Y-17579270D01*
X10195468Y-17579270D02*
X10100230Y-17598317D01*
X10271658Y-17655460D02*
X10290706Y-17664984D01*
X10290706Y-17664984D02*
X10328801Y-17664984D01*
X10328801Y-17664984D02*
X10347849Y-17655460D01*
X10347849Y-17655460D02*
X10357373Y-17636412D01*
X10357373Y-17636412D02*
X10357373Y-17626889D01*
X10357373Y-17626889D02*
X10347849Y-17607841D01*
X10347849Y-17607841D02*
X10328801Y-17598317D01*
X10328801Y-17598317D02*
X10300230Y-17598317D01*
X10300230Y-17598317D02*
X10281182Y-17588793D01*
X10281182Y-17588793D02*
X10271658Y-17569746D01*
X10271658Y-17569746D02*
X10271658Y-17560222D01*
X10271658Y-17560222D02*
X10281182Y-17541174D01*
X10281182Y-17541174D02*
X10300230Y-17531650D01*
X10300230Y-17531650D02*
X10328801Y-17531650D01*
X10328801Y-17531650D02*
X10347849Y-17541174D01*
X10424039Y-17741174D02*
X10433563Y-17731650D01*
X10433563Y-17731650D02*
X10452611Y-17703079D01*
X10452611Y-17703079D02*
X10462134Y-17684031D01*
X10462134Y-17684031D02*
X10471658Y-17655460D01*
X10471658Y-17655460D02*
X10481182Y-17607841D01*
X10481182Y-17607841D02*
X10481182Y-17569746D01*
X10481182Y-17569746D02*
X10471658Y-17522127D01*
X10471658Y-17522127D02*
X10462134Y-17493555D01*
X10462134Y-17493555D02*
X10452611Y-17474508D01*
X10452611Y-17474508D02*
X10433563Y-17445936D01*
X10433563Y-17445936D02*
X10424039Y-17436412D01*
D13*
X5348500Y-17782500D02*
X5458500Y-17892500D01*
X5458500Y-17782500D02*
X5348500Y-17892500D01*
X5458500Y-17837500D02*
G75*
G02*
X5348500Y-17837500I-55000J0D01*
G01*
X5348500Y-17837500D02*
G75*
G02*
X5458500Y-17837500I55000J0D01*
G01*
D11*
X5824039Y-17928984D02*
X5709753Y-17928984D01*
X5766896Y-17928984D02*
X5766896Y-17728984D01*
X5766896Y-17728984D02*
X5747848Y-17757555D01*
X5747848Y-17757555D02*
X5728801Y-17776603D01*
X5728801Y-17776603D02*
X5709753Y-17786127D01*
X5909753Y-17909936D02*
X5919277Y-17919460D01*
X5919277Y-17919460D02*
X5909753Y-17928984D01*
X5909753Y-17928984D02*
X5900229Y-17919460D01*
X5900229Y-17919460D02*
X5909753Y-17909936D01*
X5909753Y-17909936D02*
X5909753Y-17928984D01*
X6109753Y-17928984D02*
X5995467Y-17928984D01*
X6052610Y-17928984D02*
X6052610Y-17728984D01*
X6052610Y-17728984D02*
X6033562Y-17757555D01*
X6033562Y-17757555D02*
X6014515Y-17776603D01*
X6014515Y-17776603D02*
X5995467Y-17786127D01*
X6233562Y-17728984D02*
X6252610Y-17728984D01*
X6252610Y-17728984D02*
X6271658Y-17738508D01*
X6271658Y-17738508D02*
X6281182Y-17748031D01*
X6281182Y-17748031D02*
X6290705Y-17767079D01*
X6290705Y-17767079D02*
X6300229Y-17805174D01*
X6300229Y-17805174D02*
X6300229Y-17852793D01*
X6300229Y-17852793D02*
X6290705Y-17890889D01*
X6290705Y-17890889D02*
X6281182Y-17909936D01*
X6281182Y-17909936D02*
X6271658Y-17919460D01*
X6271658Y-17919460D02*
X6252610Y-17928984D01*
X6252610Y-17928984D02*
X6233562Y-17928984D01*
X6233562Y-17928984D02*
X6214515Y-17919460D01*
X6214515Y-17919460D02*
X6204991Y-17909936D01*
X6204991Y-17909936D02*
X6195467Y-17890889D01*
X6195467Y-17890889D02*
X6185943Y-17852793D01*
X6185943Y-17852793D02*
X6185943Y-17805174D01*
X6185943Y-17805174D02*
X6195467Y-17767079D01*
X6195467Y-17767079D02*
X6204991Y-17748031D01*
X6204991Y-17748031D02*
X6214515Y-17738508D01*
X6214515Y-17738508D02*
X6233562Y-17728984D01*
X6424039Y-17728984D02*
X6443086Y-17728984D01*
X6443086Y-17728984D02*
X6462134Y-17738508D01*
X6462134Y-17738508D02*
X6471658Y-17748031D01*
X6471658Y-17748031D02*
X6481182Y-17767079D01*
X6481182Y-17767079D02*
X6490705Y-17805174D01*
X6490705Y-17805174D02*
X6490705Y-17852793D01*
X6490705Y-17852793D02*
X6481182Y-17890889D01*
X6481182Y-17890889D02*
X6471658Y-17909936D01*
X6471658Y-17909936D02*
X6462134Y-17919460D01*
X6462134Y-17919460D02*
X6443086Y-17928984D01*
X6443086Y-17928984D02*
X6424039Y-17928984D01*
X6424039Y-17928984D02*
X6404991Y-17919460D01*
X6404991Y-17919460D02*
X6395467Y-17909936D01*
X6395467Y-17909936D02*
X6385943Y-17890889D01*
X6385943Y-17890889D02*
X6376420Y-17852793D01*
X6376420Y-17852793D02*
X6376420Y-17805174D01*
X6376420Y-17805174D02*
X6385943Y-17767079D01*
X6385943Y-17767079D02*
X6395467Y-17748031D01*
X6395467Y-17748031D02*
X6404991Y-17738508D01*
X6404991Y-17738508D02*
X6424039Y-17728984D01*
X6576420Y-17928984D02*
X6576420Y-17795650D01*
X6576420Y-17814698D02*
X6585943Y-17805174D01*
X6585943Y-17805174D02*
X6604991Y-17795650D01*
X6604991Y-17795650D02*
X6633563Y-17795650D01*
X6633563Y-17795650D02*
X6652610Y-17805174D01*
X6652610Y-17805174D02*
X6662134Y-17824222D01*
X6662134Y-17824222D02*
X6662134Y-17928984D01*
X6662134Y-17824222D02*
X6671658Y-17805174D01*
X6671658Y-17805174D02*
X6690705Y-17795650D01*
X6690705Y-17795650D02*
X6719277Y-17795650D01*
X6719277Y-17795650D02*
X6738324Y-17805174D01*
X6738324Y-17805174D02*
X6747848Y-17824222D01*
X6747848Y-17824222D02*
X6747848Y-17928984D01*
X6843086Y-17928984D02*
X6843086Y-17795650D01*
X6843086Y-17814698D02*
X6852610Y-17805174D01*
X6852610Y-17805174D02*
X6871658Y-17795650D01*
X6871658Y-17795650D02*
X6900229Y-17795650D01*
X6900229Y-17795650D02*
X6919277Y-17805174D01*
X6919277Y-17805174D02*
X6928801Y-17824222D01*
X6928801Y-17824222D02*
X6928801Y-17928984D01*
X6928801Y-17824222D02*
X6938324Y-17805174D01*
X6938324Y-17805174D02*
X6957372Y-17795650D01*
X6957372Y-17795650D02*
X6985943Y-17795650D01*
X6985943Y-17795650D02*
X7004991Y-17805174D01*
X7004991Y-17805174D02*
X7014515Y-17824222D01*
X7014515Y-17824222D02*
X7014515Y-17928984D01*
X7404991Y-17719460D02*
X7233563Y-17976603D01*
X7662134Y-17728984D02*
X7681182Y-17728984D01*
X7681182Y-17728984D02*
X7700229Y-17738508D01*
X7700229Y-17738508D02*
X7709753Y-17748031D01*
X7709753Y-17748031D02*
X7719277Y-17767079D01*
X7719277Y-17767079D02*
X7728801Y-17805174D01*
X7728801Y-17805174D02*
X7728801Y-17852793D01*
X7728801Y-17852793D02*
X7719277Y-17890889D01*
X7719277Y-17890889D02*
X7709753Y-17909936D01*
X7709753Y-17909936D02*
X7700229Y-17919460D01*
X7700229Y-17919460D02*
X7681182Y-17928984D01*
X7681182Y-17928984D02*
X7662134Y-17928984D01*
X7662134Y-17928984D02*
X7643086Y-17919460D01*
X7643086Y-17919460D02*
X7633563Y-17909936D01*
X7633563Y-17909936D02*
X7624039Y-17890889D01*
X7624039Y-17890889D02*
X7614515Y-17852793D01*
X7614515Y-17852793D02*
X7614515Y-17805174D01*
X7614515Y-17805174D02*
X7624039Y-17767079D01*
X7624039Y-17767079D02*
X7633563Y-17748031D01*
X7633563Y-17748031D02*
X7643086Y-17738508D01*
X7643086Y-17738508D02*
X7662134Y-17728984D01*
X7814515Y-17909936D02*
X7824039Y-17919460D01*
X7824039Y-17919460D02*
X7814515Y-17928984D01*
X7814515Y-17928984D02*
X7804991Y-17919460D01*
X7804991Y-17919460D02*
X7814515Y-17909936D01*
X7814515Y-17909936D02*
X7814515Y-17928984D01*
X7947848Y-17728984D02*
X7966896Y-17728984D01*
X7966896Y-17728984D02*
X7985944Y-17738508D01*
X7985944Y-17738508D02*
X7995467Y-17748031D01*
X7995467Y-17748031D02*
X8004991Y-17767079D01*
X8004991Y-17767079D02*
X8014515Y-17805174D01*
X8014515Y-17805174D02*
X8014515Y-17852793D01*
X8014515Y-17852793D02*
X8004991Y-17890889D01*
X8004991Y-17890889D02*
X7995467Y-17909936D01*
X7995467Y-17909936D02*
X7985944Y-17919460D01*
X7985944Y-17919460D02*
X7966896Y-17928984D01*
X7966896Y-17928984D02*
X7947848Y-17928984D01*
X7947848Y-17928984D02*
X7928801Y-17919460D01*
X7928801Y-17919460D02*
X7919277Y-17909936D01*
X7919277Y-17909936D02*
X7909753Y-17890889D01*
X7909753Y-17890889D02*
X7900229Y-17852793D01*
X7900229Y-17852793D02*
X7900229Y-17805174D01*
X7900229Y-17805174D02*
X7909753Y-17767079D01*
X7909753Y-17767079D02*
X7919277Y-17748031D01*
X7919277Y-17748031D02*
X7928801Y-17738508D01*
X7928801Y-17738508D02*
X7947848Y-17728984D01*
X8185944Y-17795650D02*
X8185944Y-17928984D01*
X8138325Y-17719460D02*
X8090706Y-17862317D01*
X8090706Y-17862317D02*
X8214515Y-17862317D01*
X8271658Y-17728984D02*
X8395468Y-17728984D01*
X8395468Y-17728984D02*
X8328801Y-17805174D01*
X8328801Y-17805174D02*
X8357372Y-17805174D01*
X8357372Y-17805174D02*
X8376420Y-17814698D01*
X8376420Y-17814698D02*
X8385944Y-17824222D01*
X8385944Y-17824222D02*
X8395468Y-17843270D01*
X8395468Y-17843270D02*
X8395468Y-17890889D01*
X8395468Y-17890889D02*
X8385944Y-17909936D01*
X8385944Y-17909936D02*
X8376420Y-17919460D01*
X8376420Y-17919460D02*
X8357372Y-17928984D01*
X8357372Y-17928984D02*
X8300229Y-17928984D01*
X8300229Y-17928984D02*
X8281182Y-17919460D01*
X8281182Y-17919460D02*
X8271658Y-17909936D01*
X8462134Y-17728984D02*
X8585944Y-17728984D01*
X8585944Y-17728984D02*
X8519277Y-17805174D01*
X8519277Y-17805174D02*
X8547849Y-17805174D01*
X8547849Y-17805174D02*
X8566896Y-17814698D01*
X8566896Y-17814698D02*
X8576420Y-17824222D01*
X8576420Y-17824222D02*
X8585944Y-17843270D01*
X8585944Y-17843270D02*
X8585944Y-17890889D01*
X8585944Y-17890889D02*
X8576420Y-17909936D01*
X8576420Y-17909936D02*
X8566896Y-17919460D01*
X8566896Y-17919460D02*
X8547849Y-17928984D01*
X8547849Y-17928984D02*
X8490706Y-17928984D01*
X8490706Y-17928984D02*
X8471658Y-17919460D01*
X8471658Y-17919460D02*
X8462134Y-17909936D01*
X8662134Y-17728984D02*
X8662134Y-17767079D01*
X8738325Y-17728984D02*
X8738325Y-17767079D01*
X9033563Y-18005174D02*
X9024039Y-17995650D01*
X9024039Y-17995650D02*
X9004991Y-17967079D01*
X9004991Y-17967079D02*
X8995468Y-17948031D01*
X8995468Y-17948031D02*
X8985944Y-17919460D01*
X8985944Y-17919460D02*
X8976420Y-17871841D01*
X8976420Y-17871841D02*
X8976420Y-17833746D01*
X8976420Y-17833746D02*
X8985944Y-17786127D01*
X8985944Y-17786127D02*
X8995468Y-17757555D01*
X8995468Y-17757555D02*
X9004991Y-17738508D01*
X9004991Y-17738508D02*
X9024039Y-17709936D01*
X9024039Y-17709936D02*
X9033563Y-17700412D01*
X9195468Y-17728984D02*
X9157372Y-17728984D01*
X9157372Y-17728984D02*
X9138325Y-17738508D01*
X9138325Y-17738508D02*
X9128801Y-17748031D01*
X9128801Y-17748031D02*
X9109753Y-17776603D01*
X9109753Y-17776603D02*
X9100230Y-17814698D01*
X9100230Y-17814698D02*
X9100230Y-17890889D01*
X9100230Y-17890889D02*
X9109753Y-17909936D01*
X9109753Y-17909936D02*
X9119277Y-17919460D01*
X9119277Y-17919460D02*
X9138325Y-17928984D01*
X9138325Y-17928984D02*
X9176420Y-17928984D01*
X9176420Y-17928984D02*
X9195468Y-17919460D01*
X9195468Y-17919460D02*
X9204991Y-17909936D01*
X9204991Y-17909936D02*
X9214515Y-17890889D01*
X9214515Y-17890889D02*
X9214515Y-17843270D01*
X9214515Y-17843270D02*
X9204991Y-17824222D01*
X9204991Y-17824222D02*
X9195468Y-17814698D01*
X9195468Y-17814698D02*
X9176420Y-17805174D01*
X9176420Y-17805174D02*
X9138325Y-17805174D01*
X9138325Y-17805174D02*
X9119277Y-17814698D01*
X9119277Y-17814698D02*
X9109753Y-17824222D01*
X9109753Y-17824222D02*
X9100230Y-17843270D01*
X9452611Y-17928984D02*
X9452611Y-17728984D01*
X9538325Y-17928984D02*
X9538325Y-17824222D01*
X9538325Y-17824222D02*
X9528801Y-17805174D01*
X9528801Y-17805174D02*
X9509753Y-17795650D01*
X9509753Y-17795650D02*
X9481182Y-17795650D01*
X9481182Y-17795650D02*
X9462134Y-17805174D01*
X9462134Y-17805174D02*
X9452611Y-17814698D01*
X9662134Y-17928984D02*
X9643087Y-17919460D01*
X9643087Y-17919460D02*
X9633563Y-17909936D01*
X9633563Y-17909936D02*
X9624039Y-17890889D01*
X9624039Y-17890889D02*
X9624039Y-17833746D01*
X9624039Y-17833746D02*
X9633563Y-17814698D01*
X9633563Y-17814698D02*
X9643087Y-17805174D01*
X9643087Y-17805174D02*
X9662134Y-17795650D01*
X9662134Y-17795650D02*
X9690706Y-17795650D01*
X9690706Y-17795650D02*
X9709753Y-17805174D01*
X9709753Y-17805174D02*
X9719277Y-17814698D01*
X9719277Y-17814698D02*
X9728801Y-17833746D01*
X9728801Y-17833746D02*
X9728801Y-17890889D01*
X9728801Y-17890889D02*
X9719277Y-17909936D01*
X9719277Y-17909936D02*
X9709753Y-17919460D01*
X9709753Y-17919460D02*
X9690706Y-17928984D01*
X9690706Y-17928984D02*
X9662134Y-17928984D01*
X9843087Y-17928984D02*
X9824039Y-17919460D01*
X9824039Y-17919460D02*
X9814515Y-17900412D01*
X9814515Y-17900412D02*
X9814515Y-17728984D01*
X9995468Y-17919460D02*
X9976420Y-17928984D01*
X9976420Y-17928984D02*
X9938325Y-17928984D01*
X9938325Y-17928984D02*
X9919277Y-17919460D01*
X9919277Y-17919460D02*
X9909753Y-17900412D01*
X9909753Y-17900412D02*
X9909753Y-17824222D01*
X9909753Y-17824222D02*
X9919277Y-17805174D01*
X9919277Y-17805174D02*
X9938325Y-17795650D01*
X9938325Y-17795650D02*
X9976420Y-17795650D01*
X9976420Y-17795650D02*
X9995468Y-17805174D01*
X9995468Y-17805174D02*
X10004992Y-17824222D01*
X10004992Y-17824222D02*
X10004992Y-17843270D01*
X10004992Y-17843270D02*
X9909753Y-17862317D01*
X10081182Y-17919460D02*
X10100230Y-17928984D01*
X10100230Y-17928984D02*
X10138325Y-17928984D01*
X10138325Y-17928984D02*
X10157373Y-17919460D01*
X10157373Y-17919460D02*
X10166896Y-17900412D01*
X10166896Y-17900412D02*
X10166896Y-17890889D01*
X10166896Y-17890889D02*
X10157373Y-17871841D01*
X10157373Y-17871841D02*
X10138325Y-17862317D01*
X10138325Y-17862317D02*
X10109753Y-17862317D01*
X10109753Y-17862317D02*
X10090706Y-17852793D01*
X10090706Y-17852793D02*
X10081182Y-17833746D01*
X10081182Y-17833746D02*
X10081182Y-17824222D01*
X10081182Y-17824222D02*
X10090706Y-17805174D01*
X10090706Y-17805174D02*
X10109753Y-17795650D01*
X10109753Y-17795650D02*
X10138325Y-17795650D01*
X10138325Y-17795650D02*
X10157373Y-17805174D01*
X10233563Y-18005174D02*
X10243087Y-17995650D01*
X10243087Y-17995650D02*
X10262134Y-17967079D01*
X10262134Y-17967079D02*
X10271658Y-17948031D01*
X10271658Y-17948031D02*
X10281182Y-17919460D01*
X10281182Y-17919460D02*
X10290706Y-17871841D01*
X10290706Y-17871841D02*
X10290706Y-17833746D01*
X10290706Y-17833746D02*
X10281182Y-17786127D01*
X10281182Y-17786127D02*
X10271658Y-17757555D01*
X10271658Y-17757555D02*
X10262134Y-17738508D01*
X10262134Y-17738508D02*
X10243087Y-17709936D01*
X10243087Y-17709936D02*
X10233563Y-17700412D01*
M02*
