%TF.GenerationSoftware,KiCad,Pcbnew,8.0.3-alt0.p10*%
%TF.CreationDate,2024-12-28T11:41:12+07:00*%
%TF.ProjectId,esp32-ddc-frontend,65737033-322d-4646-9463-2d66726f6e74,rev?*%
%TF.SameCoordinates,Original*%
%TF.FileFunction,Drillmap*%
%TF.FilePolarity,Positive*%
%FSLAX45Y45*%
G04 Gerber Fmt 4.5, Leading zero omitted, Abs format (unit mm)*
G04 Created by KiCad (PCBNEW 8.0.3-alt0.p10) date 2024-12-28 11:41:12*
%MOMM*%
%LPD*%
G01*
G04 APERTURE LIST*
%ADD10C,0.050000*%
%ADD11C,0.200000*%
G04 APERTURE END LIST*
D10*
X15240000Y-15875000D02*
X5461000Y-15875000D01*
X15240182Y-7976303D02*
X15240000Y-15875000D01*
X5461182Y-7976303D02*
X15240182Y-7976303D01*
X5461000Y-15875000D02*
X5461182Y-7976303D01*
D11*
X5719277Y-16188984D02*
X5719277Y-15988984D01*
X5719277Y-15988984D02*
X5766896Y-15988984D01*
X5766896Y-15988984D02*
X5795467Y-15998508D01*
X5795467Y-15998508D02*
X5814515Y-16017555D01*
X5814515Y-16017555D02*
X5824039Y-16036603D01*
X5824039Y-16036603D02*
X5833562Y-16074698D01*
X5833562Y-16074698D02*
X5833562Y-16103269D01*
X5833562Y-16103269D02*
X5824039Y-16141365D01*
X5824039Y-16141365D02*
X5814515Y-16160412D01*
X5814515Y-16160412D02*
X5795467Y-16179460D01*
X5795467Y-16179460D02*
X5766896Y-16188984D01*
X5766896Y-16188984D02*
X5719277Y-16188984D01*
X5919277Y-16188984D02*
X5919277Y-16055650D01*
X5919277Y-16093746D02*
X5928801Y-16074698D01*
X5928801Y-16074698D02*
X5938324Y-16065174D01*
X5938324Y-16065174D02*
X5957372Y-16055650D01*
X5957372Y-16055650D02*
X5976420Y-16055650D01*
X6043086Y-16188984D02*
X6043086Y-16055650D01*
X6043086Y-15988984D02*
X6033562Y-15998508D01*
X6033562Y-15998508D02*
X6043086Y-16008031D01*
X6043086Y-16008031D02*
X6052610Y-15998508D01*
X6052610Y-15998508D02*
X6043086Y-15988984D01*
X6043086Y-15988984D02*
X6043086Y-16008031D01*
X6166896Y-16188984D02*
X6147848Y-16179460D01*
X6147848Y-16179460D02*
X6138324Y-16160412D01*
X6138324Y-16160412D02*
X6138324Y-15988984D01*
X6271658Y-16188984D02*
X6252610Y-16179460D01*
X6252610Y-16179460D02*
X6243086Y-16160412D01*
X6243086Y-16160412D02*
X6243086Y-15988984D01*
X6500229Y-16188984D02*
X6500229Y-15988984D01*
X6500229Y-15988984D02*
X6566896Y-16131841D01*
X6566896Y-16131841D02*
X6633562Y-15988984D01*
X6633562Y-15988984D02*
X6633562Y-16188984D01*
X6814515Y-16188984D02*
X6814515Y-16084222D01*
X6814515Y-16084222D02*
X6804991Y-16065174D01*
X6804991Y-16065174D02*
X6785943Y-16055650D01*
X6785943Y-16055650D02*
X6747848Y-16055650D01*
X6747848Y-16055650D02*
X6728801Y-16065174D01*
X6814515Y-16179460D02*
X6795467Y-16188984D01*
X6795467Y-16188984D02*
X6747848Y-16188984D01*
X6747848Y-16188984D02*
X6728801Y-16179460D01*
X6728801Y-16179460D02*
X6719277Y-16160412D01*
X6719277Y-16160412D02*
X6719277Y-16141365D01*
X6719277Y-16141365D02*
X6728801Y-16122317D01*
X6728801Y-16122317D02*
X6747848Y-16112793D01*
X6747848Y-16112793D02*
X6795467Y-16112793D01*
X6795467Y-16112793D02*
X6814515Y-16103269D01*
X6909753Y-16055650D02*
X6909753Y-16255650D01*
X6909753Y-16065174D02*
X6928801Y-16055650D01*
X6928801Y-16055650D02*
X6966896Y-16055650D01*
X6966896Y-16055650D02*
X6985943Y-16065174D01*
X6985943Y-16065174D02*
X6995467Y-16074698D01*
X6995467Y-16074698D02*
X7004991Y-16093746D01*
X7004991Y-16093746D02*
X7004991Y-16150888D01*
X7004991Y-16150888D02*
X6995467Y-16169936D01*
X6995467Y-16169936D02*
X6985943Y-16179460D01*
X6985943Y-16179460D02*
X6966896Y-16188984D01*
X6966896Y-16188984D02*
X6928801Y-16188984D01*
X6928801Y-16188984D02*
X6909753Y-16179460D01*
X7090705Y-16169936D02*
X7100229Y-16179460D01*
X7100229Y-16179460D02*
X7090705Y-16188984D01*
X7090705Y-16188984D02*
X7081182Y-16179460D01*
X7081182Y-16179460D02*
X7090705Y-16169936D01*
X7090705Y-16169936D02*
X7090705Y-16188984D01*
X7090705Y-16065174D02*
X7100229Y-16074698D01*
X7100229Y-16074698D02*
X7090705Y-16084222D01*
X7090705Y-16084222D02*
X7081182Y-16074698D01*
X7081182Y-16074698D02*
X7090705Y-16065174D01*
X7090705Y-16065174D02*
X7090705Y-16084222D01*
M02*
