%TF.GenerationSoftware,KiCad,Pcbnew,8.0.3-alt0.p10*%
%TF.CreationDate,2024-12-28T11:41:19+07:00*%
%TF.ProjectId,esp32-ddc-frontend,65737033-322d-4646-9463-2d66726f6e74,rev?*%
%TF.SameCoordinates,Original*%
%TF.FileFunction,Copper,L2,Bot*%
%TF.FilePolarity,Positive*%
%FSLAX46Y46*%
G04 Gerber Fmt 4.6, Leading zero omitted, Abs format (unit mm)*
G04 Created by KiCad (PCBNEW 8.0.3-alt0.p10) date 2024-12-28 11:41:19*
%MOMM*%
%LPD*%
G01*
G04 APERTURE LIST*
%TA.AperFunction,ComponentPad*%
%ADD10R,1.600000X1.600000*%
%TD*%
%TA.AperFunction,ComponentPad*%
%ADD11O,1.600000X1.600000*%
%TD*%
%TA.AperFunction,ComponentPad*%
%ADD12R,1.700000X1.700000*%
%TD*%
%TA.AperFunction,ComponentPad*%
%ADD13O,1.700000X1.700000*%
%TD*%
%TA.AperFunction,ComponentPad*%
%ADD14C,1.600000*%
%TD*%
%TA.AperFunction,ComponentPad*%
%ADD15R,1.905000X2.000000*%
%TD*%
%TA.AperFunction,ComponentPad*%
%ADD16O,1.905000X2.000000*%
%TD*%
%TA.AperFunction,ComponentPad*%
%ADD17R,1.050000X1.500000*%
%TD*%
%TA.AperFunction,ComponentPad*%
%ADD18O,1.050000X1.500000*%
%TD*%
%TA.AperFunction,ComponentPad*%
%ADD19C,1.800000*%
%TD*%
%TA.AperFunction,ViaPad*%
%ADD20C,0.800000*%
%TD*%
%TA.AperFunction,Conductor*%
%ADD21C,0.250000*%
%TD*%
G04 APERTURE END LIST*
D10*
%TO.P,D3,1,K*%
%TO.N,Net-(D3-K)*%
X128460954Y-148185157D03*
D11*
%TO.P,D3,2,A*%
%TO.N,GND*%
X128460954Y-155805157D03*
%TD*%
D12*
%TO.P,J1,1,Pin_1*%
%TO.N,12V*%
X69950981Y-84817237D03*
D13*
%TO.P,J1,2,Pin_2*%
%TO.N,GND*%
X67410981Y-84817237D03*
%TD*%
D14*
%TO.P,L1,1*%
%TO.N,5VA*%
X100330000Y-102870000D03*
D11*
%TO.P,L1,2*%
%TO.N,5VD*%
X100330000Y-92710000D03*
%TD*%
D15*
%TO.P,U4,1,VI*%
%TO.N,12V*%
X103844689Y-86119177D03*
D16*
%TO.P,U4,2,GND*%
%TO.N,GND*%
X106384689Y-86119177D03*
%TO.P,U4,3,VO*%
%TO.N,9V*%
X108924689Y-86119177D03*
%TD*%
D12*
%TO.P,J5,1,Pin_1*%
%TO.N,RF_OUT*%
X98386106Y-155662559D03*
D13*
%TO.P,J5,2,Pin_2*%
%TO.N,GND*%
X95846106Y-155662559D03*
%TD*%
D15*
%TO.P,U3,1,VI*%
%TO.N,12V*%
X78740000Y-86360000D03*
D16*
%TO.P,U3,2,GND*%
%TO.N,GND*%
X81280000Y-86360000D03*
%TO.P,U3,3,VO*%
%TO.N,5VD*%
X83820000Y-86360000D03*
%TD*%
D17*
%TO.P,Q3,1,E*%
%TO.N,GND*%
X133722307Y-115441741D03*
D18*
%TO.P,Q3,2,B*%
%TO.N,Net-(Q3-B)*%
X134992307Y-115441741D03*
%TO.P,Q3,3,C*%
%TO.N,Net-(Q3-C)*%
X136262307Y-115441741D03*
%TD*%
D19*
%TO.P,D2,1,73*%
%TO.N,Net-(D2-73)*%
X88900000Y-146050000D03*
%TO.P,D2,2,74*%
%TO.N,D13*%
X88900000Y-143510000D03*
%TO.P,D2,3,75*%
%TO.N,D12*%
X88900000Y-140970000D03*
%TO.P,D2,4,85*%
%TO.N,D11*%
X88900000Y-138430000D03*
%TO.P,D2,5,77*%
%TO.N,D10*%
X88900000Y-135890000D03*
%TO.P,D2,6,15*%
%TO.N,D9*%
X88900000Y-133350000D03*
%TO.P,D2,7,16*%
%TO.N,D8*%
X88900000Y-130810000D03*
%TO.P,D2,8,27*%
%TO.N,D7*%
X88900000Y-128270000D03*
%TO.P,D2,9,28*%
%TO.N,D6*%
X88900000Y-125730000D03*
%TO.P,D2,10,25*%
%TO.N,D5*%
X88900000Y-123190000D03*
%TO.P,D2,11,26*%
%TO.N,D4*%
X88900000Y-120650000D03*
%TO.P,D2,12,29*%
%TO.N,D3*%
X88900000Y-118110000D03*
%TO.P,D2,13,30*%
%TO.N,D2*%
X88900000Y-115570000D03*
%TO.P,D2,14,31*%
%TO.N,D1*%
X88900000Y-113030000D03*
%TO.P,D2,15,17*%
%TO.N,D0*%
X88900000Y-110490000D03*
%TO.P,D2,16,20*%
%TO.N,Net-(D2-20)*%
X88900000Y-107950000D03*
%TO.P,D2,17,19*%
%TO.N,Net-(D2-19)*%
X88900000Y-105410000D03*
%TO.P,D2,18,18*%
%TO.N,dac_pwm*%
X88900000Y-102870000D03*
%TO.P,D2,19,3.3V*%
%TO.N,Net-(D2-3.3V-Pad19)*%
X88900000Y-100330000D03*
%TO.P,D2,20,GND*%
%TO.N,GND*%
X88900000Y-97790000D03*
%TO.P,D2,21,52*%
%TO.N,n_ptt*%
X68580000Y-97790000D03*
%TO.P,D2,22,53*%
%TO.N,n_cw_key*%
X68580000Y-100330000D03*
%TO.P,D2,23,71*%
%TO.N,n_tune*%
X68580000Y-102870000D03*
%TO.P,D2,24,72*%
%TO.N,button*%
X68580000Y-105410000D03*
%TO.P,D2,25,3.3V*%
%TO.N,3V*%
X68580000Y-107950000D03*
%TO.P,D2,26,GND*%
%TO.N,GND*%
X68580000Y-110490000D03*
%TO.P,D2,27,79*%
%TO.N,preamp_on*%
X68580000Y-113030000D03*
%TO.P,D2,28,86*%
%TO.N,att_on*%
X68580000Y-115570000D03*
%TO.P,D2,29,49*%
%TO.N,filter4*%
X68580000Y-118110000D03*
%TO.P,D2,30,55*%
%TO.N,filter3*%
X68580000Y-120650000D03*
%TO.P,D2,31,48*%
%TO.N,filter2*%
X68580000Y-123190000D03*
%TO.P,D2,32,51*%
%TO.N,filter1*%
X68580000Y-125730000D03*
%TO.P,D2,33,54*%
%TO.N,filter0*%
X68580000Y-128270000D03*
%TO.P,D2,34,56*%
%TO.N,start*%
X68580000Y-130810000D03*
%TO.P,D2,35,41*%
%TO.N,SPI_MISO*%
X68580000Y-133350000D03*
%TO.P,D2,36,42*%
%TO.N,SPI_MOSI*%
X68580000Y-135890000D03*
%TO.P,D2,37,80*%
%TO.N,SPI_SCK*%
X68580000Y-138430000D03*
%TO.P,D2,38,76*%
%TO.N,SPI_SS*%
X68580000Y-140970000D03*
%TO.P,D2,39,GND*%
%TO.N,GND*%
X68580000Y-143510000D03*
%TO.P,D2,40,5V*%
%TO.N,5VD*%
X68580000Y-146050000D03*
%TD*%
D12*
%TO.P,J4,1,Pin_1*%
%TO.N,RF_IN*%
X121236051Y-155101361D03*
D13*
%TO.P,J4,2,Pin_2*%
%TO.N,GND*%
X123776051Y-155101361D03*
%TD*%
D17*
%TO.P,Q2,1,E*%
%TO.N,GND*%
X121030260Y-115119642D03*
D18*
%TO.P,Q2,2,B*%
%TO.N,Net-(Q2-B)*%
X122300260Y-115119642D03*
%TO.P,Q2,3,C*%
%TO.N,Net-(Q2-C)*%
X123570260Y-115119642D03*
%TD*%
D12*
%TO.P,J2,1,Pin_1*%
%TO.N,preamp_on*%
X60767500Y-110490000D03*
D13*
%TO.P,J2,2,Pin_2*%
%TO.N,att_on*%
X60767500Y-113030000D03*
%TO.P,J2,3,Pin_3*%
%TO.N,filter4*%
X60767500Y-115570000D03*
%TO.P,J2,4,Pin_4*%
%TO.N,filter3*%
X60767500Y-118110000D03*
%TO.P,J2,5,Pin_5*%
%TO.N,filter2*%
X60767500Y-120650000D03*
%TO.P,J2,6,Pin_6*%
%TO.N,filter1*%
X60767500Y-123190000D03*
%TO.P,J2,7,Pin_7*%
%TO.N,filter0*%
X60767500Y-125730000D03*
%TO.P,J2,8,Pin_8*%
%TO.N,GND*%
X58227500Y-125730000D03*
%TO.P,J2,9,Pin_9*%
X58227500Y-123190000D03*
%TO.P,J2,10,Pin_10*%
X58227500Y-120650000D03*
%TO.P,J2,11,Pin_11*%
X58227500Y-118110000D03*
%TO.P,J2,12,Pin_12*%
X58227500Y-115570000D03*
%TO.P,J2,13,Pin_13*%
X58227500Y-113030000D03*
%TO.P,J2,14,Pin_14*%
X58227500Y-110490000D03*
%TD*%
D12*
%TO.P,J3,1,Pin_1*%
%TO.N,start*%
X60772500Y-134615000D03*
D13*
%TO.P,J3,2,Pin_2*%
%TO.N,SPI_MISO*%
X60772500Y-137155000D03*
%TO.P,J3,3,Pin_3*%
%TO.N,SPI_MOSI*%
X60772500Y-139695000D03*
%TO.P,J3,4,Pin_4*%
%TO.N,SPI_SCK*%
X60772500Y-142235000D03*
%TO.P,J3,5,Pin_5*%
%TO.N,SPI_SS*%
X60772500Y-144775000D03*
%TO.P,J3,6,Pin_6*%
%TO.N,unconnected-(J3-Pin_6-Pad6)*%
X60772500Y-147315000D03*
%TO.P,J3,7,Pin_7*%
%TO.N,unconnected-(J3-Pin_7-Pad7)*%
X60772500Y-149855000D03*
%TO.P,J3,8,Pin_8*%
%TO.N,GND*%
X58232500Y-149855000D03*
%TO.P,J3,9,Pin_9*%
X58232500Y-147315000D03*
%TO.P,J3,10,Pin_10*%
X58232500Y-144775000D03*
%TO.P,J3,11,Pin_11*%
X58232500Y-142235000D03*
%TO.P,J3,12,Pin_12*%
X58232500Y-139695000D03*
%TO.P,J3,13,Pin_13*%
X58232500Y-137155000D03*
%TO.P,J3,14,Pin_14*%
X58232500Y-134615000D03*
%TD*%
D12*
%TO.P,J6,1,Pin_1*%
%TO.N,n_ptt*%
X60772500Y-85090000D03*
D13*
%TO.P,J6,2,Pin_2*%
%TO.N,n_cw_key*%
X60772500Y-87630000D03*
%TO.P,J6,3,Pin_3*%
%TO.N,n_tune*%
X60772500Y-90170000D03*
%TO.P,J6,4,Pin_4*%
%TO.N,button*%
X60772500Y-92710000D03*
%TO.P,J6,5,Pin_5*%
%TO.N,unconnected-(J6-Pin_5-Pad5)*%
X60772500Y-95250000D03*
%TO.P,J6,6,Pin_6*%
%TO.N,unconnected-(J6-Pin_6-Pad6)*%
X60772500Y-97790000D03*
%TO.P,J6,7,Pin_7*%
%TO.N,unconnected-(J6-Pin_7-Pad7)*%
X60772500Y-100330000D03*
%TO.P,J6,8,Pin_8*%
%TO.N,GND*%
X58232500Y-100330000D03*
%TO.P,J6,9,Pin_9*%
X58232500Y-97790000D03*
%TO.P,J6,10,Pin_10*%
X58232500Y-95250000D03*
%TO.P,J6,11,Pin_11*%
X58232500Y-92710000D03*
%TO.P,J6,12,Pin_12*%
X58232500Y-90170000D03*
%TO.P,J6,13,Pin_13*%
X58232500Y-87630000D03*
%TO.P,J6,14,Pin_14*%
X58232500Y-85090000D03*
%TD*%
D20*
%TO.N,GND*%
X129689418Y-128743267D03*
X135075387Y-128743267D03*
X132522405Y-131625667D03*
X141316523Y-130961825D03*
X136470402Y-132862298D03*
X129497302Y-125613805D03*
X111701158Y-119842481D03*
X84849351Y-106567991D03*
X77708167Y-118076510D03*
X131307125Y-97714227D03*
X151397812Y-98122160D03*
X145278821Y-98122160D03*
X110910489Y-97510260D03*
X149069039Y-81029668D03*
X132606939Y-80783759D03*
X119390831Y-80783759D03*
X103849412Y-80832941D03*
X86368267Y-80931304D03*
X67777583Y-80980486D03*
X95614428Y-97460292D03*
X85416109Y-96822897D03*
X79537912Y-97247827D03*
X76563402Y-92502776D03*
X71251778Y-92786063D03*
X62062341Y-104514916D03*
X56406445Y-104596885D03*
X56163983Y-130009754D03*
X60959199Y-130050739D03*
X75496681Y-153794105D03*
X64992413Y-154100055D03*
X112720543Y-154406004D03*
X102114292Y-154202038D03*
X112618560Y-141352157D03*
X98850830Y-141556123D03*
X143475924Y-158171670D03*
X135231609Y-144593320D03*
X135207232Y-152893312D03*
X121575057Y-152732599D03*
X128434311Y-151167209D03*
X123799118Y-137971803D03*
X145286195Y-138832437D03*
X140318843Y-138979983D03*
X125023332Y-130176457D03*
X125465968Y-118323667D03*
X133384222Y-124127108D03*
X136581033Y-119159755D03*
X146663283Y-123438564D03*
X131465595Y-108489546D03*
X75998043Y-124399982D03*
X146496389Y-108435865D03*
X151166672Y-129940638D03*
X150844584Y-158123378D03*
X101600000Y-125730000D03*
X151005628Y-108543228D03*
X138712585Y-108382184D03*
X135524157Y-141693326D03*
X116806275Y-157210794D03*
X116024326Y-119978808D03*
X110603948Y-127151158D03*
X151112991Y-139066478D03*
X106680000Y-121920000D03*
X104140000Y-121920000D03*
X104140000Y-130810000D03*
X135111636Y-158177060D03*
X124111241Y-108382184D03*
X151220354Y-123110215D03*
X135086415Y-156775528D03*
X116162098Y-144810389D03*
X116162098Y-150178530D03*
X151112991Y-115199723D03*
X116072341Y-136317342D03*
X117508428Y-108704272D03*
X116247998Y-127597095D03*
X125073212Y-158284423D03*
%TO.N,5VA*%
X105410000Y-127000000D03*
X105410000Y-121920000D03*
%TO.N,3V3*%
X102870000Y-123190000D03*
X92754489Y-100986609D03*
%TO.N,5VD*%
X70653117Y-146114522D03*
X70660072Y-109099742D03*
X70609768Y-128412716D03*
X124591697Y-141535268D03*
X146234272Y-118385136D03*
X70638667Y-123205606D03*
X77453693Y-101427677D03*
%TO.N,Net-(D1-Iout)*%
X80913306Y-154402329D03*
X75046934Y-127145640D03*
%TO.N,Net-(D1-_Iout)*%
X81050636Y-152105166D03*
X76441334Y-126480952D03*
%TO.N,att_on*%
X126557785Y-115226818D03*
%TO.N,preamp_on*%
X118731697Y-115900250D03*
%TO.N,3V*%
X74083972Y-130294154D03*
%TO.N,Net-(Q2-C)*%
X120778128Y-129874441D03*
%TO.N,Net-(K2-Pad2)*%
X126119407Y-143344160D03*
X118648781Y-143380961D03*
%TD*%
D21*
%TO.N,5VA*%
X105410000Y-121920000D02*
X105410000Y-127000000D01*
X105410000Y-107950000D02*
X100330000Y-102870000D01*
X105410000Y-121920000D02*
X105410000Y-107950000D01*
%TO.N,3V3*%
X92710000Y-113030000D02*
X102870000Y-123190000D01*
X92710000Y-101031098D02*
X92754489Y-100986609D01*
X92710000Y-113030000D02*
X92710000Y-101031098D01*
%TO.N,5VD*%
X107416068Y-97448570D02*
X100256292Y-97448570D01*
X70609768Y-123234505D02*
X70638667Y-123205606D01*
X100256292Y-97448570D02*
X100330000Y-97374862D01*
X83820000Y-88602667D02*
X83820000Y-86360000D01*
X68644522Y-146114522D02*
X68580000Y-146050000D01*
X124591697Y-141535268D02*
X125660848Y-141535268D01*
X100330000Y-97374862D02*
X100330000Y-92710000D01*
X77453693Y-101427677D02*
X77453693Y-94968974D01*
X107725272Y-97757774D02*
X107416068Y-97448570D01*
X70653117Y-128456065D02*
X70609768Y-128412716D01*
X107582966Y-97448570D02*
X107416068Y-97448570D01*
X81202213Y-91220455D02*
X81351263Y-91071405D01*
X107725272Y-107557044D02*
X107725272Y-97757774D01*
X118702047Y-135645618D02*
X118702047Y-118533819D01*
X70638667Y-109121147D02*
X70660072Y-109099742D01*
X70653117Y-146114522D02*
X70653117Y-128456065D01*
X81173067Y-91249600D02*
X81351263Y-91071405D01*
X100330000Y-92710000D02*
X88900000Y-92710000D01*
X88900000Y-92710000D02*
X83820000Y-87630000D01*
X70638667Y-123205606D02*
X70638667Y-109121147D01*
X70609768Y-128412716D02*
X70609768Y-123234505D01*
X83820000Y-87630000D02*
X83820000Y-86360000D01*
X77453693Y-94968974D02*
X81173067Y-91249600D01*
X124591697Y-141535268D02*
X118702047Y-135645618D01*
X146287953Y-118438817D02*
X146234272Y-118385136D01*
X81351263Y-91071405D02*
X83820000Y-88602667D01*
X118702047Y-118533819D02*
X107725272Y-107557044D01*
X146287953Y-120908163D02*
X146287953Y-118438817D01*
X125660848Y-141535268D02*
X146287953Y-120908163D01*
X70653117Y-146114522D02*
X68644522Y-146114522D01*
%TO.N,Net-(D1-Iout)*%
X75046934Y-148660159D02*
X80913306Y-154402329D01*
X80913306Y-154402329D02*
X80733481Y-154346706D01*
X75046934Y-127145640D02*
X75046934Y-148660159D01*
%TO.N,Net-(D1-_Iout)*%
X76441334Y-147542269D02*
X81004231Y-152105166D01*
X76441334Y-126480952D02*
X76441334Y-136953811D01*
X76441334Y-136953811D02*
X76441334Y-147542269D01*
X81050636Y-152105166D02*
X81050636Y-152151571D01*
X81004231Y-152105166D02*
X81050636Y-152105166D01*
X81050636Y-152151571D02*
X80926734Y-152027669D01*
%TO.N,att_on*%
X126529081Y-115198114D02*
X126557785Y-115226818D01*
X126529081Y-85358973D02*
X126555922Y-85385813D01*
X60767500Y-113030000D02*
X62923717Y-113030000D01*
X64983345Y-82272291D02*
X123442400Y-82272291D01*
X64983345Y-110970372D02*
X64983345Y-82272291D01*
X123442400Y-82272291D02*
X126529081Y-85358973D01*
X62923717Y-113030000D02*
X64983345Y-110970372D01*
X126529081Y-85358973D02*
X126529081Y-115198114D01*
%TO.N,preamp_on*%
X74505519Y-83786366D02*
X118018112Y-83786366D01*
X68580000Y-113030000D02*
X66455432Y-110905432D01*
X74505519Y-85538467D02*
X74505519Y-83786366D01*
X118018112Y-83786366D02*
X118613536Y-84381790D01*
X118613536Y-84381790D02*
X118613536Y-115782089D01*
X66507208Y-93536778D02*
X74505519Y-85538467D01*
X66455432Y-110905432D02*
X66455432Y-93821546D01*
X66507208Y-93821546D02*
X66507208Y-93536778D01*
X118613536Y-115782089D02*
X118731697Y-115900250D01*
X66455432Y-93821546D02*
X66507208Y-93821546D01*
%TO.N,3V*%
X68580000Y-107950000D02*
X71389205Y-107950000D01*
X71389205Y-107950000D02*
X74083972Y-110644767D01*
X74083972Y-110644767D02*
X74083972Y-130294154D01*
%TO.N,Net-(Q2-C)*%
X123570260Y-115119642D02*
X123570260Y-127082309D01*
X123570260Y-127082309D02*
X120778128Y-129874441D01*
%TO.N,Net-(K2-Pad2)*%
X118685582Y-143344160D02*
X126119407Y-143344160D01*
X118648781Y-143380961D02*
X118685582Y-143344160D01*
X126082606Y-143380961D02*
X126119407Y-143344160D01*
%TD*%
%TA.AperFunction,Conductor*%
%TO.N,GND*%
G36*
X69731186Y-144307632D02*
G01*
X69814755Y-144298965D01*
X69827508Y-144293528D01*
X69924658Y-144292520D01*
X70014799Y-144328766D01*
X70084207Y-144396748D01*
X70122315Y-144486117D01*
X70127617Y-144537226D01*
X70127617Y-145203145D01*
X70108663Y-145298433D01*
X70054687Y-145379215D01*
X69973905Y-145433191D01*
X69878617Y-145452145D01*
X69783329Y-145433191D01*
X69702547Y-145379215D01*
X69674648Y-145345965D01*
X69580050Y-145210865D01*
X69580049Y-145210864D01*
X69580047Y-145210861D01*
X69419139Y-145049953D01*
X69419135Y-145049950D01*
X69419134Y-145049949D01*
X69411922Y-145044899D01*
X69344741Y-144974715D01*
X69309531Y-144884165D01*
X69311654Y-144787033D01*
X69350786Y-144698107D01*
X69378379Y-144669083D01*
X69378797Y-144662351D01*
X68668584Y-143952138D01*
X68753694Y-143929333D01*
X68856306Y-143870090D01*
X68940090Y-143786306D01*
X68999333Y-143683694D01*
X69022138Y-143598584D01*
X69731186Y-144307632D01*
G37*
%TD.AperFunction*%
%TA.AperFunction,Conductor*%
G36*
X69932509Y-141573756D02*
G01*
X70021437Y-141612885D01*
X70088621Y-141683066D01*
X70123834Y-141773615D01*
X70127617Y-141816854D01*
X70127617Y-142482770D01*
X70108663Y-142578058D01*
X70054687Y-142658840D01*
X69973905Y-142712816D01*
X69878617Y-142731770D01*
X69835404Y-142723174D01*
X69731186Y-142712365D01*
X69022137Y-143421414D01*
X68999333Y-143336306D01*
X68940090Y-143233694D01*
X68856306Y-143149910D01*
X68753694Y-143090667D01*
X68668583Y-143067861D01*
X69378798Y-142357646D01*
X69378216Y-142348276D01*
X69338258Y-142302073D01*
X69307663Y-142209861D01*
X69314685Y-142112961D01*
X69358256Y-142026123D01*
X69411930Y-141975094D01*
X69419139Y-141970047D01*
X69580047Y-141809139D01*
X69646304Y-141714514D01*
X69674648Y-141674034D01*
X69744829Y-141606850D01*
X69835378Y-141571637D01*
X69932509Y-141573756D01*
G37*
%TD.AperFunction*%
%TA.AperFunction,Conductor*%
G36*
X58477500Y-125296988D02*
G01*
X58420493Y-125264075D01*
X58293326Y-125230000D01*
X58161674Y-125230000D01*
X58034507Y-125264075D01*
X57977500Y-125296988D01*
X57977500Y-123623012D01*
X58034507Y-123655925D01*
X58161674Y-123690000D01*
X58293326Y-123690000D01*
X58420493Y-123655925D01*
X58477500Y-123623012D01*
X58477500Y-125296988D01*
G37*
%TD.AperFunction*%
%TA.AperFunction,Conductor*%
G36*
X58477500Y-122756988D02*
G01*
X58420493Y-122724075D01*
X58293326Y-122690000D01*
X58161674Y-122690000D01*
X58034507Y-122724075D01*
X57977500Y-122756988D01*
X57977500Y-121083012D01*
X58034507Y-121115925D01*
X58161674Y-121150000D01*
X58293326Y-121150000D01*
X58420493Y-121115925D01*
X58477500Y-121083012D01*
X58477500Y-122756988D01*
G37*
%TD.AperFunction*%
%TA.AperFunction,Conductor*%
G36*
X58477500Y-120216988D02*
G01*
X58420493Y-120184075D01*
X58293326Y-120150000D01*
X58161674Y-120150000D01*
X58034507Y-120184075D01*
X57977500Y-120216988D01*
X57977500Y-118543012D01*
X58034507Y-118575925D01*
X58161674Y-118610000D01*
X58293326Y-118610000D01*
X58420493Y-118575925D01*
X58477500Y-118543012D01*
X58477500Y-120216988D01*
G37*
%TD.AperFunction*%
%TA.AperFunction,Conductor*%
G36*
X58477500Y-117676988D02*
G01*
X58420493Y-117644075D01*
X58293326Y-117610000D01*
X58161674Y-117610000D01*
X58034507Y-117644075D01*
X57977500Y-117676988D01*
X57977500Y-116003012D01*
X58034507Y-116035925D01*
X58161674Y-116070000D01*
X58293326Y-116070000D01*
X58420493Y-116035925D01*
X58477500Y-116003012D01*
X58477500Y-117676988D01*
G37*
%TD.AperFunction*%
%TA.AperFunction,Conductor*%
G36*
X58477500Y-115136988D02*
G01*
X58420493Y-115104075D01*
X58293326Y-115070000D01*
X58161674Y-115070000D01*
X58034507Y-115104075D01*
X57977500Y-115136988D01*
X57977500Y-113463012D01*
X58034507Y-113495925D01*
X58161674Y-113530000D01*
X58293326Y-113530000D01*
X58420493Y-113495925D01*
X58477500Y-113463012D01*
X58477500Y-115136988D01*
G37*
%TD.AperFunction*%
%TA.AperFunction,Conductor*%
G36*
X58477500Y-112596988D02*
G01*
X58420493Y-112564075D01*
X58293326Y-112530000D01*
X58161674Y-112530000D01*
X58034507Y-112564075D01*
X57977500Y-112596988D01*
X57977500Y-110923012D01*
X58034507Y-110955925D01*
X58161674Y-110990000D01*
X58293326Y-110990000D01*
X58420493Y-110955925D01*
X58477500Y-110923012D01*
X58477500Y-112596988D01*
G37*
%TD.AperFunction*%
%TA.AperFunction,Conductor*%
G36*
X69731186Y-111287632D02*
G01*
X69838481Y-111276505D01*
X69935216Y-111285529D01*
X70021135Y-111330884D01*
X70083156Y-111405667D01*
X70111839Y-111498491D01*
X70113167Y-111524177D01*
X70113167Y-112162508D01*
X70094213Y-112257796D01*
X70040237Y-112338578D01*
X69959455Y-112392554D01*
X69864167Y-112411508D01*
X69768879Y-112392554D01*
X69688097Y-112338578D01*
X69660198Y-112305329D01*
X69602637Y-112223123D01*
X69580047Y-112190861D01*
X69419139Y-112029953D01*
X69419135Y-112029950D01*
X69419134Y-112029949D01*
X69411922Y-112024899D01*
X69344741Y-111954715D01*
X69309531Y-111864165D01*
X69311654Y-111767033D01*
X69350786Y-111678107D01*
X69378379Y-111649083D01*
X69378797Y-111642351D01*
X68668585Y-110932137D01*
X68753694Y-110909333D01*
X68856306Y-110850090D01*
X68940090Y-110766306D01*
X68999333Y-110663694D01*
X69022138Y-110578584D01*
X69731186Y-111287632D01*
G37*
%TD.AperFunction*%
%TA.AperFunction,Conductor*%
G36*
X67325220Y-108490502D02*
G01*
X67406002Y-108544478D01*
X67445578Y-108596057D01*
X67449438Y-108602744D01*
X67579949Y-108789134D01*
X67579953Y-108789139D01*
X67740861Y-108950047D01*
X67740864Y-108950049D01*
X67748062Y-108955089D01*
X67815248Y-109025268D01*
X67850464Y-109115816D01*
X67848347Y-109212948D01*
X67809221Y-109301876D01*
X67781619Y-109330909D01*
X67781201Y-109337646D01*
X68491416Y-110047861D01*
X68406306Y-110070667D01*
X68303694Y-110129910D01*
X68219910Y-110213694D01*
X68160667Y-110316306D01*
X68137862Y-110401414D01*
X67428811Y-109692365D01*
X67423490Y-109692917D01*
X67370401Y-109747116D01*
X67281030Y-109785221D01*
X67183880Y-109786224D01*
X67093741Y-109749974D01*
X67024336Y-109681989D01*
X66986231Y-109592618D01*
X66980932Y-109541520D01*
X66980932Y-108720548D01*
X66999886Y-108625260D01*
X67053862Y-108544478D01*
X67134644Y-108490502D01*
X67229932Y-108471548D01*
X67325220Y-108490502D01*
G37*
%TD.AperFunction*%
%TA.AperFunction,Conductor*%
G36*
X69706108Y-109053526D02*
G01*
X69790079Y-109102393D01*
X69848958Y-109179674D01*
X69872693Y-109261155D01*
X69874702Y-109278988D01*
X69874703Y-109278995D01*
X69874704Y-109278997D01*
X69900594Y-109352987D01*
X69914175Y-109449185D01*
X69889909Y-109543260D01*
X69831488Y-109620888D01*
X69761203Y-109662348D01*
X69022137Y-110401414D01*
X68999333Y-110316306D01*
X68940090Y-110213694D01*
X68856306Y-110129910D01*
X68753694Y-110070667D01*
X68668583Y-110047861D01*
X69378798Y-109337646D01*
X69376738Y-109304466D01*
X69389750Y-109208186D01*
X69438617Y-109124215D01*
X69515898Y-109065336D01*
X69609828Y-109040514D01*
X69706108Y-109053526D01*
G37*
%TD.AperFunction*%
%TA.AperFunction,Conductor*%
G36*
X74368499Y-82816745D02*
G01*
X74449281Y-82870721D01*
X74503257Y-82951503D01*
X74522211Y-83046791D01*
X74503257Y-83142079D01*
X74449281Y-83222861D01*
X74368499Y-83276837D01*
X74337656Y-83287307D01*
X74302681Y-83296678D01*
X74182857Y-83365858D01*
X74085011Y-83463704D01*
X74015831Y-83583528D01*
X73980019Y-83717182D01*
X73980019Y-85217657D01*
X73961065Y-85312945D01*
X73907089Y-85393727D01*
X66184543Y-93116273D01*
X66184542Y-93116272D01*
X66086704Y-93214110D01*
X66086700Y-93214116D01*
X66017522Y-93333936D01*
X66017520Y-93333941D01*
X66009951Y-93362182D01*
X66009952Y-93362183D01*
X65998360Y-93405444D01*
X65955389Y-93492580D01*
X65882344Y-93556638D01*
X65790345Y-93587867D01*
X65693398Y-93581512D01*
X65606262Y-93538541D01*
X65542204Y-93465496D01*
X65510975Y-93373497D01*
X65508845Y-93340997D01*
X65508845Y-84567235D01*
X66080344Y-84567235D01*
X66080345Y-84567237D01*
X66977969Y-84567237D01*
X66945056Y-84624244D01*
X66910981Y-84751411D01*
X66910981Y-84883063D01*
X66945056Y-85010230D01*
X66977969Y-85067237D01*
X66080345Y-85067237D01*
X66080344Y-85067238D01*
X66137547Y-85280720D01*
X66137547Y-85280722D01*
X66237380Y-85494813D01*
X66372870Y-85688313D01*
X66539904Y-85855347D01*
X66733404Y-85990837D01*
X66947492Y-86090668D01*
X67160981Y-86147872D01*
X67160981Y-85250249D01*
X67217988Y-85283162D01*
X67345155Y-85317237D01*
X67476807Y-85317237D01*
X67603974Y-85283162D01*
X67660981Y-85250249D01*
X67660981Y-86147872D01*
X67874469Y-86090668D01*
X68088557Y-85990837D01*
X68282060Y-85855345D01*
X68347945Y-85789460D01*
X68428726Y-85735483D01*
X68524014Y-85716528D01*
X68619303Y-85735481D01*
X68700084Y-85789457D01*
X68745875Y-85852482D01*
X68772927Y-85905573D01*
X68772929Y-85905576D01*
X68772931Y-85905579D01*
X68862639Y-85995287D01*
X68862641Y-85995288D01*
X68975677Y-86052883D01*
X68975681Y-86052884D01*
X69049443Y-86064566D01*
X69069462Y-86067737D01*
X70832499Y-86067736D01*
X70926285Y-86052883D01*
X71039323Y-85995287D01*
X71129031Y-85905579D01*
X71186627Y-85792541D01*
X71187116Y-85789457D01*
X71201479Y-85698767D01*
X71201481Y-85698756D01*
X71201480Y-83935719D01*
X71186627Y-83841933D01*
X71129031Y-83728895D01*
X71039323Y-83639187D01*
X71039320Y-83639185D01*
X70926284Y-83581590D01*
X70926280Y-83581589D01*
X70832511Y-83566738D01*
X70832503Y-83566737D01*
X70832500Y-83566737D01*
X70832495Y-83566737D01*
X69069465Y-83566737D01*
X68975676Y-83581591D01*
X68862640Y-83639186D01*
X68772929Y-83728897D01*
X68745878Y-83781989D01*
X68685730Y-83858287D01*
X68600962Y-83905759D01*
X68504481Y-83917178D01*
X68410974Y-83890807D01*
X68347947Y-83845016D01*
X68282057Y-83779126D01*
X68088557Y-83643636D01*
X67874465Y-83543803D01*
X67660982Y-83486600D01*
X67660981Y-83486601D01*
X67660981Y-84384225D01*
X67603974Y-84351312D01*
X67476807Y-84317237D01*
X67345155Y-84317237D01*
X67217988Y-84351312D01*
X67160981Y-84384225D01*
X67160981Y-83486601D01*
X67160979Y-83486600D01*
X66947497Y-83543803D01*
X66947486Y-83543807D01*
X66733409Y-83643633D01*
X66733401Y-83643637D01*
X66539904Y-83779126D01*
X66372870Y-83946160D01*
X66237381Y-84139657D01*
X66237377Y-84139665D01*
X66137551Y-84353742D01*
X66137547Y-84353753D01*
X66080344Y-84567235D01*
X65508845Y-84567235D01*
X65508845Y-83046791D01*
X65527799Y-82951503D01*
X65581775Y-82870721D01*
X65662557Y-82816745D01*
X65757845Y-82797791D01*
X74273211Y-82797791D01*
X74368499Y-82816745D01*
G37*
%TD.AperFunction*%
%TA.AperFunction,Conductor*%
G36*
X58482500Y-149421988D02*
G01*
X58425493Y-149389075D01*
X58298326Y-149355000D01*
X58166674Y-149355000D01*
X58039507Y-149389075D01*
X57982500Y-149421988D01*
X57982500Y-147748012D01*
X58039507Y-147780925D01*
X58166674Y-147815000D01*
X58298326Y-147815000D01*
X58425493Y-147780925D01*
X58482500Y-147748012D01*
X58482500Y-149421988D01*
G37*
%TD.AperFunction*%
%TA.AperFunction,Conductor*%
G36*
X58482500Y-146881988D02*
G01*
X58425493Y-146849075D01*
X58298326Y-146815000D01*
X58166674Y-146815000D01*
X58039507Y-146849075D01*
X57982500Y-146881988D01*
X57982500Y-145208012D01*
X58039507Y-145240925D01*
X58166674Y-145275000D01*
X58298326Y-145275000D01*
X58425493Y-145240925D01*
X58482500Y-145208012D01*
X58482500Y-146881988D01*
G37*
%TD.AperFunction*%
%TA.AperFunction,Conductor*%
G36*
X58482500Y-144341988D02*
G01*
X58425493Y-144309075D01*
X58298326Y-144275000D01*
X58166674Y-144275000D01*
X58039507Y-144309075D01*
X57982500Y-144341988D01*
X57982500Y-142668012D01*
X58039507Y-142700925D01*
X58166674Y-142735000D01*
X58298326Y-142735000D01*
X58425493Y-142700925D01*
X58482500Y-142668012D01*
X58482500Y-144341988D01*
G37*
%TD.AperFunction*%
%TA.AperFunction,Conductor*%
G36*
X58482500Y-141801988D02*
G01*
X58425493Y-141769075D01*
X58298326Y-141735000D01*
X58166674Y-141735000D01*
X58039507Y-141769075D01*
X57982500Y-141801988D01*
X57982500Y-140128012D01*
X58039507Y-140160925D01*
X58166674Y-140195000D01*
X58298326Y-140195000D01*
X58425493Y-140160925D01*
X58482500Y-140128012D01*
X58482500Y-141801988D01*
G37*
%TD.AperFunction*%
%TA.AperFunction,Conductor*%
G36*
X58482500Y-139261988D02*
G01*
X58425493Y-139229075D01*
X58298326Y-139195000D01*
X58166674Y-139195000D01*
X58039507Y-139229075D01*
X57982500Y-139261988D01*
X57982500Y-137588012D01*
X58039507Y-137620925D01*
X58166674Y-137655000D01*
X58298326Y-137655000D01*
X58425493Y-137620925D01*
X58482500Y-137588012D01*
X58482500Y-139261988D01*
G37*
%TD.AperFunction*%
%TA.AperFunction,Conductor*%
G36*
X58482500Y-136721988D02*
G01*
X58425493Y-136689075D01*
X58298326Y-136655000D01*
X58166674Y-136655000D01*
X58039507Y-136689075D01*
X57982500Y-136721988D01*
X57982500Y-135048012D01*
X58039507Y-135080925D01*
X58166674Y-135115000D01*
X58298326Y-135115000D01*
X58425493Y-135080925D01*
X58482500Y-135048012D01*
X58482500Y-136721988D01*
G37*
%TD.AperFunction*%
%TA.AperFunction,Conductor*%
G36*
X58482500Y-99896988D02*
G01*
X58425493Y-99864075D01*
X58298326Y-99830000D01*
X58166674Y-99830000D01*
X58039507Y-99864075D01*
X57982500Y-99896988D01*
X57982500Y-98223012D01*
X58039507Y-98255925D01*
X58166674Y-98290000D01*
X58298326Y-98290000D01*
X58425493Y-98255925D01*
X58482500Y-98223012D01*
X58482500Y-99896988D01*
G37*
%TD.AperFunction*%
%TA.AperFunction,Conductor*%
G36*
X58482500Y-97356988D02*
G01*
X58425493Y-97324075D01*
X58298326Y-97290000D01*
X58166674Y-97290000D01*
X58039507Y-97324075D01*
X57982500Y-97356988D01*
X57982500Y-95683012D01*
X58039507Y-95715925D01*
X58166674Y-95750000D01*
X58298326Y-95750000D01*
X58425493Y-95715925D01*
X58482500Y-95683012D01*
X58482500Y-97356988D01*
G37*
%TD.AperFunction*%
%TA.AperFunction,Conductor*%
G36*
X58482500Y-94816988D02*
G01*
X58425493Y-94784075D01*
X58298326Y-94750000D01*
X58166674Y-94750000D01*
X58039507Y-94784075D01*
X57982500Y-94816988D01*
X57982500Y-93143012D01*
X58039507Y-93175925D01*
X58166674Y-93210000D01*
X58298326Y-93210000D01*
X58425493Y-93175925D01*
X58482500Y-93143012D01*
X58482500Y-94816988D01*
G37*
%TD.AperFunction*%
%TA.AperFunction,Conductor*%
G36*
X58482500Y-92276988D02*
G01*
X58425493Y-92244075D01*
X58298326Y-92210000D01*
X58166674Y-92210000D01*
X58039507Y-92244075D01*
X57982500Y-92276988D01*
X57982500Y-90603012D01*
X58039507Y-90635925D01*
X58166674Y-90670000D01*
X58298326Y-90670000D01*
X58425493Y-90635925D01*
X58482500Y-90603012D01*
X58482500Y-92276988D01*
G37*
%TD.AperFunction*%
%TA.AperFunction,Conductor*%
G36*
X58482500Y-89736988D02*
G01*
X58425493Y-89704075D01*
X58298326Y-89670000D01*
X58166674Y-89670000D01*
X58039507Y-89704075D01*
X57982500Y-89736988D01*
X57982500Y-88063012D01*
X58039507Y-88095925D01*
X58166674Y-88130000D01*
X58298326Y-88130000D01*
X58425493Y-88095925D01*
X58482500Y-88063012D01*
X58482500Y-89736988D01*
G37*
%TD.AperFunction*%
%TA.AperFunction,Conductor*%
G36*
X58482500Y-87196988D02*
G01*
X58425493Y-87164075D01*
X58298326Y-87130000D01*
X58166674Y-87130000D01*
X58039507Y-87164075D01*
X57982500Y-87196988D01*
X57982500Y-85523012D01*
X58039507Y-85555925D01*
X58166674Y-85590000D01*
X58298326Y-85590000D01*
X58425493Y-85555925D01*
X58482500Y-85523012D01*
X58482500Y-87196988D01*
G37*
%TD.AperFunction*%
%TA.AperFunction,Conductor*%
G36*
X152097602Y-79932487D02*
G01*
X152178384Y-79986463D01*
X152232360Y-80067245D01*
X152251314Y-80162533D01*
X152251314Y-80162539D01*
X152250066Y-134214901D01*
X152249542Y-156935990D01*
X152249509Y-158344097D01*
X152230553Y-158439384D01*
X152176575Y-158520165D01*
X152095792Y-158574139D01*
X152000509Y-158593091D01*
X55009509Y-158593091D01*
X54914221Y-158574137D01*
X54833439Y-158520161D01*
X54779463Y-158439379D01*
X54760509Y-158344091D01*
X54760509Y-158344085D01*
X54760577Y-155412557D01*
X94515469Y-155412557D01*
X94515470Y-155412559D01*
X95413094Y-155412559D01*
X95380181Y-155469566D01*
X95346106Y-155596733D01*
X95346106Y-155728385D01*
X95380181Y-155855552D01*
X95413094Y-155912559D01*
X94515470Y-155912559D01*
X94515469Y-155912560D01*
X94572672Y-156126042D01*
X94572672Y-156126044D01*
X94672505Y-156340135D01*
X94807995Y-156533635D01*
X94975029Y-156700669D01*
X95168529Y-156836159D01*
X95382617Y-156935990D01*
X95596106Y-156993194D01*
X95596106Y-156095571D01*
X95653113Y-156128484D01*
X95780280Y-156162559D01*
X95911932Y-156162559D01*
X96039099Y-156128484D01*
X96096106Y-156095571D01*
X96096106Y-156993194D01*
X96309594Y-156935990D01*
X96523682Y-156836159D01*
X96717185Y-156700667D01*
X96783070Y-156634782D01*
X96863851Y-156580805D01*
X96959139Y-156561850D01*
X97054428Y-156580803D01*
X97135209Y-156634779D01*
X97181000Y-156697804D01*
X97208052Y-156750895D01*
X97208054Y-156750898D01*
X97208056Y-156750901D01*
X97297764Y-156840609D01*
X97297766Y-156840610D01*
X97410802Y-156898205D01*
X97410806Y-156898206D01*
X97484568Y-156909888D01*
X97504587Y-156913059D01*
X99267624Y-156913058D01*
X99361410Y-156898205D01*
X99474448Y-156840609D01*
X99564156Y-156750901D01*
X99621752Y-156637863D01*
X99622241Y-156634779D01*
X99636604Y-156544089D01*
X99636606Y-156544078D01*
X99636605Y-154781041D01*
X99621752Y-154687255D01*
X99564156Y-154574217D01*
X99474448Y-154484509D01*
X99474445Y-154484507D01*
X99361409Y-154426912D01*
X99361405Y-154426911D01*
X99267636Y-154412060D01*
X99267628Y-154412059D01*
X99267625Y-154412059D01*
X99267620Y-154412059D01*
X97504590Y-154412059D01*
X97410801Y-154426913D01*
X97297765Y-154484508D01*
X97208054Y-154574219D01*
X97181003Y-154627311D01*
X97120855Y-154703609D01*
X97036087Y-154751081D01*
X96939606Y-154762500D01*
X96846099Y-154736129D01*
X96783072Y-154690338D01*
X96717182Y-154624448D01*
X96523682Y-154488958D01*
X96309590Y-154389125D01*
X96096107Y-154331922D01*
X96096106Y-154331923D01*
X96096106Y-155229547D01*
X96039099Y-155196634D01*
X95911932Y-155162559D01*
X95780280Y-155162559D01*
X95653113Y-155196634D01*
X95596106Y-155229547D01*
X95596106Y-154331923D01*
X95596104Y-154331922D01*
X95382622Y-154389125D01*
X95382611Y-154389129D01*
X95168534Y-154488955D01*
X95168526Y-154488959D01*
X94975029Y-154624448D01*
X94807995Y-154791482D01*
X94672506Y-154984979D01*
X94672502Y-154984987D01*
X94572676Y-155199064D01*
X94572672Y-155199075D01*
X94515469Y-155412557D01*
X54760577Y-155412557D01*
X54761063Y-134364998D01*
X56901863Y-134364998D01*
X56901864Y-134365000D01*
X57799488Y-134365000D01*
X57766575Y-134422007D01*
X57732500Y-134549174D01*
X57732500Y-134680826D01*
X57766575Y-134807993D01*
X57799488Y-134865000D01*
X56901864Y-134865000D01*
X56901863Y-134865001D01*
X56959066Y-135078483D01*
X56959066Y-135078485D01*
X57058899Y-135292576D01*
X57194389Y-135486076D01*
X57361423Y-135653110D01*
X57401298Y-135681031D01*
X57468482Y-135751213D01*
X57503694Y-135841762D01*
X57501575Y-135938894D01*
X57462446Y-136027821D01*
X57401298Y-136088969D01*
X57361423Y-136116889D01*
X57194389Y-136283923D01*
X57058900Y-136477420D01*
X57058896Y-136477428D01*
X56959070Y-136691505D01*
X56959066Y-136691516D01*
X56901863Y-136904998D01*
X56901864Y-136905000D01*
X57799488Y-136905000D01*
X57766575Y-136962007D01*
X57732500Y-137089174D01*
X57732500Y-137220826D01*
X57766575Y-137347993D01*
X57799488Y-137405000D01*
X56901864Y-137405000D01*
X56901863Y-137405001D01*
X56959066Y-137618483D01*
X56959066Y-137618485D01*
X57058899Y-137832576D01*
X57194389Y-138026076D01*
X57361423Y-138193110D01*
X57401298Y-138221031D01*
X57468482Y-138291213D01*
X57503694Y-138381762D01*
X57501575Y-138478894D01*
X57462446Y-138567821D01*
X57401298Y-138628969D01*
X57361423Y-138656889D01*
X57194389Y-138823923D01*
X57058900Y-139017420D01*
X57058896Y-139017428D01*
X56959070Y-139231505D01*
X56959066Y-139231516D01*
X56901863Y-139444998D01*
X56901864Y-139445000D01*
X57799488Y-139445000D01*
X57766575Y-139502007D01*
X57732500Y-139629174D01*
X57732500Y-139760826D01*
X57766575Y-139887993D01*
X57799488Y-139945000D01*
X56901864Y-139945000D01*
X56901863Y-139945001D01*
X56959066Y-140158483D01*
X56959066Y-140158485D01*
X57058899Y-140372576D01*
X57194389Y-140566076D01*
X57361423Y-140733110D01*
X57401298Y-140761031D01*
X57468482Y-140831213D01*
X57503694Y-140921762D01*
X57501575Y-141018894D01*
X57462446Y-141107821D01*
X57401298Y-141168969D01*
X57361423Y-141196889D01*
X57194389Y-141363923D01*
X57058900Y-141557420D01*
X57058896Y-141557428D01*
X56959070Y-141771505D01*
X56959066Y-141771516D01*
X56901863Y-141984998D01*
X56901864Y-141985000D01*
X57799488Y-141985000D01*
X57766575Y-142042007D01*
X57732500Y-142169174D01*
X57732500Y-142300826D01*
X57766575Y-142427993D01*
X57799488Y-142485000D01*
X56901864Y-142485000D01*
X56901863Y-142485001D01*
X56959066Y-142698483D01*
X56959066Y-142698485D01*
X57058899Y-142912576D01*
X57194389Y-143106076D01*
X57361423Y-143273110D01*
X57401298Y-143301031D01*
X57468482Y-143371213D01*
X57503694Y-143461762D01*
X57501575Y-143558894D01*
X57462446Y-143647821D01*
X57401298Y-143708969D01*
X57361423Y-143736889D01*
X57194389Y-143903923D01*
X57058900Y-144097420D01*
X57058896Y-144097428D01*
X56959070Y-144311505D01*
X56959066Y-144311516D01*
X56901863Y-144524998D01*
X56901864Y-144525000D01*
X57799488Y-144525000D01*
X57766575Y-144582007D01*
X57732500Y-144709174D01*
X57732500Y-144840826D01*
X57766575Y-144967993D01*
X57799488Y-145025000D01*
X56901864Y-145025000D01*
X56901863Y-145025001D01*
X56959066Y-145238483D01*
X56959066Y-145238485D01*
X57058899Y-145452576D01*
X57194389Y-145646076D01*
X57361423Y-145813110D01*
X57401298Y-145841031D01*
X57468482Y-145911213D01*
X57503694Y-146001762D01*
X57501575Y-146098894D01*
X57462446Y-146187821D01*
X57401298Y-146248969D01*
X57361423Y-146276889D01*
X57194389Y-146443923D01*
X57058900Y-146637420D01*
X57058896Y-146637428D01*
X56959070Y-146851505D01*
X56959066Y-146851516D01*
X56901863Y-147064998D01*
X56901864Y-147065000D01*
X57799488Y-147065000D01*
X57766575Y-147122007D01*
X57732500Y-147249174D01*
X57732500Y-147380826D01*
X57766575Y-147507993D01*
X57799488Y-147565000D01*
X56901864Y-147565000D01*
X56901863Y-147565001D01*
X56959066Y-147778483D01*
X56959066Y-147778485D01*
X57058899Y-147992576D01*
X57194389Y-148186076D01*
X57361423Y-148353110D01*
X57401298Y-148381031D01*
X57468482Y-148451213D01*
X57503694Y-148541762D01*
X57501575Y-148638894D01*
X57462446Y-148727821D01*
X57401298Y-148788969D01*
X57361423Y-148816889D01*
X57194389Y-148983923D01*
X57058900Y-149177420D01*
X57058896Y-149177428D01*
X56959070Y-149391505D01*
X56959066Y-149391516D01*
X56901863Y-149604998D01*
X56901864Y-149605000D01*
X57799488Y-149605000D01*
X57766575Y-149662007D01*
X57732500Y-149789174D01*
X57732500Y-149920826D01*
X57766575Y-150047993D01*
X57799488Y-150105000D01*
X56901864Y-150105000D01*
X56901863Y-150105001D01*
X56959066Y-150318483D01*
X56959066Y-150318485D01*
X57058899Y-150532576D01*
X57194389Y-150726076D01*
X57361423Y-150893110D01*
X57554923Y-151028600D01*
X57769011Y-151128431D01*
X57982500Y-151185635D01*
X57982500Y-150288012D01*
X58039507Y-150320925D01*
X58166674Y-150355000D01*
X58298326Y-150355000D01*
X58425493Y-150320925D01*
X58482500Y-150288012D01*
X58482500Y-151185635D01*
X58695988Y-151128431D01*
X58910076Y-151028600D01*
X59103576Y-150893110D01*
X59270610Y-150726076D01*
X59359264Y-150599466D01*
X59429445Y-150532283D01*
X59519995Y-150497070D01*
X59617126Y-150499189D01*
X59706054Y-150538318D01*
X59767199Y-150599463D01*
X59810902Y-150661877D01*
X59965623Y-150816598D01*
X60144861Y-150942102D01*
X60343170Y-151034575D01*
X60554523Y-151091207D01*
X60772500Y-151110277D01*
X60990477Y-151091207D01*
X61201830Y-151034575D01*
X61400139Y-150942102D01*
X61579377Y-150816598D01*
X61734098Y-150661877D01*
X61859602Y-150482639D01*
X61952075Y-150284330D01*
X62008707Y-150072977D01*
X62027777Y-149855000D01*
X62008707Y-149637023D01*
X61952075Y-149425670D01*
X61859602Y-149227362D01*
X61734098Y-149048123D01*
X61579377Y-148893402D01*
X61430229Y-148788967D01*
X61363047Y-148718788D01*
X61327834Y-148628239D01*
X61329953Y-148531107D01*
X61369082Y-148442180D01*
X61430231Y-148381031D01*
X61579377Y-148276598D01*
X61734098Y-148121877D01*
X61859602Y-147942639D01*
X61952075Y-147744330D01*
X62008707Y-147532977D01*
X62027777Y-147315000D01*
X62008707Y-147097023D01*
X61952075Y-146885670D01*
X61886172Y-146744341D01*
X61859605Y-146687368D01*
X61859601Y-146687360D01*
X61777798Y-146570534D01*
X61734098Y-146508123D01*
X61579377Y-146353402D01*
X61430229Y-146248967D01*
X61363047Y-146178788D01*
X61327834Y-146088239D01*
X61329953Y-145991107D01*
X61369082Y-145902180D01*
X61430231Y-145841031D01*
X61579377Y-145736598D01*
X61734098Y-145581877D01*
X61859602Y-145402639D01*
X61952075Y-145204330D01*
X62008707Y-144992977D01*
X62027777Y-144775000D01*
X62008707Y-144557023D01*
X61952075Y-144345670D01*
X61877865Y-144186526D01*
X61859605Y-144147368D01*
X61859601Y-144147360D01*
X61777798Y-144030534D01*
X61734098Y-143968123D01*
X61579377Y-143813402D01*
X61430229Y-143708967D01*
X61363047Y-143638788D01*
X61327834Y-143548239D01*
X61329953Y-143451107D01*
X61369082Y-143362180D01*
X61430231Y-143301031D01*
X61579377Y-143196598D01*
X61734098Y-143041877D01*
X61859602Y-142862639D01*
X61952075Y-142664330D01*
X62008707Y-142452977D01*
X62027777Y-142235000D01*
X62008707Y-142017023D01*
X61952075Y-141805670D01*
X61890692Y-141674034D01*
X61859605Y-141607368D01*
X61859601Y-141607360D01*
X61777798Y-141490534D01*
X61734098Y-141428123D01*
X61579377Y-141273402D01*
X61430229Y-141168967D01*
X61363047Y-141098788D01*
X61327834Y-141008239D01*
X61329953Y-140911107D01*
X61369082Y-140822180D01*
X61430231Y-140761031D01*
X61579377Y-140656598D01*
X61734098Y-140501877D01*
X61859602Y-140322639D01*
X61952075Y-140124330D01*
X62008707Y-139912977D01*
X62027777Y-139695000D01*
X62008707Y-139477023D01*
X61952075Y-139265670D01*
X61890692Y-139134034D01*
X61859605Y-139067368D01*
X61859601Y-139067360D01*
X61777798Y-138950534D01*
X61734098Y-138888123D01*
X61579377Y-138733402D01*
X61430229Y-138628967D01*
X61363047Y-138558788D01*
X61327834Y-138468239D01*
X61329953Y-138371107D01*
X61369082Y-138282180D01*
X61430231Y-138221031D01*
X61579377Y-138116598D01*
X61734098Y-137961877D01*
X61859602Y-137782639D01*
X61952075Y-137584330D01*
X62008707Y-137372977D01*
X62027777Y-137155000D01*
X62008707Y-136937023D01*
X61952075Y-136725670D01*
X61890692Y-136594034D01*
X61859605Y-136527368D01*
X61859601Y-136527360D01*
X61777798Y-136410534D01*
X61734098Y-136348123D01*
X61649297Y-136263322D01*
X61595324Y-136182544D01*
X61576370Y-136087256D01*
X61595324Y-135991968D01*
X61649300Y-135911186D01*
X61730082Y-135857210D01*
X61747610Y-135850744D01*
X61747801Y-135850646D01*
X61747804Y-135850646D01*
X61860842Y-135793050D01*
X61950550Y-135703342D01*
X62008146Y-135590304D01*
X62008635Y-135587220D01*
X62022998Y-135496530D01*
X62023000Y-135496519D01*
X62022999Y-133733482D01*
X62008146Y-133639696D01*
X61950550Y-133526658D01*
X61860842Y-133436950D01*
X61860839Y-133436948D01*
X61747803Y-133379353D01*
X61747799Y-133379352D01*
X61654030Y-133364501D01*
X61654022Y-133364500D01*
X61654019Y-133364500D01*
X61654014Y-133364500D01*
X59890984Y-133364500D01*
X59797195Y-133379354D01*
X59684159Y-133436949D01*
X59594448Y-133526660D01*
X59567397Y-133579752D01*
X59507249Y-133656050D01*
X59422481Y-133703522D01*
X59326000Y-133714941D01*
X59232493Y-133688570D01*
X59169466Y-133642779D01*
X59103576Y-133576889D01*
X58910076Y-133441399D01*
X58695984Y-133341566D01*
X58482501Y-133284363D01*
X58482500Y-133284364D01*
X58482500Y-134181988D01*
X58425493Y-134149075D01*
X58298326Y-134115000D01*
X58166674Y-134115000D01*
X58039507Y-134149075D01*
X57982500Y-134181988D01*
X57982500Y-133284364D01*
X57982498Y-133284363D01*
X57769016Y-133341566D01*
X57769005Y-133341570D01*
X57554928Y-133441396D01*
X57554920Y-133441400D01*
X57361423Y-133576889D01*
X57194389Y-133743923D01*
X57058900Y-133937420D01*
X57058896Y-133937428D01*
X56959070Y-134151505D01*
X56959066Y-134151516D01*
X56901863Y-134364998D01*
X54761063Y-134364998D01*
X54761066Y-134214901D01*
X54761620Y-110239998D01*
X56896863Y-110239998D01*
X56896864Y-110240000D01*
X57794488Y-110240000D01*
X57761575Y-110297007D01*
X57727500Y-110424174D01*
X57727500Y-110555826D01*
X57761575Y-110682993D01*
X57794488Y-110740000D01*
X56896864Y-110740000D01*
X56896863Y-110740001D01*
X56954066Y-110953483D01*
X56954066Y-110953485D01*
X57053899Y-111167576D01*
X57189389Y-111361076D01*
X57356423Y-111528110D01*
X57396298Y-111556031D01*
X57463482Y-111626213D01*
X57498694Y-111716762D01*
X57496575Y-111813894D01*
X57457446Y-111902821D01*
X57396298Y-111963969D01*
X57356423Y-111991889D01*
X57189389Y-112158923D01*
X57053900Y-112352420D01*
X57053896Y-112352428D01*
X56954070Y-112566505D01*
X56954066Y-112566516D01*
X56896863Y-112779998D01*
X56896864Y-112780000D01*
X57794488Y-112780000D01*
X57761575Y-112837007D01*
X57727500Y-112964174D01*
X57727500Y-113095826D01*
X57761575Y-113222993D01*
X57794488Y-113280000D01*
X56896864Y-113280000D01*
X56896863Y-113280001D01*
X56954066Y-113493483D01*
X56954066Y-113493485D01*
X57053899Y-113707576D01*
X57189389Y-113901076D01*
X57356423Y-114068110D01*
X57396298Y-114096031D01*
X57463482Y-114166213D01*
X57498694Y-114256762D01*
X57496575Y-114353894D01*
X57457446Y-114442821D01*
X57396298Y-114503969D01*
X57356423Y-114531889D01*
X57189389Y-114698923D01*
X57053900Y-114892420D01*
X57053896Y-114892428D01*
X56954070Y-115106505D01*
X56954066Y-115106516D01*
X56896863Y-115319998D01*
X56896864Y-115320000D01*
X57794488Y-115320000D01*
X57761575Y-115377007D01*
X57727500Y-115504174D01*
X57727500Y-115635826D01*
X57761575Y-115762993D01*
X57794488Y-115820000D01*
X56896864Y-115820000D01*
X56896863Y-115820001D01*
X56954066Y-116033483D01*
X56954066Y-116033485D01*
X57053899Y-116247576D01*
X57189389Y-116441076D01*
X57356423Y-116608110D01*
X57396298Y-116636031D01*
X57463482Y-116706213D01*
X57498694Y-116796762D01*
X57496575Y-116893894D01*
X57457446Y-116982821D01*
X57396298Y-117043969D01*
X57356423Y-117071889D01*
X57189389Y-117238923D01*
X57053900Y-117432420D01*
X57053896Y-117432428D01*
X56954070Y-117646505D01*
X56954066Y-117646516D01*
X56896863Y-117859998D01*
X56896864Y-117860000D01*
X57794488Y-117860000D01*
X57761575Y-117917007D01*
X57727500Y-118044174D01*
X57727500Y-118175826D01*
X57761575Y-118302993D01*
X57794488Y-118360000D01*
X56896864Y-118360000D01*
X56896863Y-118360001D01*
X56954066Y-118573483D01*
X56954066Y-118573485D01*
X57053899Y-118787576D01*
X57189389Y-118981076D01*
X57356423Y-119148110D01*
X57396298Y-119176031D01*
X57463482Y-119246213D01*
X57498694Y-119336762D01*
X57496575Y-119433894D01*
X57457446Y-119522821D01*
X57396298Y-119583969D01*
X57356423Y-119611889D01*
X57189389Y-119778923D01*
X57053900Y-119972420D01*
X57053896Y-119972428D01*
X56954070Y-120186505D01*
X56954066Y-120186516D01*
X56896863Y-120399998D01*
X56896864Y-120400000D01*
X57794488Y-120400000D01*
X57761575Y-120457007D01*
X57727500Y-120584174D01*
X57727500Y-120715826D01*
X57761575Y-120842993D01*
X57794488Y-120900000D01*
X56896864Y-120900000D01*
X56896863Y-120900001D01*
X56954066Y-121113483D01*
X56954066Y-121113485D01*
X57053899Y-121327576D01*
X57189389Y-121521076D01*
X57356423Y-121688110D01*
X57396298Y-121716031D01*
X57463482Y-121786213D01*
X57498694Y-121876762D01*
X57496575Y-121973894D01*
X57457446Y-122062821D01*
X57396298Y-122123969D01*
X57356423Y-122151889D01*
X57189389Y-122318923D01*
X57053900Y-122512420D01*
X57053896Y-122512428D01*
X56954070Y-122726505D01*
X56954066Y-122726516D01*
X56896863Y-122939998D01*
X56896864Y-122940000D01*
X57794488Y-122940000D01*
X57761575Y-122997007D01*
X57727500Y-123124174D01*
X57727500Y-123255826D01*
X57761575Y-123382993D01*
X57794488Y-123440000D01*
X56896864Y-123440000D01*
X56896863Y-123440001D01*
X56954066Y-123653483D01*
X56954066Y-123653485D01*
X57053899Y-123867576D01*
X57189389Y-124061076D01*
X57356423Y-124228110D01*
X57396298Y-124256031D01*
X57463482Y-124326213D01*
X57498694Y-124416762D01*
X57496575Y-124513894D01*
X57457446Y-124602821D01*
X57396298Y-124663969D01*
X57356423Y-124691889D01*
X57189389Y-124858923D01*
X57053900Y-125052420D01*
X57053896Y-125052428D01*
X56954070Y-125266505D01*
X56954066Y-125266516D01*
X56896863Y-125479998D01*
X56896864Y-125480000D01*
X57794488Y-125480000D01*
X57761575Y-125537007D01*
X57727500Y-125664174D01*
X57727500Y-125795826D01*
X57761575Y-125922993D01*
X57794488Y-125980000D01*
X56896864Y-125980000D01*
X56896863Y-125980001D01*
X56954066Y-126193483D01*
X56954066Y-126193485D01*
X57053899Y-126407576D01*
X57189389Y-126601076D01*
X57356423Y-126768110D01*
X57549923Y-126903600D01*
X57764011Y-127003431D01*
X57977500Y-127060635D01*
X57977500Y-126163012D01*
X58034507Y-126195925D01*
X58161674Y-126230000D01*
X58293326Y-126230000D01*
X58420493Y-126195925D01*
X58477500Y-126163012D01*
X58477500Y-127060635D01*
X58690988Y-127003431D01*
X58905076Y-126903600D01*
X59098576Y-126768110D01*
X59265610Y-126601076D01*
X59354264Y-126474466D01*
X59424445Y-126407283D01*
X59514995Y-126372070D01*
X59612126Y-126374189D01*
X59701054Y-126413318D01*
X59762199Y-126474463D01*
X59805902Y-126536877D01*
X59960623Y-126691598D01*
X60139861Y-126817102D01*
X60338170Y-126909575D01*
X60549523Y-126966207D01*
X60767500Y-126985277D01*
X60985477Y-126966207D01*
X61196830Y-126909575D01*
X61395139Y-126817102D01*
X61574377Y-126691598D01*
X61729098Y-126536877D01*
X61854602Y-126357639D01*
X61947075Y-126159330D01*
X62003707Y-125947977D01*
X62022777Y-125730000D01*
X62003707Y-125512023D01*
X61947075Y-125300670D01*
X61854602Y-125102362D01*
X61729098Y-124923123D01*
X61574377Y-124768402D01*
X61425229Y-124663967D01*
X61358047Y-124593788D01*
X61322834Y-124503239D01*
X61324953Y-124406107D01*
X61364082Y-124317180D01*
X61425231Y-124256031D01*
X61574377Y-124151598D01*
X61729098Y-123996877D01*
X61854602Y-123817639D01*
X61947075Y-123619330D01*
X62003707Y-123407977D01*
X62022777Y-123190000D01*
X62003707Y-122972023D01*
X61947075Y-122760670D01*
X61854602Y-122562362D01*
X61853074Y-122560180D01*
X61772798Y-122445534D01*
X61729098Y-122383123D01*
X61574377Y-122228402D01*
X61425229Y-122123967D01*
X61358047Y-122053788D01*
X61322834Y-121963239D01*
X61324953Y-121866107D01*
X61364082Y-121777180D01*
X61425231Y-121716031D01*
X61574377Y-121611598D01*
X61729098Y-121456877D01*
X61854602Y-121277639D01*
X61947075Y-121079330D01*
X62003707Y-120867977D01*
X62022777Y-120650000D01*
X62003707Y-120432023D01*
X61947075Y-120220670D01*
X61854602Y-120022362D01*
X61847734Y-120012554D01*
X61772798Y-119905534D01*
X61729098Y-119843123D01*
X61574377Y-119688402D01*
X61425229Y-119583967D01*
X61358047Y-119513788D01*
X61322834Y-119423239D01*
X61324953Y-119326107D01*
X61364082Y-119237180D01*
X61425231Y-119176031D01*
X61574377Y-119071598D01*
X61729098Y-118916877D01*
X61854602Y-118737639D01*
X61947075Y-118539330D01*
X62003707Y-118327977D01*
X62022777Y-118110000D01*
X62003707Y-117892023D01*
X61947075Y-117680670D01*
X61854602Y-117482362D01*
X61847734Y-117472554D01*
X61772798Y-117365534D01*
X61729098Y-117303123D01*
X61574377Y-117148402D01*
X61425229Y-117043967D01*
X61358047Y-116973788D01*
X61322834Y-116883239D01*
X61324953Y-116786107D01*
X61364082Y-116697180D01*
X61425231Y-116636031D01*
X61574377Y-116531598D01*
X61729098Y-116376877D01*
X61854602Y-116197639D01*
X61947075Y-115999330D01*
X62003707Y-115787977D01*
X62022777Y-115570000D01*
X62003707Y-115352023D01*
X61947075Y-115140670D01*
X61903658Y-115047563D01*
X61854605Y-114942368D01*
X61854601Y-114942360D01*
X61772798Y-114825534D01*
X61729098Y-114763123D01*
X61574377Y-114608402D01*
X61553190Y-114593567D01*
X61484978Y-114545804D01*
X61425229Y-114503967D01*
X61358047Y-114433788D01*
X61322834Y-114343239D01*
X61324953Y-114246107D01*
X61364082Y-114157180D01*
X61425231Y-114096031D01*
X61574377Y-113991598D01*
X61729098Y-113836877D01*
X61786659Y-113754671D01*
X61851774Y-113661679D01*
X61921955Y-113594495D01*
X62012504Y-113559283D01*
X62055742Y-113555500D01*
X62839257Y-113555500D01*
X62839273Y-113555501D01*
X62854534Y-113555501D01*
X62992900Y-113555501D01*
X63098308Y-113527256D01*
X63126553Y-113519688D01*
X63246382Y-113450505D01*
X63344222Y-113352665D01*
X63344223Y-113352662D01*
X65306007Y-111390878D01*
X65306010Y-111390877D01*
X65403850Y-111293037D01*
X65413586Y-111276172D01*
X65456737Y-111201436D01*
X65473032Y-111173210D01*
X65473033Y-111173208D01*
X65473034Y-111173207D01*
X65487574Y-111118940D01*
X65530544Y-111031809D01*
X65603589Y-110967750D01*
X65695588Y-110936520D01*
X65792535Y-110942874D01*
X65879670Y-110985845D01*
X65943729Y-111058890D01*
X65958165Y-111093744D01*
X65959499Y-111093192D01*
X65965743Y-111108269D01*
X66034924Y-111228093D01*
X66034925Y-111228094D01*
X66034927Y-111228097D01*
X66132767Y-111325937D01*
X66132769Y-111325938D01*
X67259442Y-112452611D01*
X67313418Y-112533393D01*
X67332372Y-112628681D01*
X67323888Y-112693126D01*
X67294366Y-112803305D01*
X67294363Y-112803320D01*
X67274532Y-113029994D01*
X67274532Y-113030005D01*
X67294363Y-113256679D01*
X67294365Y-113256694D01*
X67353261Y-113476496D01*
X67353262Y-113476499D01*
X67449428Y-113682727D01*
X67449436Y-113682741D01*
X67557363Y-113836877D01*
X67579953Y-113869139D01*
X67740861Y-114030047D01*
X67740864Y-114030049D01*
X67740865Y-114030050D01*
X67835096Y-114096031D01*
X67902280Y-114166212D01*
X67937493Y-114256761D01*
X67935374Y-114353893D01*
X67896245Y-114442820D01*
X67835096Y-114503969D01*
X67740865Y-114569949D01*
X67579949Y-114730865D01*
X67449436Y-114917258D01*
X67449428Y-114917272D01*
X67353262Y-115123500D01*
X67353261Y-115123503D01*
X67294365Y-115343305D01*
X67294363Y-115343320D01*
X67274532Y-115569994D01*
X67274532Y-115570005D01*
X67294363Y-115796679D01*
X67294365Y-115796694D01*
X67353261Y-116016496D01*
X67353262Y-116016499D01*
X67449428Y-116222727D01*
X67449436Y-116222741D01*
X67579949Y-116409134D01*
X67579953Y-116409139D01*
X67740861Y-116570047D01*
X67740864Y-116570049D01*
X67740865Y-116570050D01*
X67835096Y-116636031D01*
X67902280Y-116706212D01*
X67937493Y-116796761D01*
X67935374Y-116893893D01*
X67896245Y-116982820D01*
X67835096Y-117043969D01*
X67740865Y-117109949D01*
X67579949Y-117270865D01*
X67449436Y-117457258D01*
X67449428Y-117457272D01*
X67353262Y-117663500D01*
X67353261Y-117663503D01*
X67294365Y-117883305D01*
X67294363Y-117883320D01*
X67274532Y-118109994D01*
X67274532Y-118110005D01*
X67294363Y-118336679D01*
X67294365Y-118336694D01*
X67353261Y-118556496D01*
X67353262Y-118556499D01*
X67449428Y-118762727D01*
X67449436Y-118762741D01*
X67579949Y-118949134D01*
X67579953Y-118949139D01*
X67740861Y-119110047D01*
X67740864Y-119110049D01*
X67740865Y-119110050D01*
X67835096Y-119176031D01*
X67902280Y-119246212D01*
X67937493Y-119336761D01*
X67935374Y-119433893D01*
X67896245Y-119522820D01*
X67835096Y-119583969D01*
X67740865Y-119649949D01*
X67579949Y-119810865D01*
X67449436Y-119997258D01*
X67449428Y-119997272D01*
X67353262Y-120203500D01*
X67353261Y-120203503D01*
X67294365Y-120423305D01*
X67294363Y-120423320D01*
X67274532Y-120649994D01*
X67274532Y-120650005D01*
X67294363Y-120876679D01*
X67294365Y-120876694D01*
X67353261Y-121096496D01*
X67353262Y-121096499D01*
X67449428Y-121302727D01*
X67449436Y-121302741D01*
X67557363Y-121456877D01*
X67579953Y-121489139D01*
X67740861Y-121650047D01*
X67740864Y-121650049D01*
X67740865Y-121650050D01*
X67835096Y-121716031D01*
X67902280Y-121786212D01*
X67937493Y-121876761D01*
X67935374Y-121973893D01*
X67896245Y-122062820D01*
X67835096Y-122123969D01*
X67740865Y-122189949D01*
X67579949Y-122350865D01*
X67449436Y-122537258D01*
X67449428Y-122537272D01*
X67353262Y-122743500D01*
X67353261Y-122743503D01*
X67294365Y-122963305D01*
X67294363Y-122963320D01*
X67274532Y-123189994D01*
X67274532Y-123190005D01*
X67294363Y-123416679D01*
X67294365Y-123416694D01*
X67353261Y-123636496D01*
X67353262Y-123636499D01*
X67449428Y-123842727D01*
X67449436Y-123842741D01*
X67557363Y-123996877D01*
X67579953Y-124029139D01*
X67740861Y-124190047D01*
X67740864Y-124190049D01*
X67740865Y-124190050D01*
X67835096Y-124256031D01*
X67902280Y-124326212D01*
X67937493Y-124416761D01*
X67935374Y-124513893D01*
X67896245Y-124602820D01*
X67835096Y-124663969D01*
X67740865Y-124729949D01*
X67579949Y-124890865D01*
X67449436Y-125077258D01*
X67449428Y-125077272D01*
X67353262Y-125283500D01*
X67353261Y-125283503D01*
X67294365Y-125503305D01*
X67294363Y-125503320D01*
X67274532Y-125729994D01*
X67274532Y-125730005D01*
X67294363Y-125956679D01*
X67294365Y-125956694D01*
X67353261Y-126176496D01*
X67353262Y-126176499D01*
X67449428Y-126382727D01*
X67449436Y-126382741D01*
X67557363Y-126536877D01*
X67579953Y-126569139D01*
X67740861Y-126730047D01*
X67740864Y-126730049D01*
X67740865Y-126730050D01*
X67835096Y-126796031D01*
X67902280Y-126866212D01*
X67937493Y-126956761D01*
X67935374Y-127053893D01*
X67896245Y-127142820D01*
X67835096Y-127203969D01*
X67740865Y-127269949D01*
X67579949Y-127430865D01*
X67449436Y-127617258D01*
X67449428Y-127617272D01*
X67353262Y-127823500D01*
X67353261Y-127823503D01*
X67294365Y-128043305D01*
X67294363Y-128043320D01*
X67274532Y-128269994D01*
X67274532Y-128270005D01*
X67294363Y-128496679D01*
X67294365Y-128496694D01*
X67353261Y-128716496D01*
X67353262Y-128716499D01*
X67449428Y-128922727D01*
X67449436Y-128922741D01*
X67579949Y-129109134D01*
X67579953Y-129109139D01*
X67740861Y-129270047D01*
X67740864Y-129270049D01*
X67740865Y-129270050D01*
X67835096Y-129336031D01*
X67902280Y-129406212D01*
X67937493Y-129496761D01*
X67935374Y-129593893D01*
X67896245Y-129682820D01*
X67835096Y-129743969D01*
X67740865Y-129809949D01*
X67579949Y-129970865D01*
X67449436Y-130157258D01*
X67449428Y-130157272D01*
X67353262Y-130363500D01*
X67353261Y-130363503D01*
X67294365Y-130583305D01*
X67294363Y-130583320D01*
X67274532Y-130809994D01*
X67274532Y-130810005D01*
X67294363Y-131036679D01*
X67294365Y-131036694D01*
X67353261Y-131256496D01*
X67353262Y-131256499D01*
X67449428Y-131462727D01*
X67449436Y-131462741D01*
X67579949Y-131649134D01*
X67579953Y-131649139D01*
X67740861Y-131810047D01*
X67740864Y-131810049D01*
X67740865Y-131810050D01*
X67835096Y-131876031D01*
X67902280Y-131946212D01*
X67937493Y-132036761D01*
X67935374Y-132133893D01*
X67896245Y-132222820D01*
X67835096Y-132283969D01*
X67740865Y-132349949D01*
X67579949Y-132510865D01*
X67449436Y-132697258D01*
X67449428Y-132697272D01*
X67353262Y-132903500D01*
X67353261Y-132903503D01*
X67294365Y-133123305D01*
X67294363Y-133123320D01*
X67274532Y-133349994D01*
X67274532Y-133350005D01*
X67294363Y-133576679D01*
X67294365Y-133576694D01*
X67353261Y-133796496D01*
X67353262Y-133796499D01*
X67449428Y-134002727D01*
X67449436Y-134002741D01*
X67579949Y-134189134D01*
X67579953Y-134189139D01*
X67740861Y-134350047D01*
X67740864Y-134350049D01*
X67740865Y-134350050D01*
X67835096Y-134416031D01*
X67902280Y-134486212D01*
X67937493Y-134576761D01*
X67935374Y-134673893D01*
X67896245Y-134762820D01*
X67835096Y-134823969D01*
X67740865Y-134889949D01*
X67579949Y-135050865D01*
X67449436Y-135237258D01*
X67449428Y-135237272D01*
X67353262Y-135443500D01*
X67353261Y-135443503D01*
X67294365Y-135663305D01*
X67294363Y-135663320D01*
X67274532Y-135889994D01*
X67274532Y-135890005D01*
X67294363Y-136116679D01*
X67294365Y-136116694D01*
X67353261Y-136336496D01*
X67353262Y-136336499D01*
X67449428Y-136542727D01*
X67449436Y-136542741D01*
X67579949Y-136729134D01*
X67579953Y-136729139D01*
X67740861Y-136890047D01*
X67740864Y-136890049D01*
X67740865Y-136890050D01*
X67835096Y-136956031D01*
X67902280Y-137026212D01*
X67937493Y-137116761D01*
X67935374Y-137213893D01*
X67896245Y-137302820D01*
X67835096Y-137363969D01*
X67740865Y-137429949D01*
X67579949Y-137590865D01*
X67449436Y-137777258D01*
X67449428Y-137777272D01*
X67353262Y-137983500D01*
X67353261Y-137983503D01*
X67294365Y-138203305D01*
X67294363Y-138203320D01*
X67274532Y-138429994D01*
X67274532Y-138430005D01*
X67294363Y-138656679D01*
X67294365Y-138656694D01*
X67353261Y-138876496D01*
X67353262Y-138876499D01*
X67449428Y-139082727D01*
X67449436Y-139082741D01*
X67579949Y-139269134D01*
X67579953Y-139269139D01*
X67740861Y-139430047D01*
X67740864Y-139430049D01*
X67740865Y-139430050D01*
X67835096Y-139496031D01*
X67902280Y-139566212D01*
X67937493Y-139656761D01*
X67935374Y-139753893D01*
X67896245Y-139842820D01*
X67835096Y-139903969D01*
X67740865Y-139969949D01*
X67579949Y-140130865D01*
X67449436Y-140317258D01*
X67449428Y-140317272D01*
X67353262Y-140523500D01*
X67353261Y-140523503D01*
X67294365Y-140743305D01*
X67294363Y-140743320D01*
X67274532Y-140969994D01*
X67274532Y-140970005D01*
X67294363Y-141196679D01*
X67294365Y-141196694D01*
X67353261Y-141416496D01*
X67353262Y-141416499D01*
X67449428Y-141622727D01*
X67449436Y-141622741D01*
X67579949Y-141809134D01*
X67579953Y-141809139D01*
X67740861Y-141970047D01*
X67740864Y-141970049D01*
X67748062Y-141975089D01*
X67815248Y-142045268D01*
X67850464Y-142135816D01*
X67848347Y-142232948D01*
X67809221Y-142321876D01*
X67781619Y-142350909D01*
X67781201Y-142357646D01*
X68491416Y-143067861D01*
X68406306Y-143090667D01*
X68303694Y-143149910D01*
X68219910Y-143233694D01*
X68160667Y-143336306D01*
X68137861Y-143421416D01*
X67428811Y-142712366D01*
X67344517Y-142841388D01*
X67344517Y-142841389D01*
X67251317Y-143053863D01*
X67194361Y-143278780D01*
X67175202Y-143509994D01*
X67175202Y-143510005D01*
X67194361Y-143741219D01*
X67251317Y-143966136D01*
X67344515Y-144178606D01*
X67428812Y-144307632D01*
X68137861Y-143598583D01*
X68160667Y-143683694D01*
X68219910Y-143786306D01*
X68303694Y-143870090D01*
X68406306Y-143929333D01*
X68491414Y-143952138D01*
X67781201Y-144662352D01*
X67781783Y-144671721D01*
X67821742Y-144717924D01*
X67852337Y-144810136D01*
X67845315Y-144907037D01*
X67801745Y-144993875D01*
X67748074Y-145044902D01*
X67740864Y-145049950D01*
X67579949Y-145210865D01*
X67449436Y-145397258D01*
X67449428Y-145397272D01*
X67353262Y-145603500D01*
X67353261Y-145603503D01*
X67294365Y-145823305D01*
X67294363Y-145823320D01*
X67274532Y-146049994D01*
X67274532Y-146050005D01*
X67294363Y-146276679D01*
X67294365Y-146276694D01*
X67353261Y-146496496D01*
X67353262Y-146496499D01*
X67449428Y-146702727D01*
X67449436Y-146702741D01*
X67579949Y-146889134D01*
X67579953Y-146889139D01*
X67740861Y-147050047D01*
X67740864Y-147050049D01*
X67740865Y-147050050D01*
X67927258Y-147180563D01*
X67927262Y-147180565D01*
X67927266Y-147180568D01*
X68133504Y-147276739D01*
X68353308Y-147335635D01*
X68372984Y-147337356D01*
X68579994Y-147355468D01*
X68580000Y-147355468D01*
X68580006Y-147355468D01*
X68759668Y-147339749D01*
X68806692Y-147335635D01*
X69026496Y-147276739D01*
X69232734Y-147180568D01*
X69419139Y-147050047D01*
X69580047Y-146889139D01*
X69680132Y-146746202D01*
X69750313Y-146679018D01*
X69840862Y-146643805D01*
X69884101Y-146640022D01*
X69943400Y-146640022D01*
X70038688Y-146658976D01*
X70119466Y-146712949D01*
X70150855Y-146744338D01*
X70150857Y-146744339D01*
X70150859Y-146744341D01*
X70303587Y-146840307D01*
X70303590Y-146840308D01*
X70303595Y-146840311D01*
X70473862Y-146899890D01*
X70473871Y-146899891D01*
X70653113Y-146920087D01*
X70653117Y-146920087D01*
X70653121Y-146920087D01*
X70793025Y-146904323D01*
X70832372Y-146899890D01*
X71002639Y-146840311D01*
X71002644Y-146840307D01*
X71002646Y-146840307D01*
X71155374Y-146744341D01*
X71155373Y-146744341D01*
X71155379Y-146744338D01*
X71282933Y-146616784D01*
X71351209Y-146508124D01*
X71378902Y-146464051D01*
X71378902Y-146464049D01*
X71378906Y-146464044D01*
X71438485Y-146293777D01*
X71450423Y-146187821D01*
X71458682Y-146114525D01*
X71458682Y-146114518D01*
X71438486Y-145935276D01*
X71438485Y-145935267D01*
X71378906Y-145765000D01*
X71378903Y-145764995D01*
X71378902Y-145764992D01*
X71282934Y-145612260D01*
X71251545Y-145580871D01*
X71197570Y-145500089D01*
X71178617Y-145404804D01*
X71178617Y-129078556D01*
X71197571Y-128983268D01*
X71232946Y-128923300D01*
X71239574Y-128914987D01*
X71239584Y-128914978D01*
X71335557Y-128762238D01*
X71395136Y-128591971D01*
X71415333Y-128412716D01*
X71399253Y-128270005D01*
X71395137Y-128233470D01*
X71395136Y-128233461D01*
X71335557Y-128063194D01*
X71335554Y-128063189D01*
X71335553Y-128063186D01*
X71239585Y-127910454D01*
X71208196Y-127879065D01*
X71154221Y-127798283D01*
X71135268Y-127702998D01*
X71135268Y-123944222D01*
X71154222Y-123848934D01*
X71208195Y-123768155D01*
X71268483Y-123707868D01*
X71324115Y-123619330D01*
X71364452Y-123555135D01*
X71364452Y-123555133D01*
X71364456Y-123555128D01*
X71424035Y-123384861D01*
X71444232Y-123205606D01*
X71442474Y-123190005D01*
X71424036Y-123026360D01*
X71424035Y-123026351D01*
X71364456Y-122856084D01*
X71364453Y-122856079D01*
X71364452Y-122856076D01*
X71268484Y-122703344D01*
X71237095Y-122671955D01*
X71183120Y-122591173D01*
X71164167Y-122495888D01*
X71164167Y-109830864D01*
X71183121Y-109735576D01*
X71237094Y-109654797D01*
X71289888Y-109602004D01*
X71327893Y-109541520D01*
X71385857Y-109449271D01*
X71385857Y-109449269D01*
X71385861Y-109449264D01*
X71445440Y-109278997D01*
X71445440Y-109278994D01*
X71450058Y-109265798D01*
X71452701Y-109266722D01*
X71483260Y-109198403D01*
X71553848Y-109131647D01*
X71644610Y-109096986D01*
X71741727Y-109099695D01*
X71830415Y-109139364D01*
X71862427Y-109166391D01*
X73485542Y-110789506D01*
X73539518Y-110870288D01*
X73558472Y-110965576D01*
X73558472Y-129584436D01*
X73539518Y-129679724D01*
X73485544Y-129760503D01*
X73454154Y-129791892D01*
X73358186Y-129944624D01*
X73358183Y-129944630D01*
X73358183Y-129944632D01*
X73318363Y-130058433D01*
X73298604Y-130114900D01*
X73298602Y-130114908D01*
X73278407Y-130294150D01*
X73278407Y-130294157D01*
X73298602Y-130473399D01*
X73298603Y-130473405D01*
X73298604Y-130473409D01*
X73358183Y-130643676D01*
X73358184Y-130643677D01*
X73358186Y-130643683D01*
X73454152Y-130796411D01*
X73454154Y-130796413D01*
X73454156Y-130796416D01*
X73581710Y-130923970D01*
X73581712Y-130923971D01*
X73581714Y-130923973D01*
X73734442Y-131019939D01*
X73734445Y-131019940D01*
X73734450Y-131019943D01*
X73904717Y-131079522D01*
X73904726Y-131079523D01*
X74083968Y-131099719D01*
X74083972Y-131099719D01*
X74083975Y-131099719D01*
X74244555Y-131081626D01*
X74341366Y-131089792D01*
X74427683Y-131134384D01*
X74490365Y-131208614D01*
X74519868Y-131301181D01*
X74521434Y-131329060D01*
X74521434Y-148575736D01*
X74520641Y-148588911D01*
X74520723Y-148596600D01*
X74520723Y-148596602D01*
X74520961Y-148618793D01*
X74521420Y-148661718D01*
X74521434Y-148664381D01*
X74521434Y-148729566D01*
X74521616Y-148730843D01*
X74521979Y-148733489D01*
X74522144Y-148734744D01*
X74522203Y-148734958D01*
X74522204Y-148734960D01*
X74537296Y-148788967D01*
X74539704Y-148797583D01*
X74540406Y-148800150D01*
X74557300Y-148863200D01*
X74557791Y-148864349D01*
X74558829Y-148866815D01*
X74559333Y-148868033D01*
X74592543Y-148924160D01*
X74593885Y-148926456D01*
X74626533Y-148983004D01*
X74627283Y-148983960D01*
X74628922Y-148986072D01*
X74629751Y-148987152D01*
X74676288Y-149032704D01*
X74678180Y-149034576D01*
X74729709Y-149086104D01*
X74739676Y-149094750D01*
X76340695Y-150661873D01*
X80037672Y-154280578D01*
X80092509Y-154360777D01*
X80110930Y-154430642D01*
X80127936Y-154581574D01*
X80127937Y-154581580D01*
X80127938Y-154581584D01*
X80187517Y-154751851D01*
X80187518Y-154751852D01*
X80187520Y-154751858D01*
X80283486Y-154904586D01*
X80283488Y-154904588D01*
X80283490Y-154904591D01*
X80411044Y-155032145D01*
X80411046Y-155032146D01*
X80411048Y-155032148D01*
X80563776Y-155128114D01*
X80563779Y-155128115D01*
X80563784Y-155128118D01*
X80734051Y-155187697D01*
X80734060Y-155187698D01*
X80913302Y-155207894D01*
X80913306Y-155207894D01*
X80913310Y-155207894D01*
X81053214Y-155192130D01*
X81092561Y-155187697D01*
X81262828Y-155128118D01*
X81262833Y-155128114D01*
X81262835Y-155128114D01*
X81415563Y-155032148D01*
X81415562Y-155032148D01*
X81415568Y-155032145D01*
X81543122Y-154904591D01*
X81614193Y-154791482D01*
X81639091Y-154751858D01*
X81639091Y-154751856D01*
X81639095Y-154751851D01*
X81698674Y-154581584D01*
X81716101Y-154426912D01*
X81718871Y-154402332D01*
X81718871Y-154402325D01*
X81698675Y-154223083D01*
X81698674Y-154223074D01*
X81697544Y-154219846D01*
X119985551Y-154219846D01*
X119985551Y-155982876D01*
X119992664Y-156027788D01*
X120000405Y-156076665D01*
X120058001Y-156189703D01*
X120147709Y-156279411D01*
X120147711Y-156279412D01*
X120260747Y-156337007D01*
X120260751Y-156337008D01*
X120334513Y-156348690D01*
X120354532Y-156351861D01*
X122117569Y-156351860D01*
X122211355Y-156337007D01*
X122324393Y-156279411D01*
X122414101Y-156189703D01*
X122441156Y-156136604D01*
X122501298Y-156060313D01*
X122586065Y-156012839D01*
X122682546Y-156001418D01*
X122776054Y-156027788D01*
X122839084Y-156073581D01*
X122904974Y-156139471D01*
X123098474Y-156274961D01*
X123312562Y-156374792D01*
X123526051Y-156431996D01*
X123526051Y-155534373D01*
X123583058Y-155567286D01*
X123710225Y-155601361D01*
X123841877Y-155601361D01*
X123969044Y-155567286D01*
X124026051Y-155534373D01*
X124026051Y-156431996D01*
X124239539Y-156374792D01*
X124453627Y-156274961D01*
X124647127Y-156139471D01*
X124814161Y-155972437D01*
X124949651Y-155778937D01*
X125049484Y-155564846D01*
X125049484Y-155564844D01*
X125052080Y-155555156D01*
X127182082Y-155555156D01*
X127182082Y-155555157D01*
X128145268Y-155555157D01*
X128140874Y-155559551D01*
X128088213Y-155650763D01*
X128060954Y-155752496D01*
X128060954Y-155857818D01*
X128088213Y-155959551D01*
X128140874Y-156050763D01*
X128145268Y-156055157D01*
X127182082Y-156055157D01*
X127234686Y-156251480D01*
X127330820Y-156457640D01*
X127461289Y-156643969D01*
X127622141Y-156804821D01*
X127808470Y-156935290D01*
X128014630Y-157031424D01*
X128210953Y-157084028D01*
X128210954Y-157084028D01*
X128210954Y-156120843D01*
X128215348Y-156125237D01*
X128306560Y-156177898D01*
X128408293Y-156205157D01*
X128513615Y-156205157D01*
X128615348Y-156177898D01*
X128706560Y-156125237D01*
X128710954Y-156120843D01*
X128710954Y-157084028D01*
X128907277Y-157031424D01*
X129113437Y-156935290D01*
X129299766Y-156804821D01*
X129460618Y-156643969D01*
X129591087Y-156457640D01*
X129687221Y-156251480D01*
X129739826Y-156055157D01*
X128776640Y-156055157D01*
X128781034Y-156050763D01*
X128833695Y-155959551D01*
X128860954Y-155857818D01*
X128860954Y-155752496D01*
X128833695Y-155650763D01*
X128781034Y-155559551D01*
X128776640Y-155555157D01*
X129739826Y-155555157D01*
X129739825Y-155555156D01*
X129687221Y-155358833D01*
X129591087Y-155152673D01*
X129460618Y-154966344D01*
X129299766Y-154805492D01*
X129113437Y-154675023D01*
X128907272Y-154578887D01*
X128710954Y-154526283D01*
X128710954Y-155489471D01*
X128706560Y-155485077D01*
X128615348Y-155432416D01*
X128513615Y-155405157D01*
X128408293Y-155405157D01*
X128306560Y-155432416D01*
X128215348Y-155485077D01*
X128210954Y-155489471D01*
X128210954Y-154526284D01*
X128210953Y-154526283D01*
X128014635Y-154578887D01*
X127808470Y-154675023D01*
X127622141Y-154805492D01*
X127461289Y-154966344D01*
X127330820Y-155152673D01*
X127234686Y-155358833D01*
X127182082Y-155555156D01*
X125052080Y-155555156D01*
X125106687Y-155351362D01*
X125106687Y-155351361D01*
X124209063Y-155351361D01*
X124241976Y-155294354D01*
X124276051Y-155167187D01*
X124276051Y-155035535D01*
X124241976Y-154908368D01*
X124209063Y-154851361D01*
X125106687Y-154851361D01*
X125106687Y-154851359D01*
X125049484Y-154637877D01*
X125049480Y-154637866D01*
X124949654Y-154423789D01*
X124949650Y-154423781D01*
X124814161Y-154230284D01*
X124647127Y-154063250D01*
X124453627Y-153927760D01*
X124239535Y-153827927D01*
X124026052Y-153770724D01*
X124026051Y-153770725D01*
X124026051Y-154668349D01*
X123969044Y-154635436D01*
X123841877Y-154601361D01*
X123710225Y-154601361D01*
X123583058Y-154635436D01*
X123526051Y-154668349D01*
X123526051Y-153770725D01*
X123526049Y-153770724D01*
X123312567Y-153827927D01*
X123312556Y-153827931D01*
X123098479Y-153927757D01*
X123098471Y-153927761D01*
X122904970Y-154063253D01*
X122839083Y-154129140D01*
X122758302Y-154183116D01*
X122663013Y-154202069D01*
X122567725Y-154183114D01*
X122486944Y-154129137D01*
X122441155Y-154066114D01*
X122414102Y-154013021D01*
X122414101Y-154013019D01*
X122324393Y-153923311D01*
X122324390Y-153923309D01*
X122211354Y-153865714D01*
X122211350Y-153865713D01*
X122117581Y-153850862D01*
X122117573Y-153850861D01*
X122117570Y-153850861D01*
X122117565Y-153850861D01*
X120354535Y-153850861D01*
X120260746Y-153865715D01*
X120147710Y-153923310D01*
X120057999Y-154013021D01*
X120000404Y-154126057D01*
X120000403Y-154126061D01*
X119985552Y-154219830D01*
X119985551Y-154219846D01*
X81697544Y-154219846D01*
X81639095Y-154052807D01*
X81639092Y-154052802D01*
X81639091Y-154052799D01*
X81543125Y-153900071D01*
X81543123Y-153900069D01*
X81543122Y-153900067D01*
X81415568Y-153772513D01*
X81415565Y-153772511D01*
X81415563Y-153772509D01*
X81262835Y-153676543D01*
X81262830Y-153676541D01*
X81262828Y-153676540D01*
X81092561Y-153616961D01*
X81092557Y-153616960D01*
X81092551Y-153616959D01*
X80917333Y-153597217D01*
X80824766Y-153567714D01*
X80771036Y-153527726D01*
X80501346Y-153263746D01*
X80446509Y-153183547D01*
X80426536Y-153088467D01*
X80444470Y-152992982D01*
X80497579Y-152911627D01*
X80577778Y-152856790D01*
X80672858Y-152836817D01*
X80757756Y-152850775D01*
X80871381Y-152890534D01*
X80871390Y-152890535D01*
X81050632Y-152910731D01*
X81050636Y-152910731D01*
X81050640Y-152910731D01*
X81190544Y-152894967D01*
X81229891Y-152890534D01*
X81400158Y-152830955D01*
X81400163Y-152830951D01*
X81400165Y-152830951D01*
X81552893Y-152734985D01*
X81552892Y-152734985D01*
X81552898Y-152734982D01*
X81680452Y-152607428D01*
X81705634Y-152567350D01*
X81776421Y-152454695D01*
X81776421Y-152454693D01*
X81776425Y-152454688D01*
X81836004Y-152284421D01*
X81848476Y-152173727D01*
X81856201Y-152105169D01*
X81856201Y-152105162D01*
X81836005Y-151925920D01*
X81836004Y-151925911D01*
X81776425Y-151755644D01*
X81776422Y-151755639D01*
X81776421Y-151755636D01*
X81680455Y-151602908D01*
X81680453Y-151602906D01*
X81680452Y-151602904D01*
X81552898Y-151475350D01*
X81552895Y-151475348D01*
X81552893Y-151475346D01*
X81400165Y-151379380D01*
X81400160Y-151379378D01*
X81400158Y-151379377D01*
X81229891Y-151319798D01*
X81229887Y-151319797D01*
X81229881Y-151319796D01*
X81050640Y-151299601D01*
X81044976Y-151299601D01*
X81037576Y-151298129D01*
X81036741Y-151298035D01*
X81036748Y-151297964D01*
X80949688Y-151280647D01*
X80868906Y-151226671D01*
X77039764Y-147397529D01*
X76985788Y-147316747D01*
X76966834Y-147221459D01*
X76966834Y-127190669D01*
X76985788Y-127095381D01*
X77039761Y-127014602D01*
X77071150Y-126983214D01*
X77099831Y-126937569D01*
X77167119Y-126830481D01*
X77167119Y-126830479D01*
X77167123Y-126830474D01*
X77226702Y-126660207D01*
X77242970Y-126515824D01*
X77246899Y-126480955D01*
X77246899Y-126480948D01*
X77226703Y-126301706D01*
X77226702Y-126301697D01*
X77167123Y-126131430D01*
X77167120Y-126131425D01*
X77167119Y-126131422D01*
X77071153Y-125978694D01*
X77071151Y-125978692D01*
X77071150Y-125978690D01*
X76943596Y-125851136D01*
X76943593Y-125851134D01*
X76943591Y-125851132D01*
X76790863Y-125755166D01*
X76790858Y-125755164D01*
X76790856Y-125755163D01*
X76620589Y-125695584D01*
X76620585Y-125695583D01*
X76620579Y-125695582D01*
X76441338Y-125675387D01*
X76441330Y-125675387D01*
X76262088Y-125695582D01*
X76262080Y-125695583D01*
X76262079Y-125695584D01*
X76091812Y-125755163D01*
X76091810Y-125755163D01*
X76091810Y-125755164D01*
X76091804Y-125755166D01*
X75939076Y-125851132D01*
X75811514Y-125978694D01*
X75715548Y-126131422D01*
X75715547Y-126131426D01*
X75715546Y-126131427D01*
X75715545Y-126131430D01*
X75681054Y-126230000D01*
X75673063Y-126252838D01*
X75623700Y-126336518D01*
X75546072Y-126394939D01*
X75451996Y-126419205D01*
X75355798Y-126405624D01*
X75226189Y-126360272D01*
X75226185Y-126360271D01*
X75226179Y-126360270D01*
X75046938Y-126340075D01*
X75046935Y-126340075D01*
X75046934Y-126340075D01*
X74950923Y-126350892D01*
X74886350Y-126358168D01*
X74789539Y-126350001D01*
X74703222Y-126305408D01*
X74640541Y-126231178D01*
X74611037Y-126138611D01*
X74609472Y-126110733D01*
X74609472Y-110734028D01*
X74609473Y-110734015D01*
X74609473Y-110575583D01*
X74576173Y-110451309D01*
X74573660Y-110441932D01*
X74573660Y-110441931D01*
X74504477Y-110322102D01*
X74406637Y-110224262D01*
X74406634Y-110224260D01*
X71809711Y-107627337D01*
X71809710Y-107627335D01*
X71711870Y-107529495D01*
X71711867Y-107529493D01*
X71711866Y-107529492D01*
X71592042Y-107460312D01*
X71563792Y-107452742D01*
X71563792Y-107452741D01*
X71458392Y-107424499D01*
X71458388Y-107424499D01*
X71320022Y-107424499D01*
X71304761Y-107424499D01*
X71304745Y-107424500D01*
X69927787Y-107424500D01*
X69832499Y-107405546D01*
X69751717Y-107351570D01*
X69716854Y-107306135D01*
X69716804Y-107306171D01*
X69715986Y-107305003D01*
X69712145Y-107299997D01*
X69710566Y-107297262D01*
X69580050Y-107110865D01*
X69580049Y-107110864D01*
X69580047Y-107110861D01*
X69419139Y-106949953D01*
X69419133Y-106949949D01*
X69390561Y-106929942D01*
X69324902Y-106883968D01*
X69257719Y-106813789D01*
X69222506Y-106723240D01*
X69224625Y-106626108D01*
X69263753Y-106537181D01*
X69324902Y-106476031D01*
X69419139Y-106410047D01*
X69580047Y-106249139D01*
X69710568Y-106062734D01*
X69806739Y-105856496D01*
X69865635Y-105636692D01*
X69885468Y-105410000D01*
X69885468Y-105409994D01*
X69865636Y-105183320D01*
X69865635Y-105183308D01*
X69806739Y-104963504D01*
X69710568Y-104757266D01*
X69710565Y-104757262D01*
X69710563Y-104757258D01*
X69580050Y-104570865D01*
X69580049Y-104570864D01*
X69580047Y-104570861D01*
X69419139Y-104409953D01*
X69419133Y-104409949D01*
X69390561Y-104389942D01*
X69324902Y-104343968D01*
X69257719Y-104273789D01*
X69222506Y-104183240D01*
X69224625Y-104086108D01*
X69263753Y-103997181D01*
X69324902Y-103936031D01*
X69419139Y-103870047D01*
X69580047Y-103709139D01*
X69710568Y-103522734D01*
X69806739Y-103316496D01*
X69865635Y-103096692D01*
X69885468Y-102870000D01*
X69885468Y-102869994D01*
X69865636Y-102643320D01*
X69865635Y-102643308D01*
X69806739Y-102423504D01*
X69710568Y-102217266D01*
X69710565Y-102217262D01*
X69710563Y-102217258D01*
X69580050Y-102030865D01*
X69580049Y-102030864D01*
X69580047Y-102030861D01*
X69419139Y-101869953D01*
X69419133Y-101869949D01*
X69390561Y-101849942D01*
X69324902Y-101803968D01*
X69257719Y-101733789D01*
X69222506Y-101643240D01*
X69224625Y-101546108D01*
X69263753Y-101457181D01*
X69293261Y-101427673D01*
X76648128Y-101427673D01*
X76648128Y-101427680D01*
X76668323Y-101606922D01*
X76668324Y-101606928D01*
X76668325Y-101606932D01*
X76727904Y-101777199D01*
X76727905Y-101777200D01*
X76727907Y-101777206D01*
X76823873Y-101929934D01*
X76823875Y-101929936D01*
X76823877Y-101929939D01*
X76951431Y-102057493D01*
X76951433Y-102057494D01*
X76951435Y-102057496D01*
X77104163Y-102153462D01*
X77104166Y-102153463D01*
X77104171Y-102153466D01*
X77274438Y-102213045D01*
X77274447Y-102213046D01*
X77453689Y-102233242D01*
X77453693Y-102233242D01*
X77453697Y-102233242D01*
X77595556Y-102217258D01*
X77632948Y-102213045D01*
X77803215Y-102153466D01*
X77803220Y-102153462D01*
X77803222Y-102153462D01*
X77955522Y-102057765D01*
X77955955Y-102057493D01*
X78083509Y-101929939D01*
X78162661Y-101803970D01*
X78179478Y-101777206D01*
X78179478Y-101777204D01*
X78179482Y-101777199D01*
X78239061Y-101606932D01*
X78245914Y-101546108D01*
X78259258Y-101427680D01*
X78259258Y-101427673D01*
X78239062Y-101248431D01*
X78239061Y-101248422D01*
X78179482Y-101078155D01*
X78179479Y-101078150D01*
X78179478Y-101078147D01*
X78083510Y-100925415D01*
X78052121Y-100894026D01*
X77998146Y-100813244D01*
X77979193Y-100717959D01*
X77979193Y-97789994D01*
X87495202Y-97789994D01*
X87495202Y-97790005D01*
X87514361Y-98021219D01*
X87571317Y-98246136D01*
X87664515Y-98458606D01*
X87748812Y-98587632D01*
X88457861Y-97878583D01*
X88480667Y-97963694D01*
X88539910Y-98066306D01*
X88623694Y-98150090D01*
X88726306Y-98209333D01*
X88811414Y-98232138D01*
X88101201Y-98942352D01*
X88101783Y-98951721D01*
X88141742Y-98997924D01*
X88172337Y-99090136D01*
X88165315Y-99187037D01*
X88121745Y-99273875D01*
X88068074Y-99324902D01*
X88060864Y-99329950D01*
X87899949Y-99490865D01*
X87769436Y-99677258D01*
X87769428Y-99677272D01*
X87673262Y-99883500D01*
X87673261Y-99883503D01*
X87614365Y-100103305D01*
X87614363Y-100103320D01*
X87594532Y-100329994D01*
X87594532Y-100330005D01*
X87614363Y-100556679D01*
X87614365Y-100556694D01*
X87673261Y-100776496D01*
X87673262Y-100776499D01*
X87769428Y-100982727D01*
X87769436Y-100982741D01*
X87899949Y-101169134D01*
X87899953Y-101169139D01*
X88060861Y-101330047D01*
X88060864Y-101330049D01*
X88060865Y-101330050D01*
X88155096Y-101396031D01*
X88222280Y-101466212D01*
X88257493Y-101556761D01*
X88255374Y-101653893D01*
X88216245Y-101742820D01*
X88155096Y-101803969D01*
X88060865Y-101869949D01*
X87899949Y-102030865D01*
X87769436Y-102217258D01*
X87769428Y-102217272D01*
X87673262Y-102423500D01*
X87673261Y-102423503D01*
X87614365Y-102643305D01*
X87614363Y-102643320D01*
X87594532Y-102869994D01*
X87594532Y-102870005D01*
X87614363Y-103096679D01*
X87614365Y-103096694D01*
X87673261Y-103316496D01*
X87673262Y-103316499D01*
X87769428Y-103522727D01*
X87769436Y-103522741D01*
X87881114Y-103682234D01*
X87899953Y-103709139D01*
X88060861Y-103870047D01*
X88060864Y-103870049D01*
X88060865Y-103870050D01*
X88155096Y-103936031D01*
X88222280Y-104006212D01*
X88257493Y-104096761D01*
X88255374Y-104193893D01*
X88216245Y-104282820D01*
X88155096Y-104343969D01*
X88060865Y-104409949D01*
X87899949Y-104570865D01*
X87769436Y-104757258D01*
X87769428Y-104757272D01*
X87673262Y-104963500D01*
X87673261Y-104963503D01*
X87614365Y-105183305D01*
X87614363Y-105183320D01*
X87594532Y-105409994D01*
X87594532Y-105410005D01*
X87614363Y-105636679D01*
X87614365Y-105636694D01*
X87673261Y-105856496D01*
X87673262Y-105856499D01*
X87769428Y-106062727D01*
X87769436Y-106062741D01*
X87899949Y-106249134D01*
X87899953Y-106249139D01*
X88060861Y-106410047D01*
X88060864Y-106410049D01*
X88060865Y-106410050D01*
X88155096Y-106476031D01*
X88222280Y-106546212D01*
X88257493Y-106636761D01*
X88255374Y-106733893D01*
X88216245Y-106822820D01*
X88155096Y-106883969D01*
X88060865Y-106949949D01*
X87899949Y-107110865D01*
X87769436Y-107297258D01*
X87769428Y-107297272D01*
X87673262Y-107503500D01*
X87673261Y-107503503D01*
X87614365Y-107723305D01*
X87614363Y-107723320D01*
X87594532Y-107949994D01*
X87594532Y-107950005D01*
X87614363Y-108176679D01*
X87614365Y-108176694D01*
X87673261Y-108396496D01*
X87673262Y-108396499D01*
X87769428Y-108602727D01*
X87769436Y-108602741D01*
X87899949Y-108789134D01*
X87899953Y-108789139D01*
X88060861Y-108950047D01*
X88060864Y-108950049D01*
X88060865Y-108950050D01*
X88155096Y-109016031D01*
X88222280Y-109086212D01*
X88257493Y-109176761D01*
X88255374Y-109273893D01*
X88216245Y-109362820D01*
X88155096Y-109423969D01*
X88060865Y-109489949D01*
X87899949Y-109650865D01*
X87769436Y-109837258D01*
X87769428Y-109837272D01*
X87673262Y-110043500D01*
X87673261Y-110043503D01*
X87614365Y-110263305D01*
X87614363Y-110263320D01*
X87594532Y-110489994D01*
X87594532Y-110490005D01*
X87614363Y-110716679D01*
X87614365Y-110716694D01*
X87673261Y-110936496D01*
X87673262Y-110936499D01*
X87769428Y-111142727D01*
X87769436Y-111142741D01*
X87899949Y-111329134D01*
X87899953Y-111329139D01*
X88060861Y-111490047D01*
X88060864Y-111490049D01*
X88060865Y-111490050D01*
X88155096Y-111556031D01*
X88222280Y-111626212D01*
X88257493Y-111716761D01*
X88255374Y-111813893D01*
X88216245Y-111902820D01*
X88155096Y-111963969D01*
X88060865Y-112029949D01*
X87899949Y-112190865D01*
X87769436Y-112377258D01*
X87769428Y-112377272D01*
X87673262Y-112583500D01*
X87673261Y-112583503D01*
X87614365Y-112803305D01*
X87614363Y-112803320D01*
X87594532Y-113029994D01*
X87594532Y-113030005D01*
X87614363Y-113256679D01*
X87614365Y-113256694D01*
X87673261Y-113476496D01*
X87673262Y-113476499D01*
X87769428Y-113682727D01*
X87769436Y-113682741D01*
X87877363Y-113836877D01*
X87899953Y-113869139D01*
X88060861Y-114030047D01*
X88060864Y-114030049D01*
X88060865Y-114030050D01*
X88155096Y-114096031D01*
X88222280Y-114166212D01*
X88257493Y-114256761D01*
X88255374Y-114353893D01*
X88216245Y-114442820D01*
X88155096Y-114503969D01*
X88060865Y-114569949D01*
X87899949Y-114730865D01*
X87769436Y-114917258D01*
X87769428Y-114917272D01*
X87673262Y-115123500D01*
X87673261Y-115123503D01*
X87614365Y-115343305D01*
X87614363Y-115343320D01*
X87594532Y-115569994D01*
X87594532Y-115570005D01*
X87614363Y-115796679D01*
X87614365Y-115796694D01*
X87673261Y-116016496D01*
X87673262Y-116016499D01*
X87769428Y-116222727D01*
X87769436Y-116222741D01*
X87899949Y-116409134D01*
X87899953Y-116409139D01*
X88060861Y-116570047D01*
X88060864Y-116570049D01*
X88060865Y-116570050D01*
X88155096Y-116636031D01*
X88222280Y-116706212D01*
X88257493Y-116796761D01*
X88255374Y-116893893D01*
X88216245Y-116982820D01*
X88155096Y-117043969D01*
X88060865Y-117109949D01*
X87899949Y-117270865D01*
X87769436Y-117457258D01*
X87769428Y-117457272D01*
X87673262Y-117663500D01*
X87673261Y-117663503D01*
X87614365Y-117883305D01*
X87614363Y-117883320D01*
X87594532Y-118109994D01*
X87594532Y-118110005D01*
X87614363Y-118336679D01*
X87614365Y-118336694D01*
X87673261Y-118556496D01*
X87673262Y-118556499D01*
X87769428Y-118762727D01*
X87769436Y-118762741D01*
X87899949Y-118949134D01*
X87899953Y-118949139D01*
X88060861Y-119110047D01*
X88060864Y-119110049D01*
X88060865Y-119110050D01*
X88155096Y-119176031D01*
X88222280Y-119246212D01*
X88257493Y-119336761D01*
X88255374Y-119433893D01*
X88216245Y-119522820D01*
X88155096Y-119583969D01*
X88060865Y-119649949D01*
X87899949Y-119810865D01*
X87769436Y-119997258D01*
X87769428Y-119997272D01*
X87673262Y-120203500D01*
X87673261Y-120203503D01*
X87614365Y-120423305D01*
X87614363Y-120423320D01*
X87594532Y-120649994D01*
X87594532Y-120650005D01*
X87614363Y-120876679D01*
X87614365Y-120876694D01*
X87673261Y-121096496D01*
X87673262Y-121096499D01*
X87769428Y-121302727D01*
X87769436Y-121302741D01*
X87877363Y-121456877D01*
X87899953Y-121489139D01*
X88060861Y-121650047D01*
X88060864Y-121650049D01*
X88060865Y-121650050D01*
X88155096Y-121716031D01*
X88222280Y-121786212D01*
X88257493Y-121876761D01*
X88255374Y-121973893D01*
X88216245Y-122062820D01*
X88155096Y-122123969D01*
X88060865Y-122189949D01*
X87899949Y-122350865D01*
X87769436Y-122537258D01*
X87769428Y-122537272D01*
X87673262Y-122743500D01*
X87673261Y-122743503D01*
X87614365Y-122963305D01*
X87614363Y-122963320D01*
X87594532Y-123189994D01*
X87594532Y-123190005D01*
X87614363Y-123416679D01*
X87614365Y-123416694D01*
X87673261Y-123636496D01*
X87673262Y-123636499D01*
X87769428Y-123842727D01*
X87769436Y-123842741D01*
X87877363Y-123996877D01*
X87899953Y-124029139D01*
X88060861Y-124190047D01*
X88060864Y-124190049D01*
X88060865Y-124190050D01*
X88155096Y-124256031D01*
X88222280Y-124326212D01*
X88257493Y-124416761D01*
X88255374Y-124513893D01*
X88216245Y-124602820D01*
X88155096Y-124663969D01*
X88060865Y-124729949D01*
X87899949Y-124890865D01*
X87769436Y-125077258D01*
X87769428Y-125077272D01*
X87673262Y-125283500D01*
X87673261Y-125283503D01*
X87614365Y-125503305D01*
X87614363Y-125503320D01*
X87594532Y-125729994D01*
X87594532Y-125730005D01*
X87614363Y-125956679D01*
X87614365Y-125956694D01*
X87673261Y-126176496D01*
X87673262Y-126176499D01*
X87769428Y-126382727D01*
X87769436Y-126382741D01*
X87877363Y-126536877D01*
X87899953Y-126569139D01*
X88060861Y-126730047D01*
X88060864Y-126730049D01*
X88060865Y-126730050D01*
X88155096Y-126796031D01*
X88222280Y-126866212D01*
X88257493Y-126956761D01*
X88255374Y-127053893D01*
X88216245Y-127142820D01*
X88155096Y-127203969D01*
X88060865Y-127269949D01*
X87899949Y-127430865D01*
X87769436Y-127617258D01*
X87769428Y-127617272D01*
X87673262Y-127823500D01*
X87673261Y-127823503D01*
X87614365Y-128043305D01*
X87614363Y-128043320D01*
X87594532Y-128269994D01*
X87594532Y-128270005D01*
X87614363Y-128496679D01*
X87614365Y-128496694D01*
X87673261Y-128716496D01*
X87673262Y-128716499D01*
X87769428Y-128922727D01*
X87769436Y-128922741D01*
X87899949Y-129109134D01*
X87899953Y-129109139D01*
X88060861Y-129270047D01*
X88060864Y-129270049D01*
X88060865Y-129270050D01*
X88155096Y-129336031D01*
X88222280Y-129406212D01*
X88257493Y-129496761D01*
X88255374Y-129593893D01*
X88216245Y-129682820D01*
X88155096Y-129743969D01*
X88060865Y-129809949D01*
X87899949Y-129970865D01*
X87769436Y-130157258D01*
X87769428Y-130157272D01*
X87673262Y-130363500D01*
X87673261Y-130363503D01*
X87614365Y-130583305D01*
X87614363Y-130583320D01*
X87594532Y-130809994D01*
X87594532Y-130810005D01*
X87614363Y-131036679D01*
X87614365Y-131036694D01*
X87673261Y-131256496D01*
X87673262Y-131256499D01*
X87769428Y-131462727D01*
X87769436Y-131462741D01*
X87899949Y-131649134D01*
X87899953Y-131649139D01*
X88060861Y-131810047D01*
X88060864Y-131810049D01*
X88060865Y-131810050D01*
X88155096Y-131876031D01*
X88222280Y-131946212D01*
X88257493Y-132036761D01*
X88255374Y-132133893D01*
X88216245Y-132222820D01*
X88155096Y-132283969D01*
X88060865Y-132349949D01*
X87899949Y-132510865D01*
X87769436Y-132697258D01*
X87769428Y-132697272D01*
X87673262Y-132903500D01*
X87673261Y-132903503D01*
X87614365Y-133123305D01*
X87614363Y-133123320D01*
X87594532Y-133349994D01*
X87594532Y-133350005D01*
X87614363Y-133576679D01*
X87614365Y-133576694D01*
X87673261Y-133796496D01*
X87673262Y-133796499D01*
X87769428Y-134002727D01*
X87769436Y-134002741D01*
X87899949Y-134189134D01*
X87899953Y-134189139D01*
X88060861Y-134350047D01*
X88060864Y-134350049D01*
X88060865Y-134350050D01*
X88155096Y-134416031D01*
X88222280Y-134486212D01*
X88257493Y-134576761D01*
X88255374Y-134673893D01*
X88216245Y-134762820D01*
X88155096Y-134823969D01*
X88060865Y-134889949D01*
X87899949Y-135050865D01*
X87769436Y-135237258D01*
X87769428Y-135237272D01*
X87673262Y-135443500D01*
X87673261Y-135443503D01*
X87614365Y-135663305D01*
X87614363Y-135663320D01*
X87594532Y-135889994D01*
X87594532Y-135890005D01*
X87614363Y-136116679D01*
X87614365Y-136116694D01*
X87673261Y-136336496D01*
X87673262Y-136336499D01*
X87769428Y-136542727D01*
X87769436Y-136542741D01*
X87899949Y-136729134D01*
X87899953Y-136729139D01*
X88060861Y-136890047D01*
X88060864Y-136890049D01*
X88060865Y-136890050D01*
X88155096Y-136956031D01*
X88222280Y-137026212D01*
X88257493Y-137116761D01*
X88255374Y-137213893D01*
X88216245Y-137302820D01*
X88155096Y-137363969D01*
X88060865Y-137429949D01*
X87899949Y-137590865D01*
X87769436Y-137777258D01*
X87769428Y-137777272D01*
X87673262Y-137983500D01*
X87673261Y-137983503D01*
X87614365Y-138203305D01*
X87614363Y-138203320D01*
X87594532Y-138429994D01*
X87594532Y-138430005D01*
X87614363Y-138656679D01*
X87614365Y-138656694D01*
X87673261Y-138876496D01*
X87673262Y-138876499D01*
X87769428Y-139082727D01*
X87769436Y-139082741D01*
X87899949Y-139269134D01*
X87899953Y-139269139D01*
X88060861Y-139430047D01*
X88060864Y-139430049D01*
X88060865Y-139430050D01*
X88155096Y-139496031D01*
X88222280Y-139566212D01*
X88257493Y-139656761D01*
X88255374Y-139753893D01*
X88216245Y-139842820D01*
X88155096Y-139903969D01*
X88060865Y-139969949D01*
X87899949Y-140130865D01*
X87769436Y-140317258D01*
X87769428Y-140317272D01*
X87673262Y-140523500D01*
X87673261Y-140523503D01*
X87614365Y-140743305D01*
X87614363Y-140743320D01*
X87594532Y-140969994D01*
X87594532Y-140970005D01*
X87614363Y-141196679D01*
X87614365Y-141196694D01*
X87673261Y-141416496D01*
X87673262Y-141416499D01*
X87769428Y-141622727D01*
X87769436Y-141622741D01*
X87899949Y-141809134D01*
X87899953Y-141809139D01*
X88060861Y-141970047D01*
X88060864Y-141970049D01*
X88060865Y-141970050D01*
X88155096Y-142036031D01*
X88222280Y-142106212D01*
X88257493Y-142196761D01*
X88255374Y-142293893D01*
X88216245Y-142382820D01*
X88155096Y-142443969D01*
X88060865Y-142509949D01*
X87899949Y-142670865D01*
X87769436Y-142857258D01*
X87769428Y-142857272D01*
X87673262Y-143063500D01*
X87673261Y-143063503D01*
X87614365Y-143283305D01*
X87614363Y-143283320D01*
X87594532Y-143509994D01*
X87594532Y-143510005D01*
X87614363Y-143736679D01*
X87614365Y-143736694D01*
X87673261Y-143956496D01*
X87673262Y-143956499D01*
X87769428Y-144162727D01*
X87769436Y-144162741D01*
X87899949Y-144349134D01*
X87899953Y-144349139D01*
X88060861Y-144510047D01*
X88060864Y-144510049D01*
X88060865Y-144510050D01*
X88155096Y-144576031D01*
X88222280Y-144646212D01*
X88257493Y-144736761D01*
X88255374Y-144833893D01*
X88216245Y-144922820D01*
X88155096Y-144983969D01*
X88060865Y-145049949D01*
X87899949Y-145210865D01*
X87769436Y-145397258D01*
X87769428Y-145397272D01*
X87673262Y-145603500D01*
X87673261Y-145603503D01*
X87614365Y-145823305D01*
X87614363Y-145823320D01*
X87594532Y-146049994D01*
X87594532Y-146050005D01*
X87614363Y-146276679D01*
X87614365Y-146276694D01*
X87673261Y-146496496D01*
X87673262Y-146496499D01*
X87769428Y-146702727D01*
X87769436Y-146702741D01*
X87899949Y-146889134D01*
X87899953Y-146889139D01*
X88060861Y-147050047D01*
X88060864Y-147050049D01*
X88060865Y-147050050D01*
X88247258Y-147180563D01*
X88247262Y-147180565D01*
X88247266Y-147180568D01*
X88453504Y-147276739D01*
X88673308Y-147335635D01*
X88692984Y-147337356D01*
X88899994Y-147355468D01*
X88900000Y-147355468D01*
X88900006Y-147355468D01*
X88920876Y-147353642D01*
X127260454Y-147353642D01*
X127260454Y-149016672D01*
X127272820Y-149094752D01*
X127275308Y-149110461D01*
X127332904Y-149223499D01*
X127422612Y-149313207D01*
X127422614Y-149313208D01*
X127535650Y-149370803D01*
X127535654Y-149370804D01*
X127609416Y-149382486D01*
X127629435Y-149385657D01*
X129292472Y-149385656D01*
X129386258Y-149370803D01*
X129499296Y-149313207D01*
X129589004Y-149223499D01*
X129646600Y-149110461D01*
X129661454Y-149016676D01*
X129661453Y-147353639D01*
X129646600Y-147259853D01*
X129589004Y-147146815D01*
X129499296Y-147057107D01*
X129499293Y-147057105D01*
X129386257Y-146999510D01*
X129386253Y-146999509D01*
X129292484Y-146984658D01*
X129292476Y-146984657D01*
X129292473Y-146984657D01*
X129292468Y-146984657D01*
X127629438Y-146984657D01*
X127535649Y-146999511D01*
X127422613Y-147057106D01*
X127332902Y-147146817D01*
X127275307Y-147259853D01*
X127275306Y-147259857D01*
X127260455Y-147353626D01*
X127260454Y-147353642D01*
X88920876Y-147353642D01*
X89079668Y-147339749D01*
X89126692Y-147335635D01*
X89346496Y-147276739D01*
X89552734Y-147180568D01*
X89739139Y-147050047D01*
X89900047Y-146889139D01*
X90030568Y-146702734D01*
X90126739Y-146496496D01*
X90185635Y-146276692D01*
X90193410Y-146187819D01*
X90205468Y-146050005D01*
X90205468Y-146049994D01*
X90185636Y-145823320D01*
X90185635Y-145823308D01*
X90126739Y-145603504D01*
X90082178Y-145507944D01*
X90030571Y-145397272D01*
X90030563Y-145397258D01*
X89900050Y-145210865D01*
X89900049Y-145210864D01*
X89900047Y-145210861D01*
X89739139Y-145049953D01*
X89739133Y-145049949D01*
X89710561Y-145029942D01*
X89644902Y-144983968D01*
X89577719Y-144913789D01*
X89542506Y-144823240D01*
X89544625Y-144726108D01*
X89583753Y-144637181D01*
X89644902Y-144576031D01*
X89739139Y-144510047D01*
X89900047Y-144349139D01*
X90030568Y-144162734D01*
X90126739Y-143956496D01*
X90185635Y-143736692D01*
X90193410Y-143647819D01*
X90205468Y-143510005D01*
X90205468Y-143509994D01*
X90194178Y-143380957D01*
X117843216Y-143380957D01*
X117843216Y-143380964D01*
X117863411Y-143560206D01*
X117863412Y-143560212D01*
X117863413Y-143560216D01*
X117922992Y-143730483D01*
X117922993Y-143730484D01*
X117922995Y-143730490D01*
X118018961Y-143883218D01*
X118018963Y-143883220D01*
X118018965Y-143883223D01*
X118146519Y-144010777D01*
X118146521Y-144010778D01*
X118146523Y-144010780D01*
X118299251Y-144106746D01*
X118299254Y-144106747D01*
X118299259Y-144106750D01*
X118469526Y-144166329D01*
X118469535Y-144166330D01*
X118648777Y-144186526D01*
X118648781Y-144186526D01*
X118648785Y-144186526D01*
X118788689Y-144170762D01*
X118828036Y-144166329D01*
X118998303Y-144106750D01*
X118998308Y-144106746D01*
X118998310Y-144106746D01*
X119119600Y-144030534D01*
X119151043Y-144010777D01*
X119219232Y-143942587D01*
X119300011Y-143888614D01*
X119395299Y-143869660D01*
X125409690Y-143869660D01*
X125504978Y-143888614D01*
X125585756Y-143942587D01*
X125617145Y-143973976D01*
X125617147Y-143973977D01*
X125617149Y-143973979D01*
X125769877Y-144069945D01*
X125769880Y-144069946D01*
X125769885Y-144069949D01*
X125940152Y-144129528D01*
X125940161Y-144129529D01*
X126119403Y-144149725D01*
X126119407Y-144149725D01*
X126119411Y-144149725D01*
X126268477Y-144132929D01*
X126298662Y-144129528D01*
X126468929Y-144069949D01*
X126468934Y-144069945D01*
X126468936Y-144069945D01*
X126621664Y-143973979D01*
X126621663Y-143973979D01*
X126621669Y-143973976D01*
X126749223Y-143846422D01*
X126786996Y-143786306D01*
X126845192Y-143693689D01*
X126845192Y-143693687D01*
X126845196Y-143693682D01*
X126904775Y-143523415D01*
X126924972Y-143344160D01*
X126924087Y-143336306D01*
X126904776Y-143164914D01*
X126904775Y-143164905D01*
X126845196Y-142994638D01*
X126845193Y-142994633D01*
X126845192Y-142994630D01*
X126749226Y-142841902D01*
X126749224Y-142841900D01*
X126749223Y-142841898D01*
X126621669Y-142714344D01*
X126621666Y-142714342D01*
X126621664Y-142714340D01*
X126468936Y-142618374D01*
X126468931Y-142618372D01*
X126468929Y-142618371D01*
X126298662Y-142558792D01*
X126298658Y-142558791D01*
X126298652Y-142558790D01*
X126119411Y-142538595D01*
X126119403Y-142538595D01*
X125940161Y-142558790D01*
X125940153Y-142558791D01*
X125940152Y-142558792D01*
X125769885Y-142618371D01*
X125769883Y-142618371D01*
X125769883Y-142618372D01*
X125769877Y-142618374D01*
X125617149Y-142714340D01*
X125617145Y-142714343D01*
X125617145Y-142714344D01*
X125585756Y-142745732D01*
X125504978Y-142799706D01*
X125409690Y-142818660D01*
X124784725Y-142818660D01*
X124689437Y-142799706D01*
X124608655Y-142745730D01*
X124591415Y-142719929D01*
X124553918Y-142764336D01*
X124467602Y-142808928D01*
X124398669Y-142818660D01*
X119321697Y-142818660D01*
X119226409Y-142799706D01*
X119163643Y-142757768D01*
X119161974Y-142759862D01*
X119151042Y-142751143D01*
X118998310Y-142655175D01*
X118998305Y-142655173D01*
X118998303Y-142655172D01*
X118828036Y-142595593D01*
X118828032Y-142595592D01*
X118828026Y-142595591D01*
X118648785Y-142575396D01*
X118648777Y-142575396D01*
X118469535Y-142595591D01*
X118469527Y-142595592D01*
X118469526Y-142595593D01*
X118299259Y-142655172D01*
X118299257Y-142655172D01*
X118299257Y-142655173D01*
X118299251Y-142655175D01*
X118146523Y-142751141D01*
X118018961Y-142878703D01*
X117922995Y-143031431D01*
X117922992Y-143031437D01*
X117922992Y-143031439D01*
X117865201Y-143196598D01*
X117863413Y-143201707D01*
X117863411Y-143201715D01*
X117843216Y-143380957D01*
X90194178Y-143380957D01*
X90185636Y-143283320D01*
X90185635Y-143283308D01*
X90126739Y-143063504D01*
X90040564Y-142878703D01*
X90030571Y-142857272D01*
X90030563Y-142857258D01*
X89900050Y-142670865D01*
X89900049Y-142670864D01*
X89900047Y-142670861D01*
X89739139Y-142509953D01*
X89739133Y-142509949D01*
X89710561Y-142489942D01*
X89644902Y-142443968D01*
X89577719Y-142373789D01*
X89542506Y-142283240D01*
X89544625Y-142186108D01*
X89583753Y-142097181D01*
X89644902Y-142036031D01*
X89739139Y-141970047D01*
X89900047Y-141809139D01*
X90030568Y-141622734D01*
X90126739Y-141416496D01*
X90185635Y-141196692D01*
X90193410Y-141107819D01*
X90205468Y-140970005D01*
X90205468Y-140969994D01*
X90185636Y-140743320D01*
X90185635Y-140743308D01*
X90126739Y-140523504D01*
X90039803Y-140337070D01*
X90030571Y-140317272D01*
X90030563Y-140317258D01*
X89900050Y-140130865D01*
X89900049Y-140130864D01*
X89900047Y-140130861D01*
X89739139Y-139969953D01*
X89739133Y-139969949D01*
X89710561Y-139949942D01*
X89644902Y-139903968D01*
X89577719Y-139833789D01*
X89542506Y-139743240D01*
X89544625Y-139646108D01*
X89583753Y-139557181D01*
X89644902Y-139496031D01*
X89739139Y-139430047D01*
X89900047Y-139269139D01*
X90030568Y-139082734D01*
X90126739Y-138876496D01*
X90185635Y-138656692D01*
X90193410Y-138567819D01*
X90205468Y-138430005D01*
X90205468Y-138429994D01*
X90185636Y-138203320D01*
X90185635Y-138203308D01*
X90126739Y-137983504D01*
X90039803Y-137797070D01*
X90030571Y-137777272D01*
X90030563Y-137777258D01*
X89900050Y-137590865D01*
X89900049Y-137590864D01*
X89900047Y-137590861D01*
X89739139Y-137429953D01*
X89739133Y-137429949D01*
X89710561Y-137409942D01*
X89644902Y-137363968D01*
X89577719Y-137293789D01*
X89542506Y-137203240D01*
X89544625Y-137106108D01*
X89583753Y-137017181D01*
X89644902Y-136956031D01*
X89739139Y-136890047D01*
X89900047Y-136729139D01*
X90030568Y-136542734D01*
X90126739Y-136336496D01*
X90185635Y-136116692D01*
X90193410Y-136027821D01*
X90205468Y-135890005D01*
X90205468Y-135889994D01*
X90185636Y-135663320D01*
X90185635Y-135663308D01*
X90126739Y-135443504D01*
X90030568Y-135237266D01*
X90030565Y-135237262D01*
X90030563Y-135237258D01*
X89900050Y-135050865D01*
X89900049Y-135050864D01*
X89900047Y-135050861D01*
X89739139Y-134889953D01*
X89739133Y-134889949D01*
X89710561Y-134869942D01*
X89644902Y-134823968D01*
X89577719Y-134753789D01*
X89542506Y-134663240D01*
X89544625Y-134566108D01*
X89583753Y-134477181D01*
X89644902Y-134416031D01*
X89739139Y-134350047D01*
X89900047Y-134189139D01*
X90030568Y-134002734D01*
X90126739Y-133796496D01*
X90185635Y-133576692D01*
X90202900Y-133379352D01*
X90205468Y-133350005D01*
X90205468Y-133349994D01*
X90185636Y-133123320D01*
X90185635Y-133123308D01*
X90126739Y-132903504D01*
X90030568Y-132697266D01*
X90030565Y-132697262D01*
X90030563Y-132697258D01*
X89900050Y-132510865D01*
X89900049Y-132510864D01*
X89900047Y-132510861D01*
X89739139Y-132349953D01*
X89739133Y-132349949D01*
X89710561Y-132329942D01*
X89644902Y-132283968D01*
X89577719Y-132213789D01*
X89542506Y-132123240D01*
X89544625Y-132026108D01*
X89583753Y-131937181D01*
X89644902Y-131876031D01*
X89739139Y-131810047D01*
X89900047Y-131649139D01*
X90030568Y-131462734D01*
X90126739Y-131256496D01*
X90185635Y-131036692D01*
X90205468Y-130810000D01*
X90205468Y-130809994D01*
X90185636Y-130583320D01*
X90185635Y-130583308D01*
X90126739Y-130363504D01*
X90030568Y-130157266D01*
X90030565Y-130157262D01*
X90030563Y-130157258D01*
X89900050Y-129970865D01*
X89900049Y-129970864D01*
X89900047Y-129970861D01*
X89739139Y-129809953D01*
X89739133Y-129809949D01*
X89668516Y-129760503D01*
X89644902Y-129743968D01*
X89577719Y-129673789D01*
X89542506Y-129583240D01*
X89544625Y-129486108D01*
X89583753Y-129397181D01*
X89644902Y-129336031D01*
X89739139Y-129270047D01*
X89900047Y-129109139D01*
X90030568Y-128922734D01*
X90126739Y-128716496D01*
X90185635Y-128496692D01*
X90205468Y-128270000D01*
X90205468Y-128269994D01*
X90185636Y-128043320D01*
X90185635Y-128043308D01*
X90126739Y-127823504D01*
X90030568Y-127617266D01*
X90030565Y-127617262D01*
X90030563Y-127617258D01*
X89900050Y-127430865D01*
X89900049Y-127430864D01*
X89900047Y-127430861D01*
X89739139Y-127269953D01*
X89739133Y-127269949D01*
X89710561Y-127249942D01*
X89644902Y-127203968D01*
X89577719Y-127133789D01*
X89542506Y-127043240D01*
X89544625Y-126946108D01*
X89583753Y-126857181D01*
X89644902Y-126796031D01*
X89739139Y-126730047D01*
X89900047Y-126569139D01*
X90030568Y-126382734D01*
X90126739Y-126176496D01*
X90185635Y-125956692D01*
X90199709Y-125795826D01*
X90205468Y-125730005D01*
X90205468Y-125729994D01*
X90185636Y-125503320D01*
X90185635Y-125503308D01*
X90126739Y-125283504D01*
X90030568Y-125077266D01*
X90030565Y-125077262D01*
X90030563Y-125077258D01*
X89900050Y-124890865D01*
X89900049Y-124890864D01*
X89900047Y-124890861D01*
X89739139Y-124729953D01*
X89739133Y-124729949D01*
X89684776Y-124691888D01*
X89644902Y-124663968D01*
X89577719Y-124593789D01*
X89542506Y-124503240D01*
X89544625Y-124406108D01*
X89583753Y-124317181D01*
X89644902Y-124256031D01*
X89739139Y-124190047D01*
X89900047Y-124029139D01*
X90030568Y-123842734D01*
X90126739Y-123636496D01*
X90185635Y-123416692D01*
X90204045Y-123206264D01*
X90205468Y-123190005D01*
X90205468Y-123189994D01*
X90185636Y-122963320D01*
X90185635Y-122963308D01*
X90126739Y-122743504D01*
X90059368Y-122599028D01*
X90030571Y-122537272D01*
X90030563Y-122537258D01*
X89900050Y-122350865D01*
X89900048Y-122350863D01*
X89900047Y-122350861D01*
X89739139Y-122189953D01*
X89739133Y-122189949D01*
X89684776Y-122151888D01*
X89644902Y-122123968D01*
X89577719Y-122053789D01*
X89542506Y-121963240D01*
X89544625Y-121866108D01*
X89583753Y-121777181D01*
X89644902Y-121716031D01*
X89739139Y-121650047D01*
X89900047Y-121489139D01*
X90030568Y-121302734D01*
X90126739Y-121096496D01*
X90185635Y-120876692D01*
X90199709Y-120715826D01*
X90205468Y-120650005D01*
X90205468Y-120649994D01*
X90185636Y-120423320D01*
X90185635Y-120423308D01*
X90126739Y-120203504D01*
X90088270Y-120121008D01*
X90030571Y-119997272D01*
X90030563Y-119997258D01*
X89900050Y-119810865D01*
X89900048Y-119810863D01*
X89900047Y-119810861D01*
X89739139Y-119649953D01*
X89739133Y-119649949D01*
X89684776Y-119611888D01*
X89644902Y-119583968D01*
X89577719Y-119513789D01*
X89542506Y-119423240D01*
X89544625Y-119326108D01*
X89583753Y-119237181D01*
X89644902Y-119176031D01*
X89739139Y-119110047D01*
X89900047Y-118949139D01*
X90030568Y-118762734D01*
X90126739Y-118556496D01*
X90185635Y-118336692D01*
X90197079Y-118205890D01*
X90205468Y-118110005D01*
X90205468Y-118109994D01*
X90185636Y-117883320D01*
X90185635Y-117883308D01*
X90126739Y-117663504D01*
X90087600Y-117579571D01*
X90030571Y-117457272D01*
X90030563Y-117457258D01*
X89900050Y-117270865D01*
X89900048Y-117270863D01*
X89900047Y-117270861D01*
X89739139Y-117109953D01*
X89739133Y-117109949D01*
X89684776Y-117071888D01*
X89644902Y-117043968D01*
X89577719Y-116973789D01*
X89542506Y-116883240D01*
X89544625Y-116786108D01*
X89583753Y-116697181D01*
X89644902Y-116636031D01*
X89739139Y-116570047D01*
X89900047Y-116409139D01*
X90030568Y-116222734D01*
X90126739Y-116016496D01*
X90185635Y-115796692D01*
X90194817Y-115691741D01*
X90205468Y-115570005D01*
X90205468Y-115569994D01*
X90186211Y-115349897D01*
X90185635Y-115343308D01*
X90126739Y-115123504D01*
X90057442Y-114974897D01*
X90030571Y-114917272D01*
X90030563Y-114917258D01*
X89900050Y-114730865D01*
X89900048Y-114730863D01*
X89900047Y-114730861D01*
X89739139Y-114569953D01*
X89739133Y-114569949D01*
X89684776Y-114531888D01*
X89644902Y-114503968D01*
X89577719Y-114433789D01*
X89542506Y-114343240D01*
X89544625Y-114246108D01*
X89583753Y-114157181D01*
X89644902Y-114096031D01*
X89739139Y-114030047D01*
X89900047Y-113869139D01*
X90030568Y-113682734D01*
X90126739Y-113476496D01*
X90185635Y-113256692D01*
X90199415Y-113099186D01*
X90205468Y-113030005D01*
X90205468Y-113029994D01*
X90185636Y-112803320D01*
X90185635Y-112803308D01*
X90126739Y-112583504D01*
X90055891Y-112431570D01*
X90030571Y-112377272D01*
X90030563Y-112377258D01*
X89900050Y-112190865D01*
X89900048Y-112190863D01*
X89900047Y-112190861D01*
X89739139Y-112029953D01*
X89739133Y-112029949D01*
X89684776Y-111991888D01*
X89644902Y-111963968D01*
X89577719Y-111893789D01*
X89542506Y-111803240D01*
X89544625Y-111706108D01*
X89583753Y-111617181D01*
X89644902Y-111556031D01*
X89739139Y-111490047D01*
X89900047Y-111329139D01*
X90030568Y-111142734D01*
X90126739Y-110936496D01*
X90185635Y-110716692D01*
X90191508Y-110649563D01*
X90205468Y-110490005D01*
X90205468Y-110489994D01*
X90185636Y-110263320D01*
X90185635Y-110263308D01*
X90126739Y-110043504D01*
X90030568Y-109837266D01*
X90030565Y-109837262D01*
X90030563Y-109837258D01*
X89900050Y-109650865D01*
X89900049Y-109650864D01*
X89900047Y-109650861D01*
X89739139Y-109489953D01*
X89739133Y-109489949D01*
X89684777Y-109451889D01*
X89644902Y-109423968D01*
X89577719Y-109353789D01*
X89542506Y-109263240D01*
X89544625Y-109166108D01*
X89583753Y-109077181D01*
X89644902Y-109016031D01*
X89739139Y-108950047D01*
X89900047Y-108789139D01*
X90030568Y-108602734D01*
X90126739Y-108396496D01*
X90185635Y-108176692D01*
X90199415Y-108019186D01*
X90205468Y-107950005D01*
X90205468Y-107949994D01*
X90185636Y-107723320D01*
X90185635Y-107723308D01*
X90126739Y-107503504D01*
X90050204Y-107339375D01*
X90030571Y-107297272D01*
X90030563Y-107297258D01*
X89900050Y-107110865D01*
X89900049Y-107110864D01*
X89900047Y-107110861D01*
X89739139Y-106949953D01*
X89739133Y-106949949D01*
X89710561Y-106929942D01*
X89644902Y-106883968D01*
X89577719Y-106813789D01*
X89542506Y-106723240D01*
X89544625Y-106626108D01*
X89583753Y-106537181D01*
X89644902Y-106476031D01*
X89739139Y-106410047D01*
X89900047Y-106249139D01*
X90030568Y-106062734D01*
X90126739Y-105856496D01*
X90185635Y-105636692D01*
X90205468Y-105410000D01*
X90205468Y-105409994D01*
X90185636Y-105183320D01*
X90185635Y-105183308D01*
X90126739Y-104963504D01*
X90030568Y-104757266D01*
X90030565Y-104757262D01*
X90030563Y-104757258D01*
X89900050Y-104570865D01*
X89900049Y-104570864D01*
X89900047Y-104570861D01*
X89739139Y-104409953D01*
X89739133Y-104409949D01*
X89710561Y-104389942D01*
X89644902Y-104343968D01*
X89577719Y-104273789D01*
X89542506Y-104183240D01*
X89544625Y-104086108D01*
X89583753Y-103997181D01*
X89644902Y-103936031D01*
X89739139Y-103870047D01*
X89900047Y-103709139D01*
X90030568Y-103522734D01*
X90126739Y-103316496D01*
X90185635Y-103096692D01*
X90205468Y-102870000D01*
X90205468Y-102869994D01*
X90185636Y-102643320D01*
X90185635Y-102643308D01*
X90126739Y-102423504D01*
X90030568Y-102217266D01*
X90030565Y-102217262D01*
X90030563Y-102217258D01*
X89900050Y-102030865D01*
X89900049Y-102030864D01*
X89900047Y-102030861D01*
X89739139Y-101869953D01*
X89739133Y-101869949D01*
X89710561Y-101849942D01*
X89644902Y-101803968D01*
X89577719Y-101733789D01*
X89542506Y-101643240D01*
X89544625Y-101546108D01*
X89583753Y-101457181D01*
X89644902Y-101396031D01*
X89739139Y-101330047D01*
X89900047Y-101169139D01*
X90027858Y-100986605D01*
X91948924Y-100986605D01*
X91948924Y-100986612D01*
X91969119Y-101165854D01*
X91969120Y-101165860D01*
X91969121Y-101165864D01*
X92028700Y-101336131D01*
X92028701Y-101336132D01*
X92028703Y-101336138D01*
X92124668Y-101488865D01*
X92130173Y-101495767D01*
X92174767Y-101582083D01*
X92184500Y-101651020D01*
X92184500Y-112945539D01*
X92184499Y-112945557D01*
X92184499Y-113099186D01*
X92212741Y-113204587D01*
X92212742Y-113204587D01*
X92220312Y-113232837D01*
X92289492Y-113352661D01*
X92289493Y-113352662D01*
X92289495Y-113352665D01*
X92387335Y-113450505D01*
X92387337Y-113450506D01*
X101994903Y-123058073D01*
X102048879Y-123138855D01*
X102066267Y-123206264D01*
X102084630Y-123369245D01*
X102084631Y-123369251D01*
X102084632Y-123369255D01*
X102144211Y-123539522D01*
X102144212Y-123539523D01*
X102144214Y-123539529D01*
X102240180Y-123692257D01*
X102240182Y-123692259D01*
X102240184Y-123692262D01*
X102367738Y-123819816D01*
X102367740Y-123819817D01*
X102367742Y-123819819D01*
X102520470Y-123915785D01*
X102520473Y-123915786D01*
X102520478Y-123915789D01*
X102690745Y-123975368D01*
X102690754Y-123975369D01*
X102869996Y-123995565D01*
X102870000Y-123995565D01*
X102870004Y-123995565D01*
X103009908Y-123979801D01*
X103049255Y-123975368D01*
X103219522Y-123915789D01*
X103219527Y-123915785D01*
X103219529Y-123915785D01*
X103347425Y-123835422D01*
X103372262Y-123819816D01*
X103499816Y-123692262D01*
X103545644Y-123619328D01*
X103595785Y-123539529D01*
X103595785Y-123539527D01*
X103595789Y-123539522D01*
X103655368Y-123369255D01*
X103673733Y-123206264D01*
X103675565Y-123190003D01*
X103675565Y-123189996D01*
X103655369Y-123010754D01*
X103655368Y-123010745D01*
X103595789Y-122840478D01*
X103595786Y-122840473D01*
X103595785Y-122840470D01*
X103499819Y-122687742D01*
X103499817Y-122687740D01*
X103499816Y-122687738D01*
X103372262Y-122560184D01*
X103372259Y-122560182D01*
X103372257Y-122560180D01*
X103219529Y-122464214D01*
X103219524Y-122464212D01*
X103219522Y-122464211D01*
X103049255Y-122404632D01*
X103049251Y-122404631D01*
X103049245Y-122404630D01*
X102886264Y-122386267D01*
X102793697Y-122356764D01*
X102738073Y-122314903D01*
X93308430Y-112885260D01*
X93254454Y-112804478D01*
X93235500Y-112709190D01*
X93235500Y-102870000D01*
X99124357Y-102870000D01*
X99144884Y-103091533D01*
X99153659Y-103122373D01*
X99205771Y-103305528D01*
X99304942Y-103504689D01*
X99439019Y-103682236D01*
X99591090Y-103820867D01*
X99603439Y-103832125D01*
X99664686Y-103870047D01*
X99792599Y-103949247D01*
X100000060Y-104029618D01*
X100000063Y-104029619D01*
X100218754Y-104070500D01*
X100218757Y-104070500D01*
X100441245Y-104070500D01*
X100548914Y-104050372D01*
X100603807Y-104040111D01*
X100700956Y-104041233D01*
X100790280Y-104079446D01*
X100825632Y-104108801D01*
X104811570Y-108094739D01*
X104865546Y-108175521D01*
X104884500Y-108270809D01*
X104884500Y-121210282D01*
X104865546Y-121305570D01*
X104811572Y-121386349D01*
X104780182Y-121417738D01*
X104684214Y-121570470D01*
X104684211Y-121570476D01*
X104684211Y-121570478D01*
X104643050Y-121688111D01*
X104624632Y-121740746D01*
X104624630Y-121740754D01*
X104604435Y-121919996D01*
X104604435Y-121920003D01*
X104624630Y-122099245D01*
X104624631Y-122099251D01*
X104624632Y-122099255D01*
X104684211Y-122269522D01*
X104684212Y-122269523D01*
X104684214Y-122269529D01*
X104780180Y-122422257D01*
X104780182Y-122422259D01*
X104780184Y-122422262D01*
X104811572Y-122453650D01*
X104865546Y-122534429D01*
X104884500Y-122629717D01*
X104884500Y-126290282D01*
X104865546Y-126385570D01*
X104811572Y-126466349D01*
X104780182Y-126497738D01*
X104684214Y-126650470D01*
X104684211Y-126650476D01*
X104684211Y-126650478D01*
X104669823Y-126691598D01*
X104624632Y-126820746D01*
X104624630Y-126820754D01*
X104604435Y-126999996D01*
X104604435Y-127000003D01*
X104624630Y-127179245D01*
X104624631Y-127179251D01*
X104624632Y-127179255D01*
X104684211Y-127349522D01*
X104684212Y-127349523D01*
X104684214Y-127349529D01*
X104780180Y-127502257D01*
X104780182Y-127502259D01*
X104780184Y-127502262D01*
X104907738Y-127629816D01*
X104907740Y-127629817D01*
X104907742Y-127629819D01*
X105060470Y-127725785D01*
X105060473Y-127725786D01*
X105060478Y-127725789D01*
X105230745Y-127785368D01*
X105230754Y-127785369D01*
X105409996Y-127805565D01*
X105410000Y-127805565D01*
X105410004Y-127805565D01*
X105549908Y-127789801D01*
X105589255Y-127785368D01*
X105759522Y-127725789D01*
X105759527Y-127725785D01*
X105759529Y-127725785D01*
X105912257Y-127629819D01*
X105912256Y-127629819D01*
X105912262Y-127629816D01*
X106039816Y-127502262D01*
X106135789Y-127349522D01*
X106195368Y-127179255D01*
X106214087Y-127013122D01*
X106215565Y-127000003D01*
X106215565Y-126999996D01*
X106195369Y-126820754D01*
X106195368Y-126820745D01*
X106135789Y-126650478D01*
X106135786Y-126650473D01*
X106135785Y-126650470D01*
X106039817Y-126497738D01*
X106008428Y-126466349D01*
X105954453Y-126385567D01*
X105935500Y-126290282D01*
X105935500Y-122629717D01*
X105954454Y-122534429D01*
X106008427Y-122453650D01*
X106039816Y-122422262D01*
X106102496Y-122322508D01*
X106135785Y-122269529D01*
X106135785Y-122269527D01*
X106135789Y-122269522D01*
X106195368Y-122099255D01*
X106210693Y-121963239D01*
X106215565Y-121920003D01*
X106215565Y-121919996D01*
X106195369Y-121740754D01*
X106195368Y-121740745D01*
X106135789Y-121570478D01*
X106135786Y-121570473D01*
X106135785Y-121570470D01*
X106039817Y-121417738D01*
X106008428Y-121386349D01*
X105954453Y-121305567D01*
X105935500Y-121210282D01*
X105935500Y-108039261D01*
X105935501Y-108039248D01*
X105935501Y-107880817D01*
X105904833Y-107766365D01*
X105904833Y-107766364D01*
X105899688Y-107747166D01*
X105899688Y-107747165D01*
X105899688Y-107747164D01*
X105830505Y-107627335D01*
X105732665Y-107529495D01*
X105732662Y-107529493D01*
X101569762Y-103366593D01*
X101515786Y-103285811D01*
X101496832Y-103190523D01*
X101506339Y-103122379D01*
X101515115Y-103091536D01*
X101535643Y-102870000D01*
X101515115Y-102648464D01*
X101454229Y-102434472D01*
X101355058Y-102235311D01*
X101220981Y-102057764D01*
X101056562Y-101907876D01*
X101056560Y-101907874D01*
X100867406Y-101790756D01*
X100867405Y-101790755D01*
X100867401Y-101790753D01*
X100743672Y-101742820D01*
X100659936Y-101710380D01*
X100441246Y-101669500D01*
X100441243Y-101669500D01*
X100218757Y-101669500D01*
X100218754Y-101669500D01*
X100000063Y-101710380D01*
X99792601Y-101790752D01*
X99792593Y-101790756D01*
X99603439Y-101907874D01*
X99439018Y-102057765D01*
X99304941Y-102235312D01*
X99304941Y-102235313D01*
X99205772Y-102434469D01*
X99144884Y-102648466D01*
X99124357Y-102870000D01*
X93235500Y-102870000D01*
X93235500Y-101740815D01*
X93254454Y-101645527D01*
X93308427Y-101564748D01*
X93384305Y-101488871D01*
X93422758Y-101427673D01*
X93480274Y-101336138D01*
X93480274Y-101336136D01*
X93480278Y-101336131D01*
X93539857Y-101165864D01*
X93560054Y-100986609D01*
X93559618Y-100982741D01*
X93539858Y-100807363D01*
X93539857Y-100807354D01*
X93480278Y-100637087D01*
X93480275Y-100637082D01*
X93480274Y-100637079D01*
X93384308Y-100484351D01*
X93384306Y-100484349D01*
X93384305Y-100484347D01*
X93256751Y-100356793D01*
X93256748Y-100356791D01*
X93256746Y-100356789D01*
X93104018Y-100260823D01*
X93104013Y-100260821D01*
X93104011Y-100260820D01*
X92933744Y-100201241D01*
X92933740Y-100201240D01*
X92933734Y-100201239D01*
X92754493Y-100181044D01*
X92754485Y-100181044D01*
X92575243Y-100201239D01*
X92575235Y-100201240D01*
X92575234Y-100201241D01*
X92404967Y-100260820D01*
X92404965Y-100260820D01*
X92404965Y-100260821D01*
X92404959Y-100260823D01*
X92252231Y-100356789D01*
X92124669Y-100484351D01*
X92028703Y-100637079D01*
X92028700Y-100637085D01*
X92028700Y-100637087D01*
X91973121Y-100795925D01*
X91969121Y-100807355D01*
X91969119Y-100807363D01*
X91948924Y-100986605D01*
X90027858Y-100986605D01*
X90030568Y-100982734D01*
X90126739Y-100776496D01*
X90185635Y-100556692D01*
X90203124Y-100356793D01*
X90205468Y-100330005D01*
X90205468Y-100329994D01*
X90185636Y-100103320D01*
X90185635Y-100103308D01*
X90126739Y-99883504D01*
X90030568Y-99677266D01*
X90030565Y-99677262D01*
X90030563Y-99677258D01*
X89900050Y-99490865D01*
X89900049Y-99490864D01*
X89900047Y-99490861D01*
X89739139Y-99329953D01*
X89739135Y-99329950D01*
X89739134Y-99329949D01*
X89731922Y-99324899D01*
X89664741Y-99254715D01*
X89629531Y-99164165D01*
X89631654Y-99067033D01*
X89670786Y-98978107D01*
X89698379Y-98949083D01*
X89698797Y-98942351D01*
X88988584Y-98232138D01*
X89073694Y-98209333D01*
X89176306Y-98150090D01*
X89260090Y-98066306D01*
X89319333Y-97963694D01*
X89342138Y-97878584D01*
X90051186Y-98587632D01*
X90051187Y-98587632D01*
X90135483Y-98458608D01*
X90135484Y-98458607D01*
X90228682Y-98246136D01*
X90285638Y-98021219D01*
X90304798Y-97790005D01*
X90304798Y-97789994D01*
X90285638Y-97558780D01*
X90228682Y-97333863D01*
X90135481Y-97121386D01*
X90051187Y-96992366D01*
X90051186Y-96992365D01*
X89342137Y-97701414D01*
X89319333Y-97616306D01*
X89260090Y-97513694D01*
X89176306Y-97429910D01*
X89073694Y-97370667D01*
X88988583Y-97347861D01*
X89698798Y-96637646D01*
X89668354Y-96613951D01*
X89464310Y-96503527D01*
X89244850Y-96428186D01*
X89244851Y-96428186D01*
X89016007Y-96390000D01*
X88783993Y-96390000D01*
X88555149Y-96428186D01*
X88335694Y-96503525D01*
X88131647Y-96613951D01*
X88101201Y-96637646D01*
X88811416Y-97347861D01*
X88726306Y-97370667D01*
X88623694Y-97429910D01*
X88539910Y-97513694D01*
X88480667Y-97616306D01*
X88457861Y-97701416D01*
X87748811Y-96992366D01*
X87664517Y-97121388D01*
X87664517Y-97121389D01*
X87571317Y-97333863D01*
X87514361Y-97558780D01*
X87495202Y-97789994D01*
X77979193Y-97789994D01*
X77979193Y-95289782D01*
X77998147Y-95194494D01*
X78052121Y-95113714D01*
X81504378Y-91661456D01*
X81504383Y-91661453D01*
X81524876Y-91640959D01*
X81524878Y-91640959D01*
X81771768Y-91394070D01*
X81771768Y-91394068D01*
X81792228Y-91373609D01*
X81792248Y-91373587D01*
X84122165Y-89043669D01*
X84122170Y-89043666D01*
X84130253Y-89035583D01*
X84211031Y-88981602D01*
X84306318Y-88962642D01*
X84401607Y-88981590D01*
X84482392Y-89035562D01*
X84482403Y-89035572D01*
X88479493Y-93032662D01*
X88479495Y-93032665D01*
X88577335Y-93130505D01*
X88577337Y-93130506D01*
X88577338Y-93130507D01*
X88697156Y-93199684D01*
X88697160Y-93199685D01*
X88697164Y-93199688D01*
X88725408Y-93207256D01*
X88830817Y-93235501D01*
X88984444Y-93235501D01*
X88984460Y-93235500D01*
X99098643Y-93235500D01*
X99193931Y-93254454D01*
X99274713Y-93308430D01*
X99296847Y-93336376D01*
X99298005Y-93335502D01*
X99304940Y-93344686D01*
X99304942Y-93344689D01*
X99439019Y-93522236D01*
X99603438Y-93672124D01*
X99686583Y-93723605D01*
X99757619Y-93789881D01*
X99797886Y-93878298D01*
X99804500Y-93935308D01*
X99804500Y-97113376D01*
X99785546Y-97208664D01*
X99771141Y-97237874D01*
X99766604Y-97245730D01*
X99766604Y-97245734D01*
X99730791Y-97379387D01*
X99730791Y-97517752D01*
X99746853Y-97577695D01*
X99746853Y-97577698D01*
X99766602Y-97651402D01*
X99766604Y-97651407D01*
X99835784Y-97771231D01*
X99835785Y-97771232D01*
X99835787Y-97771235D01*
X99933627Y-97869075D01*
X99933629Y-97869076D01*
X99933630Y-97869077D01*
X100053448Y-97938254D01*
X100053452Y-97938255D01*
X100053456Y-97938258D01*
X100081700Y-97945826D01*
X100187109Y-97974071D01*
X100340736Y-97974071D01*
X100340752Y-97974070D01*
X106950772Y-97974070D01*
X107046060Y-97993024D01*
X107126842Y-98047000D01*
X107180818Y-98127782D01*
X107199772Y-98223070D01*
X107199772Y-107472583D01*
X107199771Y-107472601D01*
X107199771Y-107487861D01*
X107199771Y-107626227D01*
X107204314Y-107643181D01*
X107220051Y-107701914D01*
X107220053Y-107701918D01*
X107235583Y-107759877D01*
X107235587Y-107759887D01*
X107304764Y-107879705D01*
X107304765Y-107879706D01*
X107304767Y-107879709D01*
X107402607Y-107977549D01*
X107402609Y-107977550D01*
X118103617Y-118678558D01*
X118157593Y-118759340D01*
X118176547Y-118854628D01*
X118176547Y-135561157D01*
X118176546Y-135561175D01*
X118176546Y-135714800D01*
X118201045Y-135806231D01*
X118201045Y-135806233D01*
X118201046Y-135806233D01*
X118212359Y-135848456D01*
X118281539Y-135968279D01*
X118281540Y-135968280D01*
X118281542Y-135968283D01*
X118379382Y-136066123D01*
X118379384Y-136066124D01*
X123716599Y-141403339D01*
X123770575Y-141484121D01*
X123787963Y-141551529D01*
X123806327Y-141714514D01*
X123806328Y-141714519D01*
X123806329Y-141714523D01*
X123865908Y-141884790D01*
X123865909Y-141884791D01*
X123865911Y-141884797D01*
X123961877Y-142037525D01*
X123961879Y-142037527D01*
X123961881Y-142037530D01*
X124089435Y-142165084D01*
X124089437Y-142165085D01*
X124089439Y-142165087D01*
X124242167Y-142261053D01*
X124242170Y-142261054D01*
X124242175Y-142261057D01*
X124412442Y-142320636D01*
X124412449Y-142320636D01*
X124412450Y-142320637D01*
X124426548Y-142322226D01*
X124519114Y-142351729D01*
X124593345Y-142414411D01*
X124593954Y-142415591D01*
X124608655Y-142393590D01*
X124689437Y-142339614D01*
X124756846Y-142322226D01*
X124770943Y-142320637D01*
X124770942Y-142320637D01*
X124770952Y-142320636D01*
X124941219Y-142261057D01*
X124941224Y-142261053D01*
X124941226Y-142261053D01*
X125053881Y-142190266D01*
X125093959Y-142165084D01*
X125125347Y-142133695D01*
X125206126Y-142079722D01*
X125301414Y-142060768D01*
X125576388Y-142060768D01*
X125576404Y-142060769D01*
X125591665Y-142060769D01*
X125730031Y-142060769D01*
X125835439Y-142032524D01*
X125863684Y-142024956D01*
X125983513Y-141955773D01*
X126081353Y-141857933D01*
X126081354Y-141857930D01*
X146708458Y-121230828D01*
X146777642Y-121110998D01*
X146813454Y-120977346D01*
X146813454Y-120838979D01*
X146813454Y-120823719D01*
X146813453Y-120823701D01*
X146813453Y-119038021D01*
X146832407Y-118942733D01*
X146857682Y-118899887D01*
X146856649Y-118899238D01*
X146960057Y-118734665D01*
X146960057Y-118734663D01*
X146960061Y-118734658D01*
X147019640Y-118564391D01*
X147039837Y-118385136D01*
X147034377Y-118336679D01*
X147019641Y-118205890D01*
X147019640Y-118205881D01*
X146960061Y-118035614D01*
X146960058Y-118035609D01*
X146960057Y-118035606D01*
X146864091Y-117882878D01*
X146864089Y-117882876D01*
X146864088Y-117882874D01*
X146736534Y-117755320D01*
X146736531Y-117755318D01*
X146736529Y-117755316D01*
X146583801Y-117659350D01*
X146583796Y-117659348D01*
X146583794Y-117659347D01*
X146413527Y-117599768D01*
X146413523Y-117599767D01*
X146413517Y-117599766D01*
X146234276Y-117579571D01*
X146234268Y-117579571D01*
X146055026Y-117599766D01*
X146055018Y-117599767D01*
X146055017Y-117599768D01*
X145884750Y-117659347D01*
X145884748Y-117659347D01*
X145884748Y-117659348D01*
X145884742Y-117659350D01*
X145732014Y-117755316D01*
X145604452Y-117882878D01*
X145508486Y-118035606D01*
X145508483Y-118035612D01*
X145508483Y-118035614D01*
X145481296Y-118113312D01*
X145448904Y-118205882D01*
X145448902Y-118205890D01*
X145428707Y-118385132D01*
X145428707Y-118385139D01*
X145448902Y-118564381D01*
X145448903Y-118564387D01*
X145448904Y-118564391D01*
X145508483Y-118734658D01*
X145508484Y-118734659D01*
X145508486Y-118734665D01*
X145604452Y-118887393D01*
X145604454Y-118887395D01*
X145604456Y-118887398D01*
X145689525Y-118972467D01*
X145743499Y-119053246D01*
X145762453Y-119148534D01*
X145762453Y-120587353D01*
X145743499Y-120682641D01*
X145689523Y-120763423D01*
X125516109Y-140936838D01*
X125435327Y-140990814D01*
X125340039Y-141009768D01*
X125301414Y-141009768D01*
X125206126Y-140990814D01*
X125125347Y-140936840D01*
X125093959Y-140905452D01*
X125093956Y-140905450D01*
X125093954Y-140905448D01*
X124941226Y-140809482D01*
X124941221Y-140809480D01*
X124941219Y-140809479D01*
X124770952Y-140749900D01*
X124770948Y-140749899D01*
X124770943Y-140749898D01*
X124607958Y-140731534D01*
X124515392Y-140702030D01*
X124459768Y-140660170D01*
X119300477Y-135500879D01*
X119246501Y-135420097D01*
X119227547Y-135324809D01*
X119227547Y-118464635D01*
X119193265Y-118336694D01*
X119191735Y-118330983D01*
X119191734Y-118330981D01*
X119122554Y-118211157D01*
X119122553Y-118211156D01*
X119122552Y-118211154D01*
X119024712Y-118113314D01*
X119024709Y-118113312D01*
X108323702Y-107412305D01*
X108269726Y-107331523D01*
X108250772Y-107236235D01*
X108250772Y-97688590D01*
X108221058Y-97577698D01*
X108214960Y-97554938D01*
X108206335Y-97539999D01*
X108145779Y-97435111D01*
X108141541Y-97429589D01*
X108098570Y-97342454D01*
X108098569Y-97342451D01*
X108072653Y-97245732D01*
X108003473Y-97125908D01*
X108003472Y-97125907D01*
X108003471Y-97125905D01*
X107905631Y-97028065D01*
X107905628Y-97028063D01*
X107905627Y-97028062D01*
X107785803Y-96958882D01*
X107785804Y-96958882D01*
X107652149Y-96923070D01*
X107500528Y-96923070D01*
X107500512Y-96923069D01*
X107485251Y-96923069D01*
X107346885Y-96923069D01*
X107331624Y-96923069D01*
X107331608Y-96923070D01*
X101104500Y-96923070D01*
X101009212Y-96904116D01*
X100928430Y-96850140D01*
X100874454Y-96769358D01*
X100855500Y-96674070D01*
X100855500Y-93935308D01*
X100874454Y-93840020D01*
X100928430Y-93759238D01*
X100973414Y-93723606D01*
X101056562Y-93672124D01*
X101220981Y-93522236D01*
X101355058Y-93344689D01*
X101454229Y-93145528D01*
X101515115Y-92931536D01*
X101535643Y-92710000D01*
X101515115Y-92488464D01*
X101454229Y-92274472D01*
X101355058Y-92075311D01*
X101220981Y-91897764D01*
X101056562Y-91747876D01*
X101056560Y-91747874D01*
X100867406Y-91630756D01*
X100867405Y-91630755D01*
X100867401Y-91630753D01*
X100743675Y-91582821D01*
X100659936Y-91550380D01*
X100441246Y-91509500D01*
X100441243Y-91509500D01*
X100218757Y-91509500D01*
X100218754Y-91509500D01*
X100000063Y-91550380D01*
X99792601Y-91630752D01*
X99792593Y-91630756D01*
X99603439Y-91747874D01*
X99439018Y-91897765D01*
X99401941Y-91946862D01*
X99304942Y-92075311D01*
X99304942Y-92075312D01*
X99298005Y-92084498D01*
X99295437Y-92082559D01*
X99244081Y-92137611D01*
X99155666Y-92177883D01*
X99098643Y-92184500D01*
X89220809Y-92184500D01*
X89125521Y-92165546D01*
X89044739Y-92111570D01*
X84713120Y-87779951D01*
X84659144Y-87699169D01*
X84640190Y-87603881D01*
X84659144Y-87508593D01*
X84713117Y-87427814D01*
X84852011Y-87288921D01*
X84977190Y-87116627D01*
X85073875Y-86926872D01*
X85139685Y-86724328D01*
X85173000Y-86513983D01*
X85173000Y-86206017D01*
X85139685Y-85995672D01*
X85073875Y-85793128D01*
X84977190Y-85603373D01*
X84852011Y-85431079D01*
X84701421Y-85280489D01*
X84638398Y-85234700D01*
X84529130Y-85155312D01*
X84529129Y-85155311D01*
X84529127Y-85155310D01*
X84339372Y-85058625D01*
X84339361Y-85058621D01*
X84158301Y-84999791D01*
X84136828Y-84992815D01*
X84136823Y-84992814D01*
X84136815Y-84992812D01*
X83926494Y-84959501D01*
X83926485Y-84959500D01*
X83926483Y-84959500D01*
X83713517Y-84959500D01*
X83713514Y-84959500D01*
X83713505Y-84959501D01*
X83503184Y-84992812D01*
X83503173Y-84992814D01*
X83503172Y-84992815D01*
X83503169Y-84992815D01*
X83503165Y-84992817D01*
X83300638Y-85058621D01*
X83300627Y-85058625D01*
X83110869Y-85155312D01*
X82938580Y-85280488D01*
X82938576Y-85280491D01*
X82789690Y-85429377D01*
X82708908Y-85483353D01*
X82613620Y-85502307D01*
X82518332Y-85483353D01*
X82437551Y-85429376D01*
X82412176Y-85399666D01*
X82387907Y-85366263D01*
X82226236Y-85204592D01*
X82041279Y-85070213D01*
X82041280Y-85070213D01*
X81837563Y-84966415D01*
X81837558Y-84966413D01*
X81620139Y-84895769D01*
X81620127Y-84895766D01*
X81530000Y-84881490D01*
X81530000Y-85869252D01*
X81492292Y-85847482D01*
X81352409Y-85810000D01*
X81207591Y-85810000D01*
X81067708Y-85847482D01*
X81030000Y-85869252D01*
X81030000Y-84881490D01*
X81029999Y-84881490D01*
X80939872Y-84895766D01*
X80939860Y-84895769D01*
X80722441Y-84966413D01*
X80722436Y-84966415D01*
X80518719Y-85070213D01*
X80518714Y-85070217D01*
X80369645Y-85178522D01*
X80281415Y-85219197D01*
X80184335Y-85223011D01*
X80093185Y-85189384D01*
X80034647Y-85135273D01*
X80034406Y-85135515D01*
X80028270Y-85129379D01*
X80021845Y-85123440D01*
X80020553Y-85121662D01*
X80020551Y-85121660D01*
X80020550Y-85121658D01*
X79930842Y-85031950D01*
X79930839Y-85031948D01*
X79817803Y-84974353D01*
X79817799Y-84974352D01*
X79724030Y-84959501D01*
X79724022Y-84959500D01*
X79724019Y-84959500D01*
X79724014Y-84959500D01*
X77755984Y-84959500D01*
X77662195Y-84974354D01*
X77549159Y-85031949D01*
X77459448Y-85121660D01*
X77401853Y-85234696D01*
X77401852Y-85234700D01*
X77387001Y-85328469D01*
X77387000Y-85328485D01*
X77387000Y-87391515D01*
X77395824Y-87447228D01*
X77401854Y-87485304D01*
X77459450Y-87598342D01*
X77549158Y-87688050D01*
X77549160Y-87688051D01*
X77662196Y-87745646D01*
X77662200Y-87745647D01*
X77712327Y-87753586D01*
X77755981Y-87760500D01*
X79724018Y-87760499D01*
X79817804Y-87745646D01*
X79930842Y-87688050D01*
X80020550Y-87598342D01*
X80020554Y-87598334D01*
X80021841Y-87596564D01*
X80028269Y-87590621D01*
X80034406Y-87584485D01*
X80034647Y-87584726D01*
X80093184Y-87530615D01*
X80184334Y-87496988D01*
X80281414Y-87500802D01*
X80369645Y-87541476D01*
X80369646Y-87541477D01*
X80518720Y-87649786D01*
X80722436Y-87753584D01*
X80722441Y-87753586D01*
X80939874Y-87824234D01*
X81030000Y-87838509D01*
X81030000Y-86850747D01*
X81067708Y-86872518D01*
X81207591Y-86910000D01*
X81352409Y-86910000D01*
X81492292Y-86872518D01*
X81530000Y-86850747D01*
X81530000Y-87838508D01*
X81620125Y-87824234D01*
X81837558Y-87753586D01*
X81837563Y-87753584D01*
X82041280Y-87649786D01*
X82226236Y-87515407D01*
X82387908Y-87353735D01*
X82412175Y-87320335D01*
X82483517Y-87254386D01*
X82574667Y-87220758D01*
X82671747Y-87224571D01*
X82759978Y-87265246D01*
X82789684Y-87290616D01*
X82938579Y-87439511D01*
X83110873Y-87564690D01*
X83158547Y-87588981D01*
X83234840Y-87649125D01*
X83282312Y-87733892D01*
X83294500Y-87810839D01*
X83294500Y-88281858D01*
X83275546Y-88377146D01*
X83221570Y-88457928D01*
X81028600Y-90650898D01*
X81028598Y-90650900D01*
X80898273Y-90781224D01*
X80850402Y-90829095D01*
X80850402Y-90829096D01*
X77131030Y-94548467D01*
X77131028Y-94548469D01*
X77131027Y-94548468D01*
X77033189Y-94646306D01*
X77033187Y-94646309D01*
X76964006Y-94766136D01*
X76964005Y-94766138D01*
X76928192Y-94899791D01*
X76928192Y-95058222D01*
X76928193Y-95058235D01*
X76928193Y-100717959D01*
X76909239Y-100813247D01*
X76855265Y-100894026D01*
X76823875Y-100925415D01*
X76727907Y-101078147D01*
X76727904Y-101078153D01*
X76727904Y-101078155D01*
X76696068Y-101169139D01*
X76668325Y-101248423D01*
X76668323Y-101248431D01*
X76648128Y-101427673D01*
X69293261Y-101427673D01*
X69324902Y-101396031D01*
X69419139Y-101330047D01*
X69580047Y-101169139D01*
X69710568Y-100982734D01*
X69806739Y-100776496D01*
X69865635Y-100556692D01*
X69883124Y-100356793D01*
X69885468Y-100330005D01*
X69885468Y-100329994D01*
X69865636Y-100103320D01*
X69865635Y-100103308D01*
X69806739Y-99883504D01*
X69710568Y-99677266D01*
X69710565Y-99677262D01*
X69710563Y-99677258D01*
X69580050Y-99490865D01*
X69580049Y-99490864D01*
X69580047Y-99490861D01*
X69419139Y-99329953D01*
X69419133Y-99329949D01*
X69364776Y-99291888D01*
X69324902Y-99263968D01*
X69257719Y-99193789D01*
X69222506Y-99103240D01*
X69224625Y-99006108D01*
X69263753Y-98917181D01*
X69324902Y-98856031D01*
X69419139Y-98790047D01*
X69580047Y-98629139D01*
X69710568Y-98442734D01*
X69806739Y-98236496D01*
X69865635Y-98016692D01*
X69872497Y-97938257D01*
X69885468Y-97790005D01*
X69885468Y-97789994D01*
X69865636Y-97563320D01*
X69865635Y-97563308D01*
X69806739Y-97343504D01*
X69710568Y-97137266D01*
X69710565Y-97137262D01*
X69710563Y-97137258D01*
X69580050Y-96950865D01*
X69580049Y-96950864D01*
X69580047Y-96950861D01*
X69419139Y-96789953D01*
X69419135Y-96789950D01*
X69419134Y-96789949D01*
X69232741Y-96659436D01*
X69232727Y-96659428D01*
X69026499Y-96563262D01*
X69026496Y-96563261D01*
X68806694Y-96504365D01*
X68806679Y-96504363D01*
X68580006Y-96484532D01*
X68579994Y-96484532D01*
X68353320Y-96504363D01*
X68353305Y-96504365D01*
X68133503Y-96563261D01*
X68133500Y-96563262D01*
X67927272Y-96659428D01*
X67927258Y-96659436D01*
X67740865Y-96789949D01*
X67579949Y-96950865D01*
X67449433Y-97137262D01*
X67445574Y-97143948D01*
X67381517Y-97216994D01*
X67294382Y-97259966D01*
X67197435Y-97266321D01*
X67105435Y-97235093D01*
X67032389Y-97171036D01*
X66989417Y-97083901D01*
X66980932Y-97019451D01*
X66980932Y-94112450D01*
X66995180Y-94040817D01*
X66992672Y-94040145D01*
X67032708Y-93890730D01*
X67032708Y-93857586D01*
X67051662Y-93762298D01*
X67105636Y-93681518D01*
X74828181Y-85958973D01*
X74828184Y-85958972D01*
X74926024Y-85861132D01*
X74995207Y-85741303D01*
X75004005Y-85708470D01*
X75031020Y-85607650D01*
X75031020Y-85469284D01*
X75031020Y-85454024D01*
X75031019Y-85454006D01*
X75031019Y-84560866D01*
X75049973Y-84465578D01*
X75103949Y-84384796D01*
X75184731Y-84330820D01*
X75280019Y-84311866D01*
X102557289Y-84311866D01*
X102652577Y-84330820D01*
X102733359Y-84384796D01*
X102787335Y-84465578D01*
X102806289Y-84560866D01*
X102787335Y-84656154D01*
X102733359Y-84736936D01*
X102670333Y-84782726D01*
X102653851Y-84791123D01*
X102653850Y-84791125D01*
X102653849Y-84791125D01*
X102653847Y-84791127D01*
X102604976Y-84839998D01*
X102564137Y-84880837D01*
X102506542Y-84993873D01*
X102506541Y-84993877D01*
X102491690Y-85087646D01*
X102491689Y-85087662D01*
X102491689Y-87150692D01*
X102502786Y-87220758D01*
X102506543Y-87244481D01*
X102564139Y-87357519D01*
X102653847Y-87447227D01*
X102653849Y-87447228D01*
X102766885Y-87504823D01*
X102766889Y-87504824D01*
X102817016Y-87512763D01*
X102860670Y-87519677D01*
X104828707Y-87519676D01*
X104922493Y-87504823D01*
X105035531Y-87447227D01*
X105125239Y-87357519D01*
X105125243Y-87357511D01*
X105126530Y-87355741D01*
X105132958Y-87349798D01*
X105139095Y-87343662D01*
X105139336Y-87343903D01*
X105197873Y-87289792D01*
X105289023Y-87256165D01*
X105386103Y-87259979D01*
X105474334Y-87300653D01*
X105474335Y-87300654D01*
X105623409Y-87408963D01*
X105827125Y-87512761D01*
X105827130Y-87512763D01*
X106044563Y-87583411D01*
X106134689Y-87597686D01*
X106134689Y-86609924D01*
X106172397Y-86631695D01*
X106312280Y-86669177D01*
X106457098Y-86669177D01*
X106596981Y-86631695D01*
X106634689Y-86609924D01*
X106634689Y-87597685D01*
X106724814Y-87583411D01*
X106942247Y-87512763D01*
X106942252Y-87512761D01*
X107145969Y-87408963D01*
X107330925Y-87274584D01*
X107492597Y-87112912D01*
X107516864Y-87079512D01*
X107588206Y-87013563D01*
X107679356Y-86979935D01*
X107776436Y-86983748D01*
X107864667Y-87024423D01*
X107894373Y-87049793D01*
X108043268Y-87198688D01*
X108215562Y-87323867D01*
X108405317Y-87420552D01*
X108607861Y-87486362D01*
X108607872Y-87486363D01*
X108607873Y-87486364D01*
X108699033Y-87500802D01*
X108818206Y-87519677D01*
X108818210Y-87519677D01*
X109031168Y-87519677D01*
X109031172Y-87519677D01*
X109241517Y-87486362D01*
X109444061Y-87420552D01*
X109633816Y-87323867D01*
X109806110Y-87198688D01*
X109956700Y-87048098D01*
X110081879Y-86875804D01*
X110178564Y-86686049D01*
X110244374Y-86483505D01*
X110277689Y-86273160D01*
X110277689Y-85965194D01*
X110244374Y-85754849D01*
X110178564Y-85552305D01*
X110081879Y-85362550D01*
X109956700Y-85190256D01*
X109806110Y-85039666D01*
X109795490Y-85031950D01*
X109633819Y-84914489D01*
X109633818Y-84914488D01*
X109633816Y-84914487D01*
X109444061Y-84817802D01*
X109444050Y-84817798D01*
X109382129Y-84797679D01*
X109297361Y-84750208D01*
X109237213Y-84673910D01*
X109210841Y-84580403D01*
X109222260Y-84483922D01*
X109269731Y-84399154D01*
X109346029Y-84339006D01*
X109439536Y-84312634D01*
X109459073Y-84311866D01*
X117697303Y-84311866D01*
X117792591Y-84330820D01*
X117873373Y-84384796D01*
X118015106Y-84526529D01*
X118069082Y-84607311D01*
X118088036Y-84702599D01*
X118088036Y-115348286D01*
X118069082Y-115443574D01*
X118049870Y-115480762D01*
X118005912Y-115550720D01*
X118005909Y-115550726D01*
X118005908Y-115550728D01*
X117956566Y-115691741D01*
X117946329Y-115720996D01*
X117946327Y-115721004D01*
X117926132Y-115900246D01*
X117926132Y-115900253D01*
X117946327Y-116079495D01*
X117946328Y-116079501D01*
X117946329Y-116079505D01*
X118005908Y-116249772D01*
X118005909Y-116249773D01*
X118005911Y-116249779D01*
X118101877Y-116402507D01*
X118101879Y-116402509D01*
X118101881Y-116402512D01*
X118229435Y-116530066D01*
X118229437Y-116530067D01*
X118229439Y-116530069D01*
X118382167Y-116626035D01*
X118382170Y-116626036D01*
X118382175Y-116626039D01*
X118552442Y-116685618D01*
X118552451Y-116685619D01*
X118731693Y-116705815D01*
X118731697Y-116705815D01*
X118731701Y-116705815D01*
X118871605Y-116690051D01*
X118910952Y-116685618D01*
X119081219Y-116626039D01*
X119081224Y-116626035D01*
X119081226Y-116626035D01*
X119203940Y-116548928D01*
X119233959Y-116530066D01*
X119361513Y-116402512D01*
X119386695Y-116362434D01*
X119457482Y-116249779D01*
X119457482Y-116249777D01*
X119457486Y-116249772D01*
X119517065Y-116079505D01*
X119524204Y-116016143D01*
X119553706Y-115923580D01*
X119615537Y-115850355D01*
X119602231Y-115841464D01*
X119910287Y-115841464D01*
X119966313Y-115888773D01*
X120004662Y-115963004D01*
X120006219Y-115962424D01*
X120061906Y-116111729D01*
X120148070Y-116226829D01*
X120148072Y-116226831D01*
X120263172Y-116312995D01*
X120397881Y-116363238D01*
X120397888Y-116363240D01*
X120457427Y-116369641D01*
X120457435Y-116369642D01*
X120780259Y-116369642D01*
X120780260Y-116369641D01*
X120780260Y-115399972D01*
X120800005Y-115419717D01*
X120885515Y-115469086D01*
X120980890Y-115494642D01*
X121079630Y-115494642D01*
X121175005Y-115469086D01*
X121260515Y-115419717D01*
X121280260Y-115399972D01*
X121280260Y-116369641D01*
X121280261Y-116369642D01*
X121603085Y-116369642D01*
X121603092Y-116369641D01*
X121662631Y-116363240D01*
X121662638Y-116363238D01*
X121797348Y-116312995D01*
X121840122Y-116280974D01*
X121927762Y-116239042D01*
X122024778Y-116233840D01*
X122037912Y-116236088D01*
X122209104Y-116270141D01*
X122209105Y-116270142D01*
X122209106Y-116270142D01*
X122391415Y-116270142D01*
X122391419Y-116270141D01*
X122570214Y-116234576D01*
X122570214Y-116234575D01*
X122570218Y-116234575D01*
X122700473Y-116180621D01*
X122795760Y-116161668D01*
X122891048Y-116180622D01*
X122971830Y-116234598D01*
X123025806Y-116315380D01*
X123044760Y-116410668D01*
X123044760Y-126761499D01*
X123025806Y-126856787D01*
X122971830Y-126937569D01*
X120910055Y-128999344D01*
X120829273Y-129053320D01*
X120761864Y-129070708D01*
X120598882Y-129089071D01*
X120598874Y-129089072D01*
X120598873Y-129089073D01*
X120428606Y-129148652D01*
X120428604Y-129148652D01*
X120428604Y-129148653D01*
X120428598Y-129148655D01*
X120275870Y-129244621D01*
X120148308Y-129372183D01*
X120052342Y-129524911D01*
X120052339Y-129524917D01*
X120052339Y-129524919D01*
X119998171Y-129679724D01*
X119992760Y-129695187D01*
X119992758Y-129695195D01*
X119972563Y-129874437D01*
X119972563Y-129874444D01*
X119992758Y-130053686D01*
X119992759Y-130053692D01*
X119992760Y-130053696D01*
X120052339Y-130223963D01*
X120052340Y-130223964D01*
X120052342Y-130223970D01*
X120148308Y-130376698D01*
X120148310Y-130376700D01*
X120148312Y-130376703D01*
X120275866Y-130504257D01*
X120275868Y-130504258D01*
X120275870Y-130504260D01*
X120428598Y-130600226D01*
X120428601Y-130600227D01*
X120428606Y-130600230D01*
X120598873Y-130659809D01*
X120598882Y-130659810D01*
X120778124Y-130680006D01*
X120778128Y-130680006D01*
X120778132Y-130680006D01*
X120918036Y-130664242D01*
X120957383Y-130659809D01*
X121127650Y-130600230D01*
X121127655Y-130600226D01*
X121127657Y-130600226D01*
X121280385Y-130504260D01*
X121280384Y-130504260D01*
X121280390Y-130504257D01*
X121407944Y-130376703D01*
X121503917Y-130223963D01*
X121563496Y-130053696D01*
X121573699Y-129963145D01*
X121581861Y-129890703D01*
X121611364Y-129798136D01*
X121653221Y-129742515D01*
X123892922Y-127502815D01*
X123892925Y-127502814D01*
X123990765Y-127404974D01*
X124059948Y-127285145D01*
X124067516Y-127256900D01*
X124095761Y-127151492D01*
X124095761Y-127013126D01*
X124095761Y-126997866D01*
X124095760Y-126997848D01*
X124095760Y-116231136D01*
X124114714Y-116135848D01*
X124168687Y-116055069D01*
X124289143Y-115934614D01*
X124390427Y-115783031D01*
X124460193Y-115614600D01*
X124495760Y-115435796D01*
X124495760Y-114803488D01*
X124490761Y-114778357D01*
X124460194Y-114624687D01*
X124460193Y-114624686D01*
X124460193Y-114624684D01*
X124390427Y-114456253D01*
X124289143Y-114304670D01*
X124160232Y-114175759D01*
X124008649Y-114074475D01*
X124008645Y-114074473D01*
X124008643Y-114074472D01*
X123858911Y-114012452D01*
X123840218Y-114004709D01*
X123840216Y-114004708D01*
X123840215Y-114004708D01*
X123840214Y-114004707D01*
X123661419Y-113969142D01*
X123661414Y-113969142D01*
X123479106Y-113969142D01*
X123479100Y-113969142D01*
X123300305Y-114004707D01*
X123300304Y-114004708D01*
X123131876Y-114074472D01*
X123131875Y-114074473D01*
X123131873Y-114074473D01*
X123131871Y-114074475D01*
X123073593Y-114113414D01*
X122983835Y-114150592D01*
X122886680Y-114150591D01*
X122796926Y-114113414D01*
X122738649Y-114074475D01*
X122738643Y-114074472D01*
X122588911Y-114012452D01*
X122570218Y-114004709D01*
X122570216Y-114004708D01*
X122570215Y-114004708D01*
X122570214Y-114004707D01*
X122391419Y-113969142D01*
X122391414Y-113969142D01*
X122209106Y-113969142D01*
X122209100Y-113969142D01*
X122037924Y-114003192D01*
X121940769Y-114003193D01*
X121851009Y-113966013D01*
X121840124Y-113958311D01*
X121797347Y-113926288D01*
X121662638Y-113876045D01*
X121662631Y-113876043D01*
X121603092Y-113869642D01*
X121280261Y-113869642D01*
X121280260Y-113869643D01*
X121280260Y-114839312D01*
X121260515Y-114819567D01*
X121175005Y-114770198D01*
X121079630Y-114744642D01*
X120980890Y-114744642D01*
X120885515Y-114770198D01*
X120800005Y-114819567D01*
X120780260Y-114839312D01*
X120780260Y-113869643D01*
X120780259Y-113869642D01*
X120457427Y-113869642D01*
X120397888Y-113876043D01*
X120397881Y-113876045D01*
X120263172Y-113926288D01*
X120148072Y-114012452D01*
X120148070Y-114012454D01*
X120061906Y-114127554D01*
X120011663Y-114262263D01*
X120011661Y-114262270D01*
X120005260Y-114321809D01*
X120005260Y-114869641D01*
X120005261Y-114869642D01*
X120749930Y-114869642D01*
X120730185Y-114889387D01*
X120680816Y-114974897D01*
X120655260Y-115070272D01*
X120655260Y-115169012D01*
X120680816Y-115264387D01*
X120730185Y-115349897D01*
X120749930Y-115369642D01*
X120005261Y-115369642D01*
X120005260Y-115369643D01*
X120005260Y-115650667D01*
X119986306Y-115745955D01*
X119932330Y-115826737D01*
X119910287Y-115841464D01*
X119602231Y-115841464D01*
X119580190Y-115826737D01*
X119526214Y-115745955D01*
X119521233Y-115732907D01*
X119517065Y-115720995D01*
X119457486Y-115550728D01*
X119457483Y-115550723D01*
X119457482Y-115550720D01*
X119361516Y-115397992D01*
X119361514Y-115397990D01*
X119361513Y-115397988D01*
X119233959Y-115270434D01*
X119233956Y-115270432D01*
X119233951Y-115270427D01*
X119232781Y-115269494D01*
X119231495Y-115267971D01*
X119224071Y-115260547D01*
X119224697Y-115259920D01*
X119170102Y-115195263D01*
X119140601Y-115102695D01*
X119139036Y-115074823D01*
X119139036Y-84471052D01*
X119139037Y-84471039D01*
X119139037Y-84312605D01*
X119111137Y-84208484D01*
X119103225Y-84178955D01*
X119034041Y-84059125D01*
X119034038Y-84059122D01*
X119034037Y-84059120D01*
X118452813Y-83477898D01*
X118452810Y-83477894D01*
X118452810Y-83477895D01*
X118438618Y-83463703D01*
X118438617Y-83463701D01*
X118340777Y-83365861D01*
X118340774Y-83365859D01*
X118340773Y-83365858D01*
X118220949Y-83296678D01*
X118192699Y-83289108D01*
X118192699Y-83289107D01*
X118185978Y-83287307D01*
X118098842Y-83244337D01*
X118034783Y-83171292D01*
X118003553Y-83079293D01*
X118009907Y-82982346D01*
X118052877Y-82895210D01*
X118125922Y-82831151D01*
X118217921Y-82799921D01*
X118250423Y-82797791D01*
X123121591Y-82797791D01*
X123216879Y-82816745D01*
X123297661Y-82870721D01*
X125930651Y-85503711D01*
X125984627Y-85584493D01*
X126003581Y-85679781D01*
X126003581Y-114545804D01*
X125984627Y-114641092D01*
X125936345Y-114713353D01*
X125936686Y-114713625D01*
X125933472Y-114717654D01*
X125930658Y-114721867D01*
X125927967Y-114724558D01*
X125831999Y-114877288D01*
X125831996Y-114877294D01*
X125831996Y-114877296D01*
X125807681Y-114946786D01*
X125772417Y-115047564D01*
X125772415Y-115047572D01*
X125752220Y-115226814D01*
X125752220Y-115226821D01*
X125772415Y-115406063D01*
X125772416Y-115406069D01*
X125772417Y-115406073D01*
X125831996Y-115576340D01*
X125831997Y-115576341D01*
X125831999Y-115576347D01*
X125927965Y-115729075D01*
X125927967Y-115729077D01*
X125927969Y-115729080D01*
X126055523Y-115856634D01*
X126055525Y-115856635D01*
X126055527Y-115856637D01*
X126208255Y-115952603D01*
X126208258Y-115952604D01*
X126208263Y-115952607D01*
X126378530Y-116012186D01*
X126378539Y-116012187D01*
X126557781Y-116032383D01*
X126557785Y-116032383D01*
X126557789Y-116032383D01*
X126701885Y-116016147D01*
X126737040Y-116012186D01*
X126907307Y-115952607D01*
X126907312Y-115952603D01*
X126907314Y-115952603D01*
X127060042Y-115856637D01*
X127060041Y-115856637D01*
X127060047Y-115856634D01*
X127187601Y-115729080D01*
X127236871Y-115650667D01*
X127283570Y-115576347D01*
X127283570Y-115576345D01*
X127283574Y-115576340D01*
X127343153Y-115406073D01*
X127349664Y-115348286D01*
X127363350Y-115226821D01*
X127363350Y-115226814D01*
X127343154Y-115047572D01*
X127343153Y-115047563D01*
X127283574Y-114877296D01*
X127283571Y-114877291D01*
X127283570Y-114877288D01*
X127187602Y-114724557D01*
X127127510Y-114664464D01*
X127113775Y-114643908D01*
X132697307Y-114643908D01*
X132697307Y-115191740D01*
X132697308Y-115191741D01*
X133441977Y-115191741D01*
X133422232Y-115211486D01*
X133372863Y-115296996D01*
X133347307Y-115392371D01*
X133347307Y-115491111D01*
X133372863Y-115586486D01*
X133422232Y-115671996D01*
X133441977Y-115691741D01*
X132697308Y-115691741D01*
X132697307Y-115691742D01*
X132697307Y-116239573D01*
X132703708Y-116299112D01*
X132703710Y-116299119D01*
X132753953Y-116433828D01*
X132840117Y-116548928D01*
X132840119Y-116548930D01*
X132955219Y-116635094D01*
X133089928Y-116685337D01*
X133089935Y-116685339D01*
X133149474Y-116691740D01*
X133149482Y-116691741D01*
X133472306Y-116691741D01*
X133472307Y-116691740D01*
X133472307Y-115722071D01*
X133492052Y-115741816D01*
X133577562Y-115791185D01*
X133672937Y-115816741D01*
X133771677Y-115816741D01*
X133867052Y-115791185D01*
X133952562Y-115741816D01*
X133972307Y-115722071D01*
X133972307Y-116691740D01*
X133972308Y-116691741D01*
X134295132Y-116691741D01*
X134295139Y-116691740D01*
X134354678Y-116685339D01*
X134354685Y-116685337D01*
X134489395Y-116635094D01*
X134532169Y-116603073D01*
X134619809Y-116561141D01*
X134716825Y-116555939D01*
X134729959Y-116558187D01*
X134901151Y-116592240D01*
X134901152Y-116592241D01*
X134901153Y-116592241D01*
X135083462Y-116592241D01*
X135083466Y-116592240D01*
X135262261Y-116556675D01*
X135262261Y-116556674D01*
X135262265Y-116556674D01*
X135430696Y-116486908D01*
X135488972Y-116447968D01*
X135578730Y-116410790D01*
X135675885Y-116410791D01*
X135765641Y-116447968D01*
X135823918Y-116486908D01*
X135992349Y-116556674D01*
X135992351Y-116556674D01*
X135992352Y-116556675D01*
X136171147Y-116592240D01*
X136171152Y-116592241D01*
X136171153Y-116592241D01*
X136353462Y-116592241D01*
X136353466Y-116592240D01*
X136532261Y-116556675D01*
X136532261Y-116556674D01*
X136532265Y-116556674D01*
X136700696Y-116486908D01*
X136852279Y-116385624D01*
X136981190Y-116256713D01*
X137082474Y-116105130D01*
X137152240Y-115936699D01*
X137187807Y-115757895D01*
X137187807Y-115125587D01*
X137187393Y-115123504D01*
X137152241Y-114946786D01*
X137152240Y-114946785D01*
X137152240Y-114946783D01*
X137082474Y-114778352D01*
X136981190Y-114626769D01*
X136852279Y-114497858D01*
X136700696Y-114396574D01*
X136700692Y-114396572D01*
X136700690Y-114396571D01*
X136571986Y-114343261D01*
X136532265Y-114326808D01*
X136532263Y-114326807D01*
X136532262Y-114326807D01*
X136532261Y-114326806D01*
X136353466Y-114291241D01*
X136353461Y-114291241D01*
X136171153Y-114291241D01*
X136171147Y-114291241D01*
X135992352Y-114326806D01*
X135992351Y-114326807D01*
X135823923Y-114396571D01*
X135823922Y-114396572D01*
X135823920Y-114396572D01*
X135823918Y-114396574D01*
X135765640Y-114435513D01*
X135675882Y-114472691D01*
X135578727Y-114472690D01*
X135488973Y-114435513D01*
X135430696Y-114396574D01*
X135430690Y-114396571D01*
X135301986Y-114343261D01*
X135262265Y-114326808D01*
X135262263Y-114326807D01*
X135262262Y-114326807D01*
X135262261Y-114326806D01*
X135083466Y-114291241D01*
X135083461Y-114291241D01*
X134901153Y-114291241D01*
X134901147Y-114291241D01*
X134729971Y-114325291D01*
X134632816Y-114325292D01*
X134543056Y-114288112D01*
X134532171Y-114280410D01*
X134489394Y-114248387D01*
X134354685Y-114198144D01*
X134354678Y-114198142D01*
X134295139Y-114191741D01*
X133972308Y-114191741D01*
X133972307Y-114191742D01*
X133972307Y-115161411D01*
X133952562Y-115141666D01*
X133867052Y-115092297D01*
X133771677Y-115066741D01*
X133672937Y-115066741D01*
X133577562Y-115092297D01*
X133492052Y-115141666D01*
X133472307Y-115161411D01*
X133472307Y-114191742D01*
X133472306Y-114191741D01*
X133149474Y-114191741D01*
X133089935Y-114198142D01*
X133089928Y-114198144D01*
X132955219Y-114248387D01*
X132840119Y-114334551D01*
X132840117Y-114334553D01*
X132753953Y-114449653D01*
X132703710Y-114584362D01*
X132703708Y-114584369D01*
X132697307Y-114643908D01*
X127113775Y-114643908D01*
X127073534Y-114583683D01*
X127054581Y-114488396D01*
X127054581Y-85587949D01*
X127063065Y-85523506D01*
X127072016Y-85490099D01*
X127081424Y-85454986D01*
X127081421Y-85316620D01*
X127047103Y-85188554D01*
X127045607Y-85182972D01*
X127045606Y-85182971D01*
X127045606Y-85182969D01*
X126976420Y-85063140D01*
X126914588Y-85001310D01*
X126914587Y-85001308D01*
X126914587Y-85001309D01*
X123862906Y-81949628D01*
X123862905Y-81949626D01*
X123765065Y-81851786D01*
X123765062Y-81851784D01*
X123765061Y-81851783D01*
X123645237Y-81782603D01*
X123616987Y-81775033D01*
X123616987Y-81775032D01*
X123511587Y-81746790D01*
X123511583Y-81746790D01*
X123373217Y-81746790D01*
X123357956Y-81746790D01*
X123357940Y-81746791D01*
X64914162Y-81746791D01*
X64780507Y-81782603D01*
X64660683Y-81851783D01*
X64562837Y-81949629D01*
X64493657Y-82069453D01*
X64457845Y-82203107D01*
X64457845Y-110649563D01*
X64438891Y-110744851D01*
X64384915Y-110825633D01*
X62778978Y-112431570D01*
X62698196Y-112485546D01*
X62602908Y-112504500D01*
X62055741Y-112504500D01*
X61960453Y-112485546D01*
X61879671Y-112431570D01*
X61851772Y-112398320D01*
X61729100Y-112223126D01*
X61729099Y-112223125D01*
X61729098Y-112223123D01*
X61644297Y-112138322D01*
X61590324Y-112057544D01*
X61571370Y-111962256D01*
X61590324Y-111866968D01*
X61644300Y-111786186D01*
X61725082Y-111732210D01*
X61742610Y-111725744D01*
X61742801Y-111725646D01*
X61742804Y-111725646D01*
X61855842Y-111668050D01*
X61945550Y-111578342D01*
X62003146Y-111465304D01*
X62003635Y-111462220D01*
X62012183Y-111408244D01*
X62018000Y-111371519D01*
X62017999Y-109608482D01*
X62003146Y-109514696D01*
X61945550Y-109401658D01*
X61855842Y-109311950D01*
X61855839Y-109311948D01*
X61742803Y-109254353D01*
X61742799Y-109254352D01*
X61649030Y-109239501D01*
X61649022Y-109239500D01*
X61649019Y-109239500D01*
X61649014Y-109239500D01*
X59885984Y-109239500D01*
X59792195Y-109254354D01*
X59679159Y-109311949D01*
X59589448Y-109401660D01*
X59562397Y-109454752D01*
X59502249Y-109531050D01*
X59417481Y-109578522D01*
X59321000Y-109589941D01*
X59227493Y-109563570D01*
X59164466Y-109517779D01*
X59098576Y-109451889D01*
X58905076Y-109316399D01*
X58690984Y-109216566D01*
X58477501Y-109159363D01*
X58477500Y-109159364D01*
X58477500Y-110056988D01*
X58420493Y-110024075D01*
X58293326Y-109990000D01*
X58161674Y-109990000D01*
X58034507Y-110024075D01*
X57977500Y-110056988D01*
X57977500Y-109159364D01*
X57977498Y-109159363D01*
X57764016Y-109216566D01*
X57764005Y-109216570D01*
X57549928Y-109316396D01*
X57549920Y-109316400D01*
X57356423Y-109451889D01*
X57189389Y-109618923D01*
X57053900Y-109812420D01*
X57053896Y-109812428D01*
X56954070Y-110026505D01*
X56954066Y-110026516D01*
X56896863Y-110239998D01*
X54761620Y-110239998D01*
X54762206Y-84839998D01*
X56901863Y-84839998D01*
X56901864Y-84840000D01*
X57799488Y-84840000D01*
X57766575Y-84897007D01*
X57732500Y-85024174D01*
X57732500Y-85155826D01*
X57766575Y-85282993D01*
X57799488Y-85340000D01*
X56901864Y-85340000D01*
X56901863Y-85340001D01*
X56959066Y-85553483D01*
X56959066Y-85553485D01*
X57058899Y-85767576D01*
X57194389Y-85961076D01*
X57361423Y-86128110D01*
X57401298Y-86156031D01*
X57468482Y-86226213D01*
X57503694Y-86316762D01*
X57501575Y-86413894D01*
X57462446Y-86502821D01*
X57401298Y-86563969D01*
X57361423Y-86591889D01*
X57194389Y-86758923D01*
X57058900Y-86952420D01*
X57058896Y-86952428D01*
X56959070Y-87166505D01*
X56959066Y-87166516D01*
X56901863Y-87379998D01*
X56901864Y-87380000D01*
X57799488Y-87380000D01*
X57766575Y-87437007D01*
X57732500Y-87564174D01*
X57732500Y-87695826D01*
X57766575Y-87822993D01*
X57799488Y-87880000D01*
X56901864Y-87880000D01*
X56901863Y-87880001D01*
X56959066Y-88093483D01*
X56959066Y-88093485D01*
X57058899Y-88307576D01*
X57194389Y-88501076D01*
X57361423Y-88668110D01*
X57401298Y-88696031D01*
X57468482Y-88766213D01*
X57503694Y-88856762D01*
X57501575Y-88953894D01*
X57462446Y-89042821D01*
X57401298Y-89103969D01*
X57361423Y-89131889D01*
X57194389Y-89298923D01*
X57058900Y-89492420D01*
X57058896Y-89492428D01*
X56959070Y-89706505D01*
X56959066Y-89706516D01*
X56901863Y-89919998D01*
X56901864Y-89920000D01*
X57799488Y-89920000D01*
X57766575Y-89977007D01*
X57732500Y-90104174D01*
X57732500Y-90235826D01*
X57766575Y-90362993D01*
X57799488Y-90420000D01*
X56901864Y-90420000D01*
X56901863Y-90420001D01*
X56959066Y-90633483D01*
X56959066Y-90633485D01*
X57058899Y-90847576D01*
X57194389Y-91041076D01*
X57361423Y-91208110D01*
X57401298Y-91236031D01*
X57468482Y-91306213D01*
X57503694Y-91396762D01*
X57501575Y-91493894D01*
X57462446Y-91582821D01*
X57401298Y-91643969D01*
X57361423Y-91671889D01*
X57194389Y-91838923D01*
X57058900Y-92032420D01*
X57058896Y-92032428D01*
X56959070Y-92246505D01*
X56959066Y-92246516D01*
X56901863Y-92459998D01*
X56901864Y-92460000D01*
X57799488Y-92460000D01*
X57766575Y-92517007D01*
X57732500Y-92644174D01*
X57732500Y-92775826D01*
X57766575Y-92902993D01*
X57799488Y-92960000D01*
X56901864Y-92960000D01*
X56901863Y-92960001D01*
X56959066Y-93173483D01*
X56959066Y-93173485D01*
X57058899Y-93387576D01*
X57194389Y-93581076D01*
X57361423Y-93748110D01*
X57401298Y-93776031D01*
X57468482Y-93846213D01*
X57503694Y-93936762D01*
X57501575Y-94033894D01*
X57462446Y-94122821D01*
X57401298Y-94183969D01*
X57361423Y-94211889D01*
X57194389Y-94378923D01*
X57058900Y-94572420D01*
X57058896Y-94572428D01*
X56959070Y-94786505D01*
X56959066Y-94786516D01*
X56901863Y-94999998D01*
X56901864Y-95000000D01*
X57799488Y-95000000D01*
X57766575Y-95057007D01*
X57732500Y-95184174D01*
X57732500Y-95315826D01*
X57766575Y-95442993D01*
X57799488Y-95500000D01*
X56901864Y-95500000D01*
X56901863Y-95500001D01*
X56959066Y-95713483D01*
X56959066Y-95713485D01*
X57058899Y-95927576D01*
X57194389Y-96121076D01*
X57361423Y-96288110D01*
X57401298Y-96316031D01*
X57468482Y-96386213D01*
X57503694Y-96476762D01*
X57501575Y-96573894D01*
X57462446Y-96662821D01*
X57401298Y-96723969D01*
X57361423Y-96751889D01*
X57194389Y-96918923D01*
X57058900Y-97112420D01*
X57058896Y-97112428D01*
X56959070Y-97326505D01*
X56959066Y-97326516D01*
X56901863Y-97539998D01*
X56901864Y-97540000D01*
X57799488Y-97540000D01*
X57766575Y-97597007D01*
X57732500Y-97724174D01*
X57732500Y-97855826D01*
X57766575Y-97982993D01*
X57799488Y-98040000D01*
X56901864Y-98040000D01*
X56901863Y-98040001D01*
X56959066Y-98253483D01*
X56959066Y-98253485D01*
X57058899Y-98467576D01*
X57194389Y-98661076D01*
X57361423Y-98828110D01*
X57401298Y-98856031D01*
X57468482Y-98926213D01*
X57503694Y-99016762D01*
X57501575Y-99113894D01*
X57462446Y-99202821D01*
X57401298Y-99263969D01*
X57361423Y-99291889D01*
X57194389Y-99458923D01*
X57058900Y-99652420D01*
X57058896Y-99652428D01*
X56959070Y-99866505D01*
X56959066Y-99866516D01*
X56901863Y-100079998D01*
X56901864Y-100080000D01*
X57799488Y-100080000D01*
X57766575Y-100137007D01*
X57732500Y-100264174D01*
X57732500Y-100395826D01*
X57766575Y-100522993D01*
X57799488Y-100580000D01*
X56901864Y-100580000D01*
X56901863Y-100580001D01*
X56959066Y-100793483D01*
X56959066Y-100793485D01*
X57058899Y-101007576D01*
X57194389Y-101201076D01*
X57361423Y-101368110D01*
X57554923Y-101503600D01*
X57769011Y-101603431D01*
X57982500Y-101660635D01*
X57982500Y-100763012D01*
X58039507Y-100795925D01*
X58166674Y-100830000D01*
X58298326Y-100830000D01*
X58425493Y-100795925D01*
X58482500Y-100763012D01*
X58482500Y-101660635D01*
X58695988Y-101603431D01*
X58910076Y-101503600D01*
X59103576Y-101368110D01*
X59270610Y-101201076D01*
X59359264Y-101074466D01*
X59429445Y-101007283D01*
X59519995Y-100972070D01*
X59617126Y-100974189D01*
X59706054Y-101013318D01*
X59767199Y-101074463D01*
X59810902Y-101136877D01*
X59965623Y-101291598D01*
X60144861Y-101417102D01*
X60343170Y-101509575D01*
X60554523Y-101566207D01*
X60772500Y-101585277D01*
X60990477Y-101566207D01*
X61201830Y-101509575D01*
X61400139Y-101417102D01*
X61579377Y-101291598D01*
X61734098Y-101136877D01*
X61859602Y-100957639D01*
X61952075Y-100759330D01*
X62008707Y-100547977D01*
X62027777Y-100330000D01*
X62008707Y-100112023D01*
X61952075Y-99900670D01*
X61893517Y-99775093D01*
X61859605Y-99702368D01*
X61859601Y-99702360D01*
X61777798Y-99585534D01*
X61734098Y-99523123D01*
X61579377Y-99368402D01*
X61430229Y-99263967D01*
X61363047Y-99193788D01*
X61327834Y-99103239D01*
X61329953Y-99006107D01*
X61369082Y-98917180D01*
X61430231Y-98856031D01*
X61579377Y-98751598D01*
X61734098Y-98596877D01*
X61859602Y-98417639D01*
X61952075Y-98219330D01*
X62008707Y-98007977D01*
X62027777Y-97790000D01*
X62008707Y-97572023D01*
X61952075Y-97360670D01*
X61893517Y-97235093D01*
X61859605Y-97162368D01*
X61859601Y-97162360D01*
X61777798Y-97045534D01*
X61734098Y-96983123D01*
X61579377Y-96828402D01*
X61430229Y-96723967D01*
X61363047Y-96653788D01*
X61327834Y-96563239D01*
X61329953Y-96466107D01*
X61369082Y-96377180D01*
X61430231Y-96316031D01*
X61579377Y-96211598D01*
X61734098Y-96056877D01*
X61859602Y-95877639D01*
X61952075Y-95679330D01*
X62008707Y-95467977D01*
X62027777Y-95250000D01*
X62008707Y-95032023D01*
X61952075Y-94820670D01*
X61859602Y-94622362D01*
X61734098Y-94443123D01*
X61579377Y-94288402D01*
X61430229Y-94183967D01*
X61363047Y-94113788D01*
X61327834Y-94023239D01*
X61329953Y-93926107D01*
X61369082Y-93837180D01*
X61430231Y-93776031D01*
X61579377Y-93671598D01*
X61734098Y-93516877D01*
X61859602Y-93337639D01*
X61952075Y-93139330D01*
X62008707Y-92927977D01*
X62027777Y-92710000D01*
X62008707Y-92492023D01*
X61952075Y-92280670D01*
X61859602Y-92082362D01*
X61854666Y-92075313D01*
X61777798Y-91965534D01*
X61734098Y-91903123D01*
X61579377Y-91748402D01*
X61430229Y-91643967D01*
X61363047Y-91573788D01*
X61327834Y-91483239D01*
X61329953Y-91386107D01*
X61369082Y-91297180D01*
X61430231Y-91236031D01*
X61579377Y-91131598D01*
X61734098Y-90976877D01*
X61859602Y-90797639D01*
X61952075Y-90599330D01*
X62008707Y-90387977D01*
X62027777Y-90170000D01*
X62008707Y-89952023D01*
X61952075Y-89740670D01*
X61859602Y-89542362D01*
X61734098Y-89363123D01*
X61579377Y-89208402D01*
X61430229Y-89103967D01*
X61363047Y-89033788D01*
X61327834Y-88943239D01*
X61329953Y-88846107D01*
X61369082Y-88757180D01*
X61430231Y-88696031D01*
X61579377Y-88591598D01*
X61734098Y-88436877D01*
X61859602Y-88257639D01*
X61952075Y-88059330D01*
X62008707Y-87847977D01*
X62027777Y-87630000D01*
X62008707Y-87412023D01*
X61952075Y-87200670D01*
X61859602Y-87002362D01*
X61846568Y-86983748D01*
X61813942Y-86937152D01*
X61734098Y-86823123D01*
X61649297Y-86738322D01*
X61595324Y-86657544D01*
X61576370Y-86562256D01*
X61595324Y-86466968D01*
X61649300Y-86386186D01*
X61730082Y-86332210D01*
X61747610Y-86325744D01*
X61747801Y-86325646D01*
X61747804Y-86325646D01*
X61860842Y-86268050D01*
X61950550Y-86178342D01*
X62008146Y-86065304D01*
X62008635Y-86062220D01*
X62019173Y-85995684D01*
X62023000Y-85971519D01*
X62022999Y-84208482D01*
X62008146Y-84114696D01*
X61950550Y-84001658D01*
X61860842Y-83911950D01*
X61860839Y-83911948D01*
X61747803Y-83854353D01*
X61747799Y-83854352D01*
X61654030Y-83839501D01*
X61654022Y-83839500D01*
X61654019Y-83839500D01*
X61654014Y-83839500D01*
X59890984Y-83839500D01*
X59797195Y-83854354D01*
X59684159Y-83911949D01*
X59594448Y-84001660D01*
X59567397Y-84054752D01*
X59507249Y-84131050D01*
X59422481Y-84178522D01*
X59326000Y-84189941D01*
X59232493Y-84163570D01*
X59169466Y-84117779D01*
X59103576Y-84051889D01*
X58910076Y-83916399D01*
X58695984Y-83816566D01*
X58482501Y-83759363D01*
X58482500Y-83759364D01*
X58482500Y-84656988D01*
X58425493Y-84624075D01*
X58298326Y-84590000D01*
X58166674Y-84590000D01*
X58039507Y-84624075D01*
X57982500Y-84656988D01*
X57982500Y-83759364D01*
X57982498Y-83759363D01*
X57769016Y-83816566D01*
X57769005Y-83816570D01*
X57554928Y-83916396D01*
X57554920Y-83916400D01*
X57361423Y-84051889D01*
X57194389Y-84218923D01*
X57058900Y-84412420D01*
X57058896Y-84412428D01*
X56959070Y-84626505D01*
X56959066Y-84626516D01*
X56901863Y-84839998D01*
X54762206Y-84839998D01*
X54762314Y-80162525D01*
X54781270Y-80067240D01*
X54835248Y-79986459D01*
X54916031Y-79932485D01*
X55011314Y-79913533D01*
X152002314Y-79913533D01*
X152097602Y-79932487D01*
G37*
%TD.AperFunction*%
%TD*%
M02*
