%TF.GenerationSoftware,KiCad,Pcbnew,8.0.3-alt0.p10*%
%TF.CreationDate,2024-12-28T11:01:42+07:00*%
%TF.ProjectId,esp32-ddc-frontend,65737033-322d-4646-9463-2d66726f6e74,rev?*%
%TF.SameCoordinates,Original*%
%TF.FileFunction,Plated,1,2,PTH,Drill*%
%TF.FilePolarity,Positive*%
%FSLAX46Y46*%
G04 Gerber Fmt 4.6, Leading zero omitted, Abs format (unit mm)*
G04 Created by KiCad (PCBNEW 8.0.3-alt0.p10) date 2024-12-28 11:01:42*
%MOMM*%
%LPD*%
G01*
G04 APERTURE LIST*
%TA.AperFunction,ViaDrill*%
%ADD10C,0.400000*%
%TD*%
%TA.AperFunction,ComponentDrill*%
%ADD11C,0.750000*%
%TD*%
%TA.AperFunction,ComponentDrill*%
%ADD12C,0.800000*%
%TD*%
%TA.AperFunction,ComponentDrill*%
%ADD13C,0.900000*%
%TD*%
%TA.AperFunction,ComponentDrill*%
%ADD14C,1.000000*%
%TD*%
%TA.AperFunction,ComponentDrill*%
%ADD15C,1.100000*%
%TD*%
G04 APERTURE END LIST*
D10*
X70609768Y-128412716D03*
X70638667Y-123205606D03*
X70653117Y-146114522D03*
X70660072Y-109099742D03*
X74083972Y-130294154D03*
X75046934Y-127145640D03*
X75998043Y-124399982D03*
X76441334Y-126480952D03*
X77453693Y-101427677D03*
X80913306Y-154402329D03*
X81050636Y-152105166D03*
X92754489Y-100986609D03*
X101600000Y-125730000D03*
X102870000Y-123190000D03*
X104140000Y-121920000D03*
X104140000Y-130810000D03*
X105410000Y-121920000D03*
X105410000Y-127000000D03*
X106680000Y-121920000D03*
X110603948Y-127151158D03*
X116024326Y-119978808D03*
X116072341Y-136317342D03*
X116162098Y-144810389D03*
X116162098Y-150178530D03*
X116247998Y-127597095D03*
X116806275Y-157210794D03*
X117508428Y-108704272D03*
X118648781Y-143380961D03*
X118731697Y-115900250D03*
X120778128Y-129874441D03*
X124111241Y-108382184D03*
X124591697Y-141535268D03*
X125073212Y-158284423D03*
X126119407Y-143344160D03*
X126557785Y-115226818D03*
X131465595Y-108489546D03*
X135086415Y-156775528D03*
X135111636Y-158177060D03*
X135524157Y-141693326D03*
X138712585Y-108382184D03*
X146234272Y-118385136D03*
X146496389Y-108435865D03*
X150844584Y-158123378D03*
X151005628Y-108543228D03*
X151112991Y-115199723D03*
X151112991Y-139066478D03*
X151166672Y-129940638D03*
X151220354Y-123110215D03*
D11*
%TO.C,Q2*%
X121030260Y-115119642D03*
X122300260Y-115119642D03*
X123570260Y-115119642D03*
%TO.C,Q3*%
X133722307Y-115441741D03*
X134992307Y-115441741D03*
X136262307Y-115441741D03*
D12*
%TO.C,L1*%
X100330000Y-92710000D03*
X100330000Y-102870000D03*
%TO.C,D3*%
X128460954Y-148185157D03*
X128460954Y-155805157D03*
D13*
%TO.C,D2*%
X68580000Y-97790000D03*
X68580000Y-100330000D03*
X68580000Y-102870000D03*
X68580000Y-105410000D03*
X68580000Y-107950000D03*
X68580000Y-110490000D03*
X68580000Y-113030000D03*
X68580000Y-115570000D03*
X68580000Y-118110000D03*
X68580000Y-120650000D03*
X68580000Y-123190000D03*
X68580000Y-125730000D03*
X68580000Y-128270000D03*
X68580000Y-130810000D03*
X68580000Y-133350000D03*
X68580000Y-135890000D03*
X68580000Y-138430000D03*
X68580000Y-140970000D03*
X68580000Y-143510000D03*
X68580000Y-146050000D03*
X88900000Y-97790000D03*
X88900000Y-100330000D03*
X88900000Y-102870000D03*
X88900000Y-105410000D03*
X88900000Y-107950000D03*
X88900000Y-110490000D03*
X88900000Y-113030000D03*
X88900000Y-115570000D03*
X88900000Y-118110000D03*
X88900000Y-120650000D03*
X88900000Y-123190000D03*
X88900000Y-125730000D03*
X88900000Y-128270000D03*
X88900000Y-130810000D03*
X88900000Y-133350000D03*
X88900000Y-135890000D03*
X88900000Y-138430000D03*
X88900000Y-140970000D03*
X88900000Y-143510000D03*
X88900000Y-146050000D03*
D14*
%TO.C,J2*%
X58227500Y-110490000D03*
X58227500Y-113030000D03*
X58227500Y-115570000D03*
X58227500Y-118110000D03*
X58227500Y-120650000D03*
X58227500Y-123190000D03*
X58227500Y-125730000D03*
%TO.C,J6*%
X58232500Y-85090000D03*
X58232500Y-87630000D03*
X58232500Y-90170000D03*
X58232500Y-92710000D03*
X58232500Y-95250000D03*
X58232500Y-97790000D03*
X58232500Y-100330000D03*
%TO.C,J3*%
X58232500Y-134615000D03*
X58232500Y-137155000D03*
X58232500Y-139695000D03*
X58232500Y-142235000D03*
X58232500Y-144775000D03*
X58232500Y-147315000D03*
X58232500Y-149855000D03*
%TO.C,J2*%
X60767500Y-110490000D03*
X60767500Y-113030000D03*
X60767500Y-115570000D03*
X60767500Y-118110000D03*
X60767500Y-120650000D03*
X60767500Y-123190000D03*
X60767500Y-125730000D03*
%TO.C,J6*%
X60772500Y-85090000D03*
X60772500Y-87630000D03*
X60772500Y-90170000D03*
X60772500Y-92710000D03*
X60772500Y-95250000D03*
X60772500Y-97790000D03*
X60772500Y-100330000D03*
%TO.C,J3*%
X60772500Y-134615000D03*
X60772500Y-137155000D03*
X60772500Y-139695000D03*
X60772500Y-142235000D03*
X60772500Y-144775000D03*
X60772500Y-147315000D03*
X60772500Y-149855000D03*
%TO.C,J1*%
X67410981Y-84817237D03*
X69950981Y-84817237D03*
%TO.C,J5*%
X95846106Y-155662559D03*
X98386106Y-155662559D03*
%TO.C,J4*%
X121236051Y-155101361D03*
X123776051Y-155101361D03*
D15*
%TO.C,U3*%
X78740000Y-86360000D03*
X81280000Y-86360000D03*
X83820000Y-86360000D03*
%TO.C,U4*%
X103844689Y-86119177D03*
X106384689Y-86119177D03*
X108924689Y-86119177D03*
M02*
