%TF.GenerationSoftware,KiCad,Pcbnew,8.0.3-alt0.p10*%
%TF.CreationDate,2024-12-28T11:41:19+07:00*%
%TF.ProjectId,esp32-ddc-frontend,65737033-322d-4646-9463-2d66726f6e74,rev?*%
%TF.SameCoordinates,Original*%
%TF.FileFunction,Legend,Bot*%
%TF.FilePolarity,Positive*%
%FSLAX46Y46*%
G04 Gerber Fmt 4.6, Leading zero omitted, Abs format (unit mm)*
G04 Created by KiCad (PCBNEW 8.0.3-alt0.p10) date 2024-12-28 11:41:19*
%MOMM*%
%LPD*%
G01*
G04 APERTURE LIST*
%ADD10C,0.150000*%
%ADD11C,0.120000*%
G04 APERTURE END LIST*
D10*
X59830833Y-107614819D02*
X59830833Y-108329104D01*
X59830833Y-108329104D02*
X59878452Y-108471961D01*
X59878452Y-108471961D02*
X59973690Y-108567200D01*
X59973690Y-108567200D02*
X60116547Y-108614819D01*
X60116547Y-108614819D02*
X60211785Y-108614819D01*
X59402261Y-107710057D02*
X59354642Y-107662438D01*
X59354642Y-107662438D02*
X59259404Y-107614819D01*
X59259404Y-107614819D02*
X59021309Y-107614819D01*
X59021309Y-107614819D02*
X58926071Y-107662438D01*
X58926071Y-107662438D02*
X58878452Y-107710057D01*
X58878452Y-107710057D02*
X58830833Y-107805295D01*
X58830833Y-107805295D02*
X58830833Y-107900533D01*
X58830833Y-107900533D02*
X58878452Y-108043390D01*
X58878452Y-108043390D02*
X59449880Y-108614819D01*
X59449880Y-108614819D02*
X58830833Y-108614819D01*
X59835833Y-131739819D02*
X59835833Y-132454104D01*
X59835833Y-132454104D02*
X59883452Y-132596961D01*
X59883452Y-132596961D02*
X59978690Y-132692200D01*
X59978690Y-132692200D02*
X60121547Y-132739819D01*
X60121547Y-132739819D02*
X60216785Y-132739819D01*
X59454880Y-131739819D02*
X58835833Y-131739819D01*
X58835833Y-131739819D02*
X59169166Y-132120771D01*
X59169166Y-132120771D02*
X59026309Y-132120771D01*
X59026309Y-132120771D02*
X58931071Y-132168390D01*
X58931071Y-132168390D02*
X58883452Y-132216009D01*
X58883452Y-132216009D02*
X58835833Y-132311247D01*
X58835833Y-132311247D02*
X58835833Y-132549342D01*
X58835833Y-132549342D02*
X58883452Y-132644580D01*
X58883452Y-132644580D02*
X58931071Y-132692200D01*
X58931071Y-132692200D02*
X59026309Y-132739819D01*
X59026309Y-132739819D02*
X59312023Y-132739819D01*
X59312023Y-132739819D02*
X59407261Y-132692200D01*
X59407261Y-132692200D02*
X59454880Y-132644580D01*
X59835833Y-82214819D02*
X59835833Y-82929104D01*
X59835833Y-82929104D02*
X59883452Y-83071961D01*
X59883452Y-83071961D02*
X59978690Y-83167200D01*
X59978690Y-83167200D02*
X60121547Y-83214819D01*
X60121547Y-83214819D02*
X60216785Y-83214819D01*
X58931071Y-82214819D02*
X59121547Y-82214819D01*
X59121547Y-82214819D02*
X59216785Y-82262438D01*
X59216785Y-82262438D02*
X59264404Y-82310057D01*
X59264404Y-82310057D02*
X59359642Y-82452914D01*
X59359642Y-82452914D02*
X59407261Y-82643390D01*
X59407261Y-82643390D02*
X59407261Y-83024342D01*
X59407261Y-83024342D02*
X59359642Y-83119580D01*
X59359642Y-83119580D02*
X59312023Y-83167200D01*
X59312023Y-83167200D02*
X59216785Y-83214819D01*
X59216785Y-83214819D02*
X59026309Y-83214819D01*
X59026309Y-83214819D02*
X58931071Y-83167200D01*
X58931071Y-83167200D02*
X58883452Y-83119580D01*
X58883452Y-83119580D02*
X58835833Y-83024342D01*
X58835833Y-83024342D02*
X58835833Y-82786247D01*
X58835833Y-82786247D02*
X58883452Y-82691009D01*
X58883452Y-82691009D02*
X58931071Y-82643390D01*
X58931071Y-82643390D02*
X59026309Y-82595771D01*
X59026309Y-82595771D02*
X59216785Y-82595771D01*
X59216785Y-82595771D02*
X59312023Y-82643390D01*
X59312023Y-82643390D02*
X59359642Y-82691009D01*
X59359642Y-82691009D02*
X59407261Y-82786247D01*
D11*
%TO.C,J2*%
X56897500Y-109160000D02*
X59497500Y-109160000D01*
X56897500Y-127060000D02*
X56897500Y-109160000D01*
X56897500Y-127060000D02*
X62097500Y-127060000D01*
X59497500Y-109160000D02*
X59497500Y-111760000D01*
X59497500Y-111760000D02*
X62097500Y-111760000D01*
X60767500Y-109160000D02*
X62097500Y-109160000D01*
X62097500Y-109160000D02*
X62097500Y-110490000D01*
X62097500Y-127060000D02*
X62097500Y-111760000D01*
%TO.C,J3*%
X56902500Y-133285000D02*
X59502500Y-133285000D01*
X56902500Y-151185000D02*
X56902500Y-133285000D01*
X56902500Y-151185000D02*
X62102500Y-151185000D01*
X59502500Y-133285000D02*
X59502500Y-135885000D01*
X59502500Y-135885000D02*
X62102500Y-135885000D01*
X60772500Y-133285000D02*
X62102500Y-133285000D01*
X62102500Y-133285000D02*
X62102500Y-134615000D01*
X62102500Y-151185000D02*
X62102500Y-135885000D01*
%TO.C,J6*%
X56902500Y-83760000D02*
X59502500Y-83760000D01*
X56902500Y-101660000D02*
X56902500Y-83760000D01*
X56902500Y-101660000D02*
X62102500Y-101660000D01*
X59502500Y-83760000D02*
X59502500Y-86360000D01*
X59502500Y-86360000D02*
X62102500Y-86360000D01*
X60772500Y-83760000D02*
X62102500Y-83760000D01*
X62102500Y-83760000D02*
X62102500Y-85090000D01*
X62102500Y-101660000D02*
X62102500Y-86360000D01*
%TD*%
M02*
